<?xml version="1.0" encoding="UTF-8"?>
<svg version="1.1" xmlns="http://www.w3.org/2000/svg" width="1583" height="592">
<path d="M0 0 C0.83241211 0.00059418 1.66482422 0.00118835 2.52246094 0.00180054 C4.92267437 0.00835509 7.32253837 0.02485383 9.72265625 0.046875 C10.43321671 0.0512709 11.14377716 0.05566681 11.87586975 0.06019592 C16.63043782 0.12631027 21.22761828 0.59171809 25.9375 1.25 C28.13072556 9.19473429 29.38085223 17.30537783 30.73486328 25.42480469 C31.01075214 27.06483846 31.28691295 28.7048265 31.56332397 30.34477234 C32.30997785 34.77987727 33.05259983 39.21564837 33.79430246 43.65158367 C34.57179922 48.29850035 35.35242167 52.94489212 36.13253784 57.59136963 C37.44109078 65.38848971 38.74694052 73.18605902 40.05126953 80.98388672 C41.559509 90.00052116 43.07242285 99.01636212 44.58774006 108.03180957 C45.88953183 115.77764003 47.18878574 123.52389306 48.48591793 131.27050519 C49.26030334 135.89519354 50.03557507 140.5197286 50.81314468 145.14388275 C51.54332347 149.48705785 52.27031901 153.83075393 52.99484634 158.17487526 C53.26139441 159.76982423 53.52905626 161.36458753 53.79790497 162.95915031 C54.1642762 165.13322541 54.52663382 167.30793238 54.88796997 169.48284912 C55.09185396 170.70028683 55.29573795 171.91772453 55.50580025 173.17205429 C55.9375 176.25 55.9375 176.25 55.9375 180.25 C49.0075 180.25 42.0775 180.25 34.9375 180.25 C34.71421524 181.95524338 34.49093048 183.66048676 34.26087952 185.41740417 C32.15854422 201.47139568 30.05445761 217.52515673 27.94858646 233.57868481 C26.86593014 241.83236593 25.78390586 250.08612899 24.70336914 258.34008789 C23.76157163 265.53423903 22.81858858 272.7282336 21.87418169 279.92204267 C21.37417084 283.73108468 20.87475394 287.54020245 20.37675667 291.34950829 C19.90791024 294.93568631 19.43747766 298.5216527 18.96583366 302.10746384 C18.71082878 304.04939406 18.4575009 305.99154426 18.20422363 307.93370056 C18.0513942 309.09331299 17.89856476 310.25292542 17.74110413 311.44767761 C17.60928773 312.45335376 17.47747133 313.4590299 17.3416605 314.49518108 C16.95899003 317.1035207 16.48027467 319.67070426 15.9375 322.25 C11.87461116 321.77409357 7.81226443 321.29370488 3.75 320.8125 C2.59951172 320.67779297 1.44902344 320.54308594 0.26367188 320.40429688 C-0.84814453 320.27216797 -1.95996094 320.14003906 -3.10546875 320.00390625 C-4.12664795 319.88345947 -5.14782715 319.7630127 -6.19995117 319.63891602 C-8.85135778 319.27868653 -11.44613196 318.80689762 -14.0625 318.25 C-14.36184448 319.50611084 -14.36184448 319.50611084 -14.66723633 320.78759766 C-17.71218713 333.27457763 -21.2056973 345.62878444 -24.71801758 357.99121094 C-25.76137715 361.66506092 -26.79986913 365.34026363 -27.83789062 369.015625 C-28.49971484 371.35164331 -29.16181386 373.68758378 -29.82421875 376.0234375 C-30.13461594 377.12223236 -30.44501312 378.22102722 -30.76481628 379.3531189 C-31.05214127 380.36242462 -31.33946625 381.37173035 -31.63549805 382.41162109 C-32.01377998 383.7448793 -32.01377998 383.7448793 -32.39970398 385.10507202 C-33.0625 387.25 -33.0625 387.25 -34.0625 389.25 C-39.59083504 387.89274409 -45.10974119 386.52052917 -50.59765625 385.0078125 C-51.39647217 384.79020264 -52.19528809 384.57259277 -53.01831055 384.34838867 C-54.57504833 383.92310971 -56.13007316 383.49148304 -57.68286133 383.05200195 C-69.58437105 379.82120953 -81.51722282 378.88172104 -93.8125 378.9375 C-95.12653809 378.94313965 -96.44057617 378.9487793 -97.79443359 378.95458984 C-126.6483668 379.31361994 -157.22355446 388.23094662 -180.359375 406.015625 C-182.0625 407.25 -182.0625 407.25 -184.0625 407.25 C-184.0625 408.24 -184.0625 409.23 -184.0625 410.25 C-491.2925 410.25 -798.5225 410.25 -1115.0625 410.25 C-1115.0625 401.25000738 -1115.0625 401.25000738 -1114.48694229 397.17983055 C-1114.35849025 396.25203769 -1114.23003821 395.32424483 -1114.09769368 394.36833704 C-1113.95413213 393.37250939 -1113.81057059 392.37668174 -1113.66265869 391.35067749 C-1113.51186694 390.27337675 -1113.36107519 389.196076 -1113.20571399 388.08612978 C-1112.70000295 384.48292964 -1112.18641482 380.8808973 -1111.67285156 377.27880859 C-1111.30761389 374.68820289 -1110.94286517 372.09752822 -1110.5785675 369.50679016 C-1109.79152255 363.91518124 -1109.00044134 358.32415534 -1108.20664215 352.73350143 C-1107.04569211 344.55686521 -1105.89111498 336.37933854 -1104.7380031 328.20159371 C-1102.84930192 314.80826946 -1100.95575934 301.41563438 -1099.05908203 288.0234375 C-1097.24737229 275.23109604 -1095.43741775 262.43850886 -1093.63037109 249.64550781 C-1093.52056347 248.86812817 -1093.41075584 248.09074854 -1093.29762071 247.28981194 C-1092.52513312 241.82082676 -1091.75277936 236.35182268 -1090.98046875 230.8828125 C-1090.21445111 225.45838537 -1089.44843068 220.03395863 -1088.68236583 214.60953817 C-1088.46508392 213.07098587 -1088.24780626 211.53243297 -1088.0305329 209.99387947 C-1086.52762801 199.35176274 -1085.02304163 188.70988495 -1083.51731759 178.06816676 C-1079.7010916 151.09527614 -1075.89337532 124.12141596 -1072.15429688 97.13769531 C-1071.861956 95.03001207 -1071.56959673 92.92233137 -1071.27721786 90.8146534 C-1070.09357816 82.27852934 -1068.91192855 73.7421574 -1067.74145508 65.20421696 C-1067.29151185 61.92732048 -1066.8383901 58.65086932 -1066.3844347 55.3745265 C-1066.17958141 53.89016175 -1065.97624003 52.40558744 -1065.77453136 50.9207921 C-1065.50552429 48.94095343 -1065.23106426 46.96185786 -1064.95623779 44.9828186 C-1064.80635784 43.88970682 -1064.65647789 42.79659504 -1064.50205612 41.67035866 C-1064.0625 39.25 -1064.0625 39.25 -1063.0625 38.25 C-1061.04332656 38.15411362 -1059.02072527 38.13041099 -1056.99927831 38.13319749 C-1056.35479166 38.13271574 -1055.71030501 38.132234 -1055.04628846 38.13173766 C-1052.85548137 38.13134049 -1050.66475318 38.13816007 -1048.47395706 38.14485455 C-1046.8930989 38.14604636 -1045.31224035 38.14679467 -1043.73138177 38.14713618 C-1039.34657432 38.14935526 -1034.96179694 38.15783835 -1030.57699976 38.16721094 C-1025.82176277 38.17624673 -1021.06652164 38.17941111 -1016.3112781 38.1832245 C-1007.96310768 38.19067835 -999.61494783 38.2016776 -991.26678467 38.21491814 C-977.68638544 38.23635339 -964.1059833 38.25050614 -950.52557373 38.26351929 C-945.78172347 38.268132 -941.03787325 38.27278148 -936.29402304 38.27744067 C-935.10158047 38.2786055 -933.90913789 38.27977034 -932.6805607 38.28097047 C-924.01117416 38.28951957 -915.34178896 38.29903284 -906.67240381 38.30887926 C-870.40438429 38.34968462 -834.13638791 38.37022311 -797.86834717 38.3787384 C-795.22238689 38.37938853 -792.5764266 38.38004102 -789.93046632 38.38069584 C-768.34875867 38.38596848 -746.76705083 38.3903176 -725.18534285 38.39399754 C-706.4244755 38.39720025 -687.66360841 38.40095633 -668.90274144 38.40593885 C-666.80122682 38.40649428 -664.6997122 38.40703578 -662.59819758 38.40757642 C-630.25172189 38.41601244 -597.90528514 38.43421173 -565.55883789 38.47924805 C-564.86376682 38.48021514 -564.16869574 38.48118224 -563.45256191 38.48217864 C-552.24646592 38.49782094 -541.04037099 38.51419108 -529.8342762 38.53067086 C-497.54158799 38.57815124 -465.2489469 38.61895171 -432.95621872 38.61848164 C-431.95927831 38.61847205 -431.95927831 38.61847205 -430.94219769 38.61846226 C-417.00448066 38.61822444 -403.06676516 38.61532907 -389.12904942 38.60915177 C-382.60111639 38.6062833 -376.07318326 38.60388103 -369.54524994 38.6017704 C-368.26048238 38.60134283 -366.97571481 38.60091525 -365.6520149 38.60047472 C-344.98312075 38.59478616 -324.31450237 38.63097634 -303.64568187 38.68306586 C-282.85988806 38.73459663 -262.07443916 38.74259686 -241.28860989 38.70633354 C-228.94393209 38.68612977 -216.60034684 38.69926219 -204.25579899 38.76054539 C-196.00042362 38.79822116 -187.74581826 38.79203059 -179.49046204 38.75083805 C-174.79200457 38.72863301 -170.09564645 38.72488215 -165.39735523 38.77487423 C-145.94734522 38.96911033 -130.13575265 38.88339292 -113.93220672 26.60369054 C-109.8853003 23.67368078 -105.21278863 21.85265302 -100.625 19.9375 C-99.68019775 19.53635986 -98.73539551 19.13521973 -97.76196289 18.72192383 C-66.3613534 5.67851355 -33.88593379 -0.02700235 0 0 Z " fill="#5D9850" transform="translate(1527.0625,34.75)"/>
<path d="M0 0 C0.68674805 0.22768066 1.37349609 0.45536133 2.08105469 0.68994141 C30.4105702 10.2044085 54.38549836 26.6480979 76 47 C76.71027344 47.65613281 77.42054688 48.31226563 78.15234375 48.98828125 C114.48891747 83.69008069 132.80692596 137.76024732 134.12426758 187.0390625 C134.21964326 191.67179977 134.24659512 196.30386709 134.25 200.9375 C134.25067474 201.76914673 134.25134949 202.60079346 134.25204468 203.4576416 C134.18858479 253.11292907 122.39404389 301.25048883 101 346 C100.62294922 346.80179687 100.24589844 347.60359375 99.85742188 348.4296875 C89.91739336 369.48707447 77.44364476 389.02430756 64 408 C63.44924805 408.77746582 62.89849609 409.55493164 62.33105469 410.35595703 C55.4268261 420.06715725 48.34502147 429.61792821 41 439 C40.08459343 440.17444644 39.16923018 441.34892665 38.25390625 442.5234375 C29.56253019 453.65256492 20.60546576 464.54561238 11.45019531 475.29541016 C9.98196961 477.02119329 8.51826467 478.75074272 7.0546875 480.48046875 C1.59522377 486.91266743 -3.96069261 493.22826929 -9.72827148 499.38671875 C-12.34148005 502.18003741 -14.89638438 505.01158354 -17.40625 507.8984375 C-20.9168875 511.92908069 -24.52797134 515.85449751 -28.1875 519.75 C-29.15816406 520.78543945 -29.15816406 520.78543945 -30.1484375 521.84179688 C-35.06332548 527.06084786 -40.09120375 532.14657838 -45.21875 537.15625 C-47.32366493 539.30846639 -49.29423803 541.46827364 -51.25390625 543.74609375 C-55.43267478 548.56950196 -59.91585061 553.06239938 -64.4375 557.5625 C-65.24509766 558.37396484 -66.05269531 559.18542969 -66.88476562 560.02148438 C-71.15760913 564.28744175 -75.4892552 568.40995925 -80.09790039 572.31225586 C-82.14636387 574.0445262 -82.14636387 574.0445262 -84.14109802 576.57400513 C-87.69147617 579.5867699 -90.20397494 579.65606596 -94.64453125 579.50366211 C-95.41612579 579.49780909 -96.18772034 579.49195606 -96.98269653 579.48592567 C-99.59348465 579.46061454 -102.2022926 579.39972063 -104.8125 579.33984375 C-106.70708154 579.31525859 -108.60169838 579.29328107 -110.49633789 579.27366638 C-114.69540338 579.22714682 -118.89400525 579.16698059 -123.09277344 579.09881592 C-130.38719714 578.98645586 -137.68141823 578.94020558 -144.9765625 578.90283203 C-147.60742216 578.88902104 -150.23828153 578.87515517 -152.86914062 578.86123657 C-153.53056438 578.85776588 -154.19198814 578.85429519 -154.87345505 578.85071933 C-162.35583388 578.81049871 -169.83806387 578.75260913 -177.3203125 578.69335938 C-178.0027578 578.68795678 -178.68520309 578.68255419 -179.38832855 578.67698789 C-180.07202766 578.67157255 -180.75572678 578.66615721 -181.46014404 578.66057777 C-182.84615068 578.64960952 -184.23215736 578.63864545 -185.61816406 578.62768555 C-186.30601864 578.62223359 -186.99387321 578.61678162 -187.70257187 578.61116445 C-193.36532953 578.56663781 -199.02811443 578.52689796 -204.6909132 578.48800808 C-210.24522363 578.44962382 -215.79950044 578.40770546 -221.35376453 578.36312145 C-224.63149361 578.3368813 -227.90921749 578.31248198 -231.1869812 578.29092598 C-234.80829681 578.26671588 -238.42952173 578.23671429 -242.05078125 578.20532227 C-243.10316986 578.1995668 -244.15555847 578.19381134 -245.23983765 578.18788147 C-251.87168887 578.12272465 -258.40522346 577.70236219 -265 577 C-259.31777313 570.15218814 -253.25080734 563.76817083 -246.48207092 557.98228455 C-241.35044801 553.49996586 -236.55873106 548.69867225 -231.74780273 543.87719727 C-230.74342074 542.87417334 -229.7388268 541.87136161 -228.73403931 540.8687439 C-226.02725449 538.16648513 -223.32360295 535.46111233 -220.62067294 532.75499845 C-217.77873619 529.91051299 -214.93434106 527.06848746 -212.09034729 524.22605896 C-207.31665214 519.45417821 -202.54505799 514.68020422 -197.7746582 509.9050293 C-192.27564377 504.40057366 -186.77303641 498.89972947 -181.26854938 493.40074688 C-176.52506676 488.6618162 -171.7835531 483.92092211 -167.04365116 479.17840999 C-164.2203871 476.35359459 -161.39647009 473.52944083 -158.57076836 470.70706367 C-155.9131561 468.05236047 -153.25804085 465.39518394 -150.6047554 462.73615646 C-149.17768721 461.30715605 -147.74818561 459.88058702 -146.31858826 458.45411682 C-141.86835478 453.98937127 -137.54520535 449.47513485 -133.44621372 444.68444729 C-131.24298076 442.11827762 -128.93026076 439.66236704 -126.625 437.1875 C-122.3312462 432.53961458 -118.2646816 427.75583652 -114.296875 422.82421875 C-112.27416111 420.33710627 -110.2072478 417.89596656 -108.11645508 415.46606445 C-98.11090392 403.81586312 -88.92826742 391.48878495 -80 379 C-81.06089844 379.2165625 -82.12179688 379.433125 -83.21484375 379.65625 C-127.43587312 387.86101015 -175.44111482 379.88416119 -212.875 354.5 C-214.93002424 353.01835289 -216.97259291 351.51921798 -219 350 C-219.87398438 349.3503125 -220.74796875 348.700625 -221.6484375 348.03125 C-255.5639441 321.55067428 -276.38072197 284.57470383 -286 243 C-286.16580566 242.30036133 -286.33161133 241.60072266 -286.50244141 240.87988281 C-299.28928833 185.58466723 -288.07138478 123.91033198 -258.97265625 75.63671875 C-249.35642069 60.78956568 -237.75794145 46.17539272 -224 35 C-222.52660156 33.77023438 -222.52660156 33.77023438 -221.0234375 32.515625 C-160.47189223 -17.21899722 -72.56637885 -24.53556656 0 0 Z M-133.25 145.3125 C-147.58873442 162.2902653 -151.39141961 182.34727826 -150 204 C-147.85061375 222.28740105 -137.5130852 241.38679454 -123.4765625 253.15625 C-106.84992679 265.53443936 -87.74349024 270.2535928 -67.28515625 267.5 C-47.87768421 263.72572919 -32.00089892 253.62376188 -19.94921875 237.9296875 C-8.16759799 220.22184067 -3.36241655 200.5294856 -7.1875 179.4375 C-11.6526251 159.23021293 -22.76649209 143.30631791 -40 132 C-71.71996098 113.33963802 -108.06413797 118.68469931 -133.25 145.3125 Z " fill="#74A74C" transform="translate(291,13)"/>
<path d="M0 0 C3.90962991 -0.01029757 7.819127 -0.02766364 11.72869873 -0.05126953 C16.37685152 -0.07881643 21.02480838 -0.09098616 25.67304039 -0.09189606 C27.37644718 -0.09453919 29.07985563 -0.1021552 30.78321266 -0.11544037 C54.31806915 -0.2885886 80.84999619 4.09626735 98.45187378 20.93530273 C105.23547442 28.04538683 109.75818416 34.46290479 109.95578003 44.48217773 C109.37901144 68.28015112 107.60275975 95.96065286 92.64328003 115.23217773 C92.21660034 115.84706055 91.78992065 116.46194336 91.35031128 117.09545898 C84.44336675 126.34013859 72.70323441 131.67093906 62.09249878 135.35717773 C59.72782766 136.00496509 59.72782766 136.00496509 58.64328003 137.23217773 C60.076073 137.65176758 60.076073 137.65176758 61.53781128 138.07983398 C74.07240898 141.90334185 86.51766816 147.39892373 93.36593628 159.20092773 C101.45110562 174.95076115 98.62231113 190.44272761 96.06661987 207.37670898 C95.51266677 211.11317699 95.01084528 214.8557 94.51193237 218.59985352 C94.02484503 222.24300878 93.5190616 225.88348596 93.0138855 229.52416992 C92.64070896 232.2509645 92.28434165 234.9796442 91.92843628 237.70874023 C89.68885626 254.40406882 85.40098477 266.39373024 71.94796753 277.51733398 C51.18271379 292.96809058 26.07319308 299.36478436 0.45822144 299.39331055 C-1.16583115 299.4007579 -1.16583115 299.4007579 -2.82269287 299.40835571 C-6.38352104 299.422887 -9.94430459 299.42976594 -13.50515747 299.43530273 C-14.73090107 299.43813011 -15.95664467 299.44095749 -17.21953201 299.44387054 C-23.71236636 299.45883028 -30.2051787 299.46807876 -36.69802856 299.47241211 C-43.35585627 299.47709223 -50.01349868 299.50187305 -56.67127037 299.53038406 C-61.83276935 299.54914941 -66.99422009 299.55422349 -72.15575027 299.55574799 C-74.60737862 299.55874619 -77.0590067 299.56667697 -79.51060104 299.57993317 C-126.94459364 299.81801291 -126.94459364 299.81801291 -144.03250122 283.64624023 C-151.14598259 276.12677854 -152.67762418 268.26738146 -152.55252075 258.17285156 C-152.24916132 252.06745937 -151.39157173 246.08418021 -150.44927979 240.05245972 C-149.84857405 236.2028591 -149.28272707 232.34806276 -148.71218872 228.49389648 C-148.59544296 227.71097733 -148.4786972 226.92805817 -148.3584137 226.12141418 C-147.25205373 218.65194371 -146.32204136 211.16654191 -145.41921997 203.66967773 C-143.93673352 191.47755708 -142.24853783 179.32368613 -140.48171997 167.16967773 C-138.11677875 150.89742538 -135.96632292 134.60577485 -133.91690063 118.29095459 C-132.30104988 105.44108135 -130.60110572 92.61015356 -128.73171997 79.79467773 C-126.96800194 67.70006778 -125.34463978 55.59697887 -123.87576294 43.46289062 C-122.16293669 29.3695848 -120.24652177 15.30262593 -118.35671997 1.23217773 C-78.90702019 0.57713564 -39.45531064 0.10044785 0 0 Z " fill="#FDFDFD" transform="translate(1161.3567199707031,105.767822265625)"/>
<path d="M0 0 C17.42090593 2.85958715 35.33328493 6.60711693 51 15 C52.04414063 15.44214844 53.08828125 15.88429688 54.1640625 16.33984375 C98.14220324 34.99864331 133.67588905 72.04795531 152 116 C156.68046831 127.72600399 160.12973174 139.53816647 162.5769043 151.91552734 C163.03370569 154.1660584 163.53300444 156.40458677 164.0390625 158.64453125 C171.78852197 193.31042179 170.38301113 234.15472527 162.51757812 268.70385742 C162.03429868 270.84784004 161.58173863 272.99544393 161.140625 275.1484375 C150.32051787 327.06784484 124.84293171 374.37330987 94 417 C93.40799805 417.81871582 92.81599609 418.63743164 92.20605469 419.48095703 C84.6958989 429.83328685 77.01209402 440.03098435 69 450 C68.4858252 450.6403418 67.97165039 451.28068359 67.44189453 451.94042969 C60.54171414 460.51746377 53.54241302 469.00365056 46.39013672 477.37158203 C44.93465989 479.07653996 43.48473947 480.7861233 42.03515625 482.49609375 C36.37731403 489.15345162 30.61592858 495.68611716 24.66796875 502.0859375 C22.62253331 504.32004415 20.61937944 506.57383572 18.6328125 508.859375 C15.06961042 512.94664841 11.40137692 516.92464448 7.6875 520.875 C6.70910156 521.91817383 6.70910156 521.91817383 5.7109375 522.98242188 C1.34654586 527.61797395 -3.08813694 532.15804602 -7.65625 536.59375 C-9.51889415 538.50606467 -11.24269845 540.43713896 -12.97265625 542.46484375 C-17.78454073 548.00787632 -22.99986835 553.14930618 -28.19702148 558.32739258 C-29.933936 560.058947 -31.66543889 561.79578359 -33.39648438 563.53320312 C-34.52311706 564.65917488 -35.65005998 565.78483633 -36.77734375 566.91015625 C-37.28281235 567.41764908 -37.78828094 567.92514191 -38.30906677 568.44801331 C-39.29209761 569.42481368 -40.2881103 570.38877042 -41.29830074 571.33745575 C-43.02711086 572.97404544 -43.02711086 572.97404544 -44.5347538 574.81367397 C-47.53331918 578.02072729 -49.82925473 579.79285745 -54.21722126 580.56923008 C-58.14793824 580.70106981 -62.04031234 580.61660648 -65.96655273 580.45117188 C-67.43771301 580.41603024 -68.90896512 580.38456296 -70.38027859 580.35655975 C-73.42409944 580.2947353 -76.46667174 580.21524066 -79.50968552 580.12191772 C-86.35458065 579.92151398 -93.19964709 579.92975314 -100.04711914 579.90820312 C-102.75450839 579.89119349 -105.46185282 579.86964301 -108.16920471 579.84753418 C-109.54791817 579.83660576 -110.92663178 579.82569588 -112.30534554 579.81480408 C-112.99806596 579.80928213 -113.69078639 579.80376019 -114.40449834 579.79807091 C-118.07185884 579.76911819 -121.7392305 579.74164653 -125.40660095 579.71398926 C-132.29037394 579.66186512 -139.17413658 579.60849087 -146.05789608 579.5546174 C-153.92065645 579.49314675 -161.78342785 579.43314597 -169.6462003 579.37324238 C-185.76414595 579.25041406 -201.88207746 579.12582529 -218 579 C-214.12622203 574.29167392 -210.0598616 570.05568951 -205.54101562 565.97021484 C-195.38146756 556.62424101 -185.67358958 546.82024412 -175.92056084 537.05488634 C-173.23749902 534.36925004 -170.5519498 531.68610265 -167.86682129 529.00253296 C-163.37035755 524.50787413 -158.87597405 520.01114335 -154.3828125 515.51318359 C-149.20801181 510.33292023 -144.02958761 505.15630001 -138.84931326 499.98151076 C-134.3689571 495.50570618 -129.89056927 491.02793915 -125.41379404 486.54855287 C-122.75383539 483.88704565 -120.09323049 481.2261939 -117.43083191 478.56712723 C-114.9331777 476.07238247 -112.43802198 473.5751644 -109.94469452 471.07609558 C-108.60595699 469.73542824 -107.26478943 468.39718877 -105.92352295 467.05905151 C-101.61897667 462.73956667 -97.45436111 458.35867493 -93.48761749 453.72585106 C-91.1136534 450.97170998 -88.61208505 448.33905155 -86.125 445.6875 C-81.64132731 440.86763923 -77.3837577 435.92496022 -73.26171875 430.7890625 C-71.25377336 428.31294332 -69.19905535 425.88561044 -67.11962891 423.46948242 C-58.85205557 413.84461229 -51.24002737 403.72282806 -43.68359375 393.53515625 C-42.88103149 392.45584839 -42.88103149 392.45584839 -42.06225586 391.35473633 C-41.05247356 389.99431545 -40.04650202 388.63105402 -39.04516602 387.2644043 C-34.61398309 381.2863187 -30.35900805 376.94180564 -23.6875 373.4375 C-1.06738576 361.04109801 19.11657396 342.16088352 35 322 C35.65355469 321.21367187 36.30710937 320.42734375 36.98046875 319.6171875 C53.56454059 299.55741198 65.36137108 276.4451857 74 252 C74.26393555 251.26056152 74.52787109 250.52112305 74.79980469 249.75927734 C78.67105394 238.73849421 80.98903328 227.48413363 83 216 C83.15243164 215.18418457 83.30486328 214.36836914 83.46191406 213.52783203 C85.75828209 201.02676159 86.2877992 188.67635073 86.3125 176 C86.31787781 174.88973953 86.31787781 174.88973953 86.32336426 173.75704956 C86.34604283 165.0659681 85.89895403 156.70692887 84.48754883 148.10571289 C83.98228557 144.88715813 83.66575185 141.68177218 83.375 138.4375 C82.33784043 130.55508728 80.28360624 122.97162911 78.1875 115.3125 C77.8560498 114.08909912 77.52459961 112.86569824 77.18310547 111.60522461 C74.99081082 103.79405451 72.30982357 96.4036691 69 89 C68.59273682 88.07582275 68.18547363 87.15164551 67.76586914 86.19946289 C61.67771565 72.58422508 54.77674416 60.05900602 46 48 C45.56300781 47.39478516 45.12601562 46.78957031 44.67578125 46.16601562 C38.67532125 37.92230673 32.04324122 30.35354796 25 23 C24.28457031 22.24372314 24.28457031 22.24372314 23.5546875 21.47216797 C16.98134545 14.54950727 10.11379554 8.51945248 2.421875 2.86328125 C1.22304688 1.94095703 1.22304688 1.94095703 0 1 C0 0.67 0 0.34 0 0 Z " fill="#74A74C" transform="translate(253,8)"/>
<path d="M0 0 C1.09391556 -0.0065712 2.18783112 -0.0131424 3.31489563 -0.01991272 C6.91842737 -0.03954508 10.52191754 -0.05128836 14.12548828 -0.0612793 C15.36442966 -0.06535482 16.60337105 -0.06943035 17.87985611 -0.07362938 C23.76810868 -0.0923106 29.65634829 -0.10688256 35.54462326 -0.11524135 C42.28823254 -0.12497823 49.03151049 -0.15121748 55.77500331 -0.19174224 C61.65787097 -0.22585208 67.5406303 -0.23741167 73.4235878 -0.24144554 C75.9039649 -0.24627778 78.38433933 -0.25779399 80.86465073 -0.27648354 C106.38345712 -0.45676121 132.76796028 2.5947723 152.25830078 20.98950195 C159.50333999 28.6072763 163.06610516 36.63087452 162.96337891 47.07299805 C162.724448 52.27465471 161.90442311 57.35483278 161.07080078 62.48950195 C160.6990659 64.88503455 160.32934736 67.28088072 159.96142578 69.67700195 C159.6762207 71.52745117 159.6762207 71.52745117 159.38525391 73.4152832 C158.45766323 79.59708124 157.63832 85.79234908 156.82080078 91.98950195 C156.65467285 93.224021 156.48854492 94.45854004 156.31738281 95.73046875 C155.53572785 101.57396388 154.7819519 107.41759034 154.12286377 113.27610779 C153.89257057 115.30867116 153.653019 117.33993844 153.41064453 119.37109375 C153.11093029 121.90559952 152.82836632 124.442221 152.56689453 126.98095703 C150.99692661 139.94669554 145.59867262 150.44727203 135.82080078 159.17700195 C103.7186587 183.54417098 65.41516978 182.77623167 26.99291992 182.45166016 C21.54824097 182.41015419 16.1034842 182.39234908 10.65869141 182.37231445 C0.04586113 182.32988851 -10.56662987 182.26195683 -21.17919922 182.17700195 C-21.24173386 183.24236176 -21.30426849 184.30772156 -21.36869812 185.40536499 C-21.45476932 186.83494633 -21.54094109 188.26452161 -21.62719727 189.6940918 C-21.68828297 190.74166908 -21.68828297 190.74166908 -21.75060272 191.81040955 C-22.19922824 199.17872762 -23.06729885 206.4789216 -23.99169922 213.80200195 C-24.16969308 215.24077196 -24.34742155 216.67957482 -24.52490234 218.1184082 C-25.83633882 228.69172735 -27.24015776 239.25238556 -28.671875 249.81005859 C-30.18568173 261.03683711 -31.5472333 272.28018031 -32.87255859 283.53051758 C-32.95274734 284.20521591 -33.0329361 284.87991425 -33.11555481 285.57505798 C-33.33258481 287.40190471 -33.5473553 289.22901946 -33.76196289 291.05615234 C-34.12609364 293.7797822 -34.64029896 296.48250064 -35.17919922 299.17700195 C-60.58919922 299.17700195 -85.99919922 299.17700195 -112.17919922 299.17700195 C-111.02632439 285.34250406 -109.76254177 271.6477168 -107.3203125 257.98120117 C-106.52159821 253.46526843 -105.86701544 248.94220067 -105.26879883 244.39515686 C-105.09055781 243.04710412 -104.91211479 241.69907807 -104.73348999 240.35107613 C-104.64186459 239.65932328 -104.55023918 238.96757044 -104.45583725 238.25485539 C-103.64173219 232.14003819 -102.7997292 226.02893498 -101.96435547 219.91699219 C-101.75054018 218.35131082 -101.53674481 216.78562674 -101.32296753 215.21994019 C-100.74882194 211.01544537 -100.1743701 206.81099246 -99.59983444 202.60655093 C-99.11767772 199.07796423 -98.63566067 195.54935845 -98.15363789 192.02075344 C-97.0155782 183.68974824 -95.87725305 175.35877933 -94.73876953 167.02783203 C-93.56933724 158.47037265 -92.4004016 149.91284552 -91.23170185 141.35528606 C-90.22302955 133.96964581 -89.2140236 126.58405118 -88.20476055 119.19849163 C-87.6042583 114.80411684 -87.00388234 110.4097249 -86.40383911 106.0152874 C-85.83949487 101.88238636 -85.27473058 97.74954292 -84.70965958 93.61674118 C-84.5039419 92.11166316 -84.298366 90.60656575 -84.09295273 89.10144615 C-76.64729008 34.54968536 -76.64729008 34.54968536 -54.82763672 16.1184082 C-38.60968262 4.23002592 -19.81403102 0.05232087 0 0 Z " fill="#FDFDFD" transform="translate(577.17919921875,108.822998046875)"/>
<path d="M0 0 C1.92991638 0.00052088 3.85983328 -0.00000558 5.78974915 -0.00151062 C9.79912423 -0.0014218 13.80829447 0.00882288 17.81762695 0.02709961 C22.91054901 0.0498295 28.00317433 0.05031241 33.09613323 0.04358196 C37.06940771 0.04021326 41.0426167 0.04692544 45.01587868 0.0567112 C46.89221668 0.06051018 48.76856203 0.06173395 50.64490318 0.06012535 C65.75951327 0.05795667 80.6405236 0.48006174 95.05078125 5.55078125 C95.94095947 5.85612793 96.8311377 6.16147461 97.74829102 6.47607422 C104.61861045 8.93016363 110.43555019 11.88875505 116.23828125 16.36328125 C117.31078125 17.12640625 118.38328125 17.88953125 119.48828125 18.67578125 C127.69757295 26.69849814 133.32058801 36.33816244 133.73828125 47.92578125 C133.44293735 56.58241278 130.41314506 63.32875525 124.23828125 69.36328125 C121.66464306 70.94826574 119.01759408 72.18435142 116.23828125 73.36328125 C115.41328125 73.75515625 114.58828125 74.14703125 113.73828125 74.55078125 C98.80585305 79.40382042 69.29430472 79.39129298 55.23828125 72.36328125 C55.34527344 71.12191406 55.45226562 69.88054687 55.5625 68.6015625 C55.68446693 66.95970005 55.8055123 65.31776895 55.92578125 63.67578125 C55.99861328 62.85916016 56.07144531 62.04253906 56.14648438 61.20117188 C56.47810689 56.38289184 56.54709768 53.21261074 53.23828125 49.36328125 C51.34763895 47.9820262 51.34763895 47.9820262 49.23828125 47.11328125 C48.55765625 46.79875 47.87703125 46.48421875 47.17578125 46.16015625 C43.83657569 44.78677332 41.17334923 44.22609033 37.59008789 44.17041016 C36.64802994 44.15434723 35.70597198 44.1382843 34.73536682 44.12173462 C30.40228138 44.07696979 26.06934742 44.03616514 21.73608398 44.01318359 C19.46189081 43.99669808 17.18774784 43.96950739 14.91381836 43.93115234 C-5.09136787 43.24495202 -5.09136787 43.24495202 -22.38671875 52.23828125 C-26.41421467 57.63182842 -26.14729468 64.90514999 -26.76171875 71.36328125 C-27.06892857 73.26352262 -27.3995268 75.16024902 -27.76171875 77.05078125 C-27.92414063 77.91703125 -28.0865625 78.78328125 -28.25390625 79.67578125 C-28.42148437 80.56265625 -28.5890625 81.44953125 -28.76171875 82.36328125 C-31.57146688 94.24911924 -31.57146688 94.24911924 -28.94921875 105.61328125 C-22.51223517 112.16368606 -13.05752554 112.78968686 -4.37706947 112.88665676 C-2.80905394 112.89025989 -1.2410145 112.88777201 0.32698441 112.87970161 C2.83647183 112.86688553 5.34488849 112.8785318 7.8543396 112.89573669 C12.28979983 112.9222896 16.72499137 112.92803895 21.16052246 112.92663574 C28.23500117 112.92439911 35.30914426 112.93914135 42.38349533 112.9822216 C44.82320522 112.99187439 47.26236042 112.98343836 49.70205688 112.973526 C73.34428262 113.00509226 98.17290873 118.00707163 115.48828125 135.2421875 C122.3109698 142.59349345 125.74487921 150.57568163 125.49609375 160.60717773 C124.91396949 169.088221 123.73812142 177.50282843 122.61328125 185.92578125 C122.34099472 187.99702907 122.06902696 190.06831883 121.79736328 192.13964844 C121.23493343 196.4123627 120.66644963 200.68421704 120.09375 204.95556641 C119.39425837 210.17689913 118.71198391 215.40029435 118.0352478 220.62461853 C117.52704302 224.52721289 117.00734273 228.42821058 116.48419189 232.3288269 C116.23962221 234.16483006 115.99893173 236.00135472 115.76239014 237.83840942 C113.21523225 257.53547845 108.50965961 271.73718039 92.23828125 284.36328125 C81.57754271 291.6092277 69.81866098 296.46652204 57.48828125 300.05078125 C56.47169434 300.35471802 56.47169434 300.35471802 55.43457031 300.66479492 C39.77569774 304.99101871 23.56303655 304.68886372 7.46484375 304.69921875 C5.08702519 304.70566304 2.70920738 304.71239254 0.33139038 304.71939087 C-4.62902666 304.73129677 -9.58937439 304.73507844 -14.54980469 304.73388672 C-20.85900299 304.73368349 -27.16775113 304.76102102 -33.47684288 304.79543114 C-38.38095077 304.8178248 -43.28495224 304.82172051 -48.18910599 304.82066727 C-50.51317526 304.82300313 -52.83724838 304.83171069 -55.16126633 304.847332 C-80.26156752 305.00032115 -105.98471876 301.4633427 -125.13671875 283.48828125 C-134.33188393 273.78436718 -135.76171875 264.88644942 -135.76171875 251.36328125 C-134.11171875 239.81328125 -132.46171875 228.26328125 -130.76171875 216.36328125 C-105.68171875 216.36328125 -80.60171875 216.36328125 -54.76171875 216.36328125 C-55.75171875 224.28328125 -56.74171875 232.20328125 -57.76171875 240.36328125 C-58.82171663 251.25690846 -58.82171663 251.25690846 -55.88671875 255.36328125 C-47.2350449 260.90035252 -39.45375169 261.9629639 -29.30078125 261.89453125 C-27.40034561 261.90027161 -27.40034561 261.90027161 -25.46151733 261.90612793 C-22.79343869 261.90883833 -20.12684814 261.90358983 -17.45898438 261.88476562 C-14.07458567 261.8620236 -10.69145969 261.87509126 -7.30710793 261.89905548 C-4.03412326 261.91716452 -0.76128269 261.9044026 2.51171875 261.89453125 C4.30758926 261.90667664 4.30758926 261.90667664 6.13973999 261.91906738 C16.1383296 261.80925542 26.3985744 259.99687936 34.23828125 253.36328125 C38.05006304 248.58158043 38.32422348 242.98331363 39.11328125 237.11328125 C39.27473633 235.96537109 39.43619141 234.81746094 39.60253906 233.63476562 C40.16697196 229.54661323 40.70611914 225.45573181 41.23828125 221.36328125 C41.34587769 220.54077881 41.45347412 219.71827637 41.56433105 218.87084961 C42.27251405 213.44727842 42.96653969 208.02208673 43.64605713 202.59484863 C43.87231696 200.78888601 44.10027474 198.98313521 44.33001709 197.1776123 C47.55182146 181.10628348 47.55182146 181.10628348 44.05078125 166.36328125 C36.75389974 161.17438773 30.61344793 159.12140994 21.55322266 159.09204102 C20.81872894 159.08681427 20.08423523 159.08158752 19.32748413 159.07620239 C17.74251039 159.06601579 16.1575037 159.06019138 14.57249832 159.058321 C12.04674362 159.05462442 9.52137026 159.03780347 6.99569702 159.01756287 C-0.18232035 158.96250248 -7.36039509 158.93170224 -14.53857422 158.90698242 C-18.94291121 158.8909087 -23.34698173 158.86047945 -27.75117874 158.82221794 C-29.41175076 158.81072985 -31.07237088 158.80463904 -32.73298264 158.80453682 C-57.31005556 158.80247729 -80.94334447 154.06825637 -99.4921875 136.8046875 C-106.8827846 128.85438942 -109.0241213 121.74579987 -108.93554688 111.15820312 C-108.61884589 104.24415804 -107.55840664 97.44638102 -106.51171875 90.61328125 C-106.2793979 89.06687128 -106.04746921 87.52040235 -105.81591797 85.97387695 C-105.46626114 83.64482315 -105.11502144 81.31606304 -104.75888062 78.98799133 C-104.04836553 74.33653372 -103.39503033 69.68161491 -102.78515625 65.015625 C-100.37500119 47.18021513 -96.22219849 34.25464022 -81.76171875 22.36328125 C-57.95837887 4.26252935 -29.09084222 -0.15854947 0 0 Z " fill="#FDFDFD" transform="translate(870.76171875,106.63671875)"/>
<path d="M0 0 C1.13824219 0.00451172 2.27648438 0.00902344 3.44921875 0.01367188 C6.2162073 0.02529788 8.98306296 0.04255523 11.75 0.0625 C11.19918519 14.86591759 9.13870254 29.4656326 7.1875 44.13671875 C6.83160635 46.83701247 6.47724749 49.5375071 6.12280273 52.23799133 C5.38333477 57.86544128 4.63985934 63.49234932 3.89355469 69.11889648 C2.93682269 76.33204815 1.98674579 83.54606022 1.03874207 90.76036358 C0.21991309 96.99132247 -0.60182036 103.22189778 -1.42408371 109.45240426 C-1.68688613 111.44456531 -1.94931417 113.43677542 -2.21170044 115.42899132 C-2.70054854 119.13608637 -3.19169669 122.84286899 -3.68359375 126.54956055 C-3.82803925 127.64723755 -3.97248474 128.74491455 -4.12130737 129.87585449 C-4.25586334 130.88613205 -4.39041931 131.89640961 -4.52905273 132.93730164 C-4.64482162 133.81158153 -4.76059052 134.68586142 -4.87986755 135.58663464 C-5.25548127 138.09916496 -5.73101376 140.57597561 -6.25 143.0625 C-10.31288884 142.58659357 -14.37523557 142.10620488 -18.4375 141.625 C-20.16323242 141.42293945 -20.16323242 141.42293945 -21.92382812 141.21679688 C-23.03564453 141.08466797 -24.14746094 140.95253906 -25.29296875 140.81640625 C-26.31414795 140.69595947 -27.33532715 140.5755127 -28.38745117 140.45141602 C-31.03885778 140.09118653 -33.63363196 139.61939762 -36.25 139.0625 C-36.44956299 139.89990723 -36.64912598 140.73731445 -36.85473633 141.60009766 C-39.89968713 154.08707763 -43.3931973 166.44128444 -46.90551758 178.80371094 C-47.94887715 182.47756092 -48.98736913 186.15276363 -50.02539062 189.828125 C-50.68721484 192.16414331 -51.34931386 194.50008378 -52.01171875 196.8359375 C-52.32211594 197.93473236 -52.63251312 199.03352722 -52.95231628 200.1656189 C-53.23964127 201.17492462 -53.52696625 202.18423035 -53.82299805 203.22412109 C-54.075186 204.1129599 -54.32737396 205.00179871 -54.58720398 205.91757202 C-55.25 208.0625 -55.25 208.0625 -56.25 210.0625 C-61.77833504 208.70524409 -67.29724119 207.33302917 -72.78515625 205.8203125 C-73.58397217 205.60270264 -74.38278809 205.38509277 -75.20581055 205.16088867 C-76.76254833 204.73560971 -78.31757316 204.30398304 -79.87036133 203.86450195 C-91.77187105 200.63370953 -103.70472282 199.69422104 -116 199.75 C-117.31403809 199.75563965 -118.62807617 199.7612793 -119.98193359 199.76708984 C-147.49330616 200.10941443 -173.56437987 208.38691008 -196.84765625 222.94921875 C-206.63174304 229.0625 -206.63174304 229.0625 -209.25 229.0625 C-212.37450655 225.49163537 -214.58713949 222.90864518 -214.625 218.0625 C-214.53143451 216.72659271 -214.40647145 215.39250732 -214.25 214.0625 C-214.12625 212.78375 -214.0025 211.505 -213.875 210.1875 C-213.25 207.0625 -213.25 207.0625 -211.25 205.0625 C-211.58 204.7325 -211.91 204.4025 -212.25 204.0625 C-212.32617867 195.74378973 -210.75709955 187.422811 -209.375 179.25 C-209.21362549 178.27208496 -209.05225098 177.29416992 -208.88598633 176.28662109 C-207.87872683 170.54411787 -206.37465269 165.48301282 -204.25 160.0625 C-203.77723411 157.62296587 -203.77723411 157.62296587 -203.5625 155.3125 C-201.0906733 140.5836814 -193.31930878 126.10066075 -186.25 113.0625 C-185.88181152 112.38123047 -185.51362305 111.69996094 -185.13427734 110.99804688 C-177.17657115 96.46336218 -167.45180966 83.25810365 -156.1640625 71.12890625 C-154.43252748 69.25955517 -152.80491054 67.34270534 -151.1875 65.375 C-148.4963379 62.21066654 -145.51450397 59.53693046 -142.34765625 56.85546875 C-140.99616456 55.70028312 -139.66806518 54.51686049 -138.37109375 53.30078125 C-116.19914847 32.60407304 -87.90469339 17.52360203 -58.87109375 9.11328125 C-56.55957643 8.44251732 -54.25818618 7.73504776 -51.97265625 6.98046875 C-45.93592539 4.98812371 -39.9357067 3.4968482 -33.6875 2.375 C-33.02758057 2.25560059 -32.36766113 2.13620117 -31.68774414 2.01318359 C-21.16609236 0.24184448 -10.64983609 -0.08172838 0 0 Z " fill="#8FB847" transform="translate(1549.25,213.9375)"/>
<path d="M0 0 C0.11069824 0.77077881 0.22139648 1.54155762 0.33544922 2.33569336 C0.84510644 5.87014764 1.36001384 9.4038184 1.875 12.9375 C2.04902344 14.14986328 2.22304687 15.36222656 2.40234375 16.61132812 C2.57636719 17.80048828 2.75039062 18.98964844 2.9296875 20.21484375 C3.08679199 21.29886475 3.24389648 22.38288574 3.40576172 23.49975586 C3.82480019 25.96801988 4.32888838 28.42257491 4.89282227 30.86181641 C6.37246489 37.3826477 7.35375853 43.99441236 8.40324593 50.59493828 C8.79169407 53.03719846 9.18365922 55.47887186 9.57652283 57.92042542 C10.54996021 63.97422195 11.51804706 70.02887079 12.48516846 76.0836792 C13.30609285 81.22267305 14.12957899 86.36124203 14.95681572 91.49922371 C15.3432802 93.9063373 15.72588666 96.31404454 16.1084137 98.7217865 C16.34429038 100.18882444 16.58035868 101.65583158 16.81665039 103.12280273 C17.12403893 105.04732521 17.12403893 105.04732521 17.43763733 107.01072693 C17.84218633 109.91282169 17.84218633 109.91282169 19 112 C19.06950541 113.54023996 19.08452357 115.08334988 19.0625 116.625 C19.05347656 117.44226563 19.04445313 118.25953125 19.03515625 119.1015625 C19.01775391 120.04128906 19.01775391 120.04128906 19 121 C17.77410156 121.09796875 16.54820312 121.1959375 15.28515625 121.296875 C-3.76340058 122.91188985 -22.73647295 125.18887776 -41 131 C-42.22203125 131.32226562 -43.4440625 131.64453125 -44.703125 131.9765625 C-75.64459005 140.14647853 -105.64034676 156.26345974 -130 177 C-131.07248925 177.88853698 -132.14543971 178.77651746 -133.21875 179.6640625 C-145.62256689 190.01013535 -157.17907286 201.13842994 -167 214 C-167.41282227 214.53109375 -167.82564453 215.0621875 -168.25097656 215.609375 C-185.56892392 237.96503761 -197.62121066 262.84335415 -208 289 C-227.25973793 260.11039311 -223.72008848 207.77213543 -217.38183594 175.890625 C-208.27486317 132.41046389 -187.50058571 95.0376231 -157 63 C-156.31550781 62.27425781 -155.63101562 61.54851562 -154.92578125 60.80078125 C-149.67435478 55.37892309 -143.94484532 50.64134945 -138 46 C-137.46552246 45.57847656 -136.93104492 45.15695313 -136.38037109 44.72265625 C-97.5939264 14.3513943 -49.15278258 -1.46805877 0 0 Z " fill="#FDFDFD" transform="translate(1529,64)"/>
<path d="M0 0 C-2.4473472 22.89557706 -5.16478533 45.76416366 -8.49072266 68.54931641 C-9.81202445 77.6076178 -11.04759268 86.6753119 -12.25 95.75 C-12.33894531 96.42090668 -12.42789062 97.09181335 -12.51953125 97.78305054 C-13.01484986 101.52179352 -13.50828875 105.26078097 -14 109 C-15.07556152 108.98428955 -16.15112305 108.9685791 -17.25927734 108.95239258 C-76.67519586 108.16347547 -129.5726473 119.58667552 -179.09130859 153.68994141 C-181.70978226 155.48716956 -184.35303047 157.24508004 -187 159 C-185.49062325 142.54779346 -176.77999952 126.34891127 -169 112 C-168.63181152 111.31873047 -168.26362305 110.63746094 -167.88427734 109.93554688 C-159.92657115 95.40086218 -150.20180966 82.19560365 -138.9140625 70.06640625 C-137.18252748 68.19705517 -135.55491054 66.28020534 -133.9375 64.3125 C-131.2463379 61.14816654 -128.26450397 58.47443046 -125.09765625 55.79296875 C-123.74616456 54.63778312 -122.41806518 53.45436049 -121.12109375 52.23828125 C-98.94914847 31.54157304 -70.65469339 16.46110203 -41.62109375 8.05078125 C-39.30957643 7.38001732 -37.00818618 6.67254776 -34.72265625 5.91796875 C-28.60542232 3.89905471 -22.51749081 2.39740123 -16.1875 1.25 C-15.49406494 1.12222168 -14.80062988 0.99444336 -14.08618164 0.86279297 C-9.33580926 0.05564402 -4.81751628 -0.1078951 0 0 Z " fill="#FDFDFC" transform="translate(1532,215)"/>
<path d="M0 0 C0.68674805 0.22768066 1.37349609 0.45536133 2.08105469 0.68994141 C30.4105702 10.2044085 54.38549836 26.6480979 76 47 C76.71027344 47.65613281 77.42054688 48.31226563 78.15234375 48.98828125 C114.48891747 83.69008069 132.80692596 137.76024732 134.12426758 187.0390625 C134.21964326 191.67179977 134.24659512 196.30386709 134.25 200.9375 C134.25067474 201.76914673 134.25134949 202.60079346 134.25204468 203.4576416 C134.18858479 253.11292907 122.39404389 301.25048883 101 346 C100.62294922 346.80179687 100.24589844 347.60359375 99.85742188 348.4296875 C89.91739336 369.48707447 77.44364476 389.02430756 64 408 C63.44924805 408.77746582 62.89849609 409.55493164 62.33105469 410.35595703 C55.4268261 420.06715725 48.34502147 429.61792821 41 439 C40.08459343 440.17444644 39.16923018 441.34892665 38.25390625 442.5234375 C29.56253019 453.65256492 20.60546576 464.54561238 11.45019531 475.29541016 C9.98196961 477.02119329 8.51826467 478.75074272 7.0546875 480.48046875 C1.59522377 486.91266743 -3.96069261 493.22826929 -9.72827148 499.38671875 C-12.34148005 502.18003741 -14.89638438 505.01158354 -17.40625 507.8984375 C-20.9168875 511.92908069 -24.52797134 515.85449751 -28.1875 519.75 C-29.15816406 520.78543945 -29.15816406 520.78543945 -30.1484375 521.84179688 C-35.06332548 527.06084786 -40.09120375 532.14657838 -45.21875 537.15625 C-47.32366493 539.30846639 -49.29423803 541.46827364 -51.25390625 543.74609375 C-55.43267478 548.56950196 -59.91585061 553.06239938 -64.4375 557.5625 C-65.24509766 558.37396484 -66.05269531 559.18542969 -66.88476562 560.02148438 C-71.15760913 564.28744175 -75.4892552 568.40995925 -80.09790039 572.31225586 C-82.14636387 574.0445262 -82.14636387 574.0445262 -84.14109802 576.57400513 C-87.69147617 579.5867699 -90.20397494 579.65606596 -94.64453125 579.50366211 C-95.41612579 579.49780909 -96.18772034 579.49195606 -96.98269653 579.48592567 C-99.59348465 579.46061454 -102.2022926 579.39972063 -104.8125 579.33984375 C-106.70708154 579.31525859 -108.60169838 579.29328107 -110.49633789 579.27366638 C-114.69540338 579.22714682 -118.89400525 579.16698059 -123.09277344 579.09881592 C-130.38719714 578.98645586 -137.68141823 578.94020558 -144.9765625 578.90283203 C-147.60742216 578.88902104 -150.23828153 578.87515517 -152.86914062 578.86123657 C-153.53056438 578.85776588 -154.19198814 578.85429519 -154.87345505 578.85071933 C-162.35583388 578.81049871 -169.83806387 578.75260913 -177.3203125 578.69335938 C-178.0027578 578.68795678 -178.68520309 578.68255419 -179.38832855 578.67698789 C-180.07202766 578.67157255 -180.75572678 578.66615721 -181.46014404 578.66057777 C-182.84615068 578.64960952 -184.23215736 578.63864545 -185.61816406 578.62768555 C-186.30601864 578.62223359 -186.99387321 578.61678162 -187.70257187 578.61116445 C-193.36532953 578.56663781 -199.02811443 578.52689796 -204.6909132 578.48800808 C-210.24522363 578.44962382 -215.79950044 578.40770546 -221.35376453 578.36312145 C-224.63149361 578.3368813 -227.90921749 578.31248198 -231.1869812 578.29092598 C-234.80829681 578.26671588 -238.42952173 578.23671429 -242.05078125 578.20532227 C-243.10316986 578.1995668 -244.15555847 578.19381134 -245.23983765 578.18788147 C-251.87168887 578.12272465 -258.40522346 577.70236219 -265 577 C-259.31777313 570.15218814 -253.25080734 563.76817083 -246.48207092 557.98228455 C-241.35044801 553.49996586 -236.55873106 548.69867225 -231.74780273 543.87719727 C-230.74342074 542.87417334 -229.7388268 541.87136161 -228.73403931 540.8687439 C-226.02725449 538.16648513 -223.32360295 535.46111233 -220.62067294 532.75499845 C-217.77873619 529.91051299 -214.93434106 527.06848746 -212.09034729 524.22605896 C-207.31665214 519.45417821 -202.54505799 514.68020422 -197.7746582 509.9050293 C-192.27564377 504.40057366 -186.77303641 498.89972947 -181.26854938 493.40074688 C-176.52506676 488.6618162 -171.7835531 483.92092211 -167.04365116 479.17840999 C-164.2203871 476.35359459 -161.39647009 473.52944083 -158.57076836 470.70706367 C-155.9131561 468.05236047 -153.25804085 465.39518394 -150.6047554 462.73615646 C-149.17768721 461.30715605 -147.74818561 459.88058702 -146.31858826 458.45411682 C-141.86835478 453.98937127 -137.54520535 449.47513485 -133.44621372 444.68444729 C-131.24298076 442.11827762 -128.93026076 439.66236704 -126.625 437.1875 C-122.3312462 432.53961458 -118.2646816 427.75583652 -114.296875 422.82421875 C-112.27416111 420.33710627 -110.2072478 417.89596656 -108.11645508 415.46606445 C-98.11090392 403.81586312 -88.92826742 391.48878495 -80 379 C-81.06089844 379.2165625 -82.12179688 379.433125 -83.21484375 379.65625 C-127.43587312 387.86101015 -175.44111482 379.88416119 -212.875 354.5 C-214.93002424 353.01835289 -216.97259291 351.51921798 -219 350 C-219.87398438 349.3503125 -220.74796875 348.700625 -221.6484375 348.03125 C-255.5639441 321.55067428 -276.38072197 284.57470383 -286 243 C-286.16580566 242.30036133 -286.33161133 241.60072266 -286.50244141 240.87988281 C-299.28928833 185.58466723 -288.07138478 123.91033198 -258.97265625 75.63671875 C-249.35642069 60.78956568 -237.75794145 46.17539272 -224 35 C-222.52660156 33.77023438 -222.52660156 33.77023438 -221.0234375 32.515625 C-160.47189223 -17.21899722 -72.56637885 -24.53556656 0 0 Z M-221.50585938 38.64550781 C-223.02335907 40.02117584 -224.56352183 41.36726412 -226.109375 42.7109375 C-258.57380182 71.24152402 -276.81873485 113.11693441 -284 155 C-284.18095215 155.98621338 -284.3619043 156.97242676 -284.54833984 157.98852539 C-286.1713696 167.76349261 -286.30583607 177.38560286 -286.26074219 187.27416992 C-286.25011011 190.03391982 -286.26064845 192.79300527 -286.2734375 195.55273438 C-286.28903082 212.53546401 -285.46527153 229.49609033 -281.1875 246 C-280.78785034 247.59074341 -280.78785034 247.59074341 -280.38012695 249.21362305 C-278.44278463 256.73217728 -276.16046331 263.89954893 -273 271 C-272.35712268 272.52824645 -271.71528516 274.05693053 -271.07421875 275.5859375 C-253.80114564 316.08383949 -222.36172737 350.24507543 -181.171875 367.1484375 C-160.1305818 375.0915678 -137.93955726 378.43137618 -115.5625 378.3125 C-114.48556381 378.30976578 -114.48556381 378.30976578 -113.38687134 378.30697632 C-74.78191681 378.14228903 -46.3550927 358.32814854 -19.6875 331.9375 C-14.39600387 326.59859675 -9.64734904 320.90751104 -5 315 C-3.74123047 313.4840625 -3.74123047 313.4840625 -2.45703125 311.9375 C35.50435986 265.86428609 49.33180229 205.70755912 44.68652344 147.04101562 C39.61413693 98.13335032 17.70621064 54.29295094 -16 19 C-16.87269531 18.07445313 -17.74539063 17.14890625 -18.64453125 16.1953125 C-25.54892947 9.05840892 -33.00964511 2.8795573 -41 -3 C-41.98097656 -3.73863281 -42.96195313 -4.47726563 -43.97265625 -5.23828125 C-91.28272145 -32.76968694 -185.83740043 6.17926307 -221.50585938 38.64550781 Z M-38 -5 C-34.90305815 -1.81520164 -31.7657412 1.04041601 -28.25 3.75 C-14.25437699 15.14266347 -2.42619341 28.31602686 8 43 C8.43860352 43.60457031 8.87720703 44.20914063 9.32910156 44.83203125 C20.29958081 60.0206303 29.47994592 77.07658555 35 95 C35.47537554 96.4227091 35.95346709 97.84451224 36.43359375 99.265625 C41.34112773 113.96515798 45.14496297 128.59875968 47 144 C47.0928125 144.72840088 47.185625 145.45680176 47.28125 146.20727539 C50.21161549 171.64359107 47.85385217 196.99446107 43 222 C42.81840332 222.96389648 42.63680664 223.92779297 42.44970703 224.92089844 C32.83510011 274.14842475 0.72581503 322.56832619 -39 353 C-39.54849609 353.42490723 -40.09699219 353.84981445 -40.66210938 354.28759766 C-52.08939531 363.09903706 -52.08939531 363.09903706 -58.24609375 366.25390625 C-69.96329263 372.29168804 -76.14919145 379.7896947 -83.41845703 390.68164062 C-85.73389326 394.07580278 -88.24851668 397.29163889 -90.8125 400.5 C-91.26028809 401.06485107 -91.70807617 401.62970215 -92.16943359 402.21166992 C-99.45287087 411.37596521 -106.94238981 420.36250288 -114.53222656 429.2734375 C-116.05447076 431.06407472 -117.57033944 432.85998563 -119.0859375 434.65625 C-123.90151791 440.3437469 -128.71798633 445.90893248 -134.08838558 451.08742619 C-135.86140847 452.86133892 -137.48739857 454.68575693 -139.10926819 456.59727478 C-143.49670466 461.64505604 -148.206537 466.34649747 -152.93920898 471.06860352 C-153.92252868 472.05328138 -154.90563621 473.03817116 -155.8885498 474.02325439 C-158.53709188 476.67632145 -161.18874649 479.32625632 -163.84114337 481.97546887 C-166.62957468 484.76135091 -169.41554541 487.54969196 -172.20191956 490.33763123 C-176.87964351 495.01716942 -181.55946026 499.69460691 -186.24047852 504.37084961 C-191.63587106 509.76080097 -197.02765196 515.15434506 -202.41757149 520.54976898 C-207.06308446 525.19983437 -211.71056138 529.84793016 -216.35965592 534.49441475 C-219.12857987 537.26178761 -221.8968427 540.02981273 -224.66332817 542.79962349 C-227.26550146 545.40470652 -229.87014915 548.00729101 -232.47664642 550.60804749 C-233.87701973 552.00648926 -235.27496266 553.40736348 -236.67280579 554.80833435 C-241.08567525 559.20657661 -245.57466479 563.40809899 -250.30709934 567.45880032 C-252.48318415 569.43988598 -254.27163112 571.6234928 -256 574 C-239.09851521 574.1319422 -222.19701956 574.26238499 -205.29551029 574.39115143 C-197.4438276 574.45100368 -189.59214889 574.51130541 -181.74047852 574.57275391 C-174.87877162 574.62645355 -168.01705822 574.67921975 -161.15533632 574.73096704 C-157.53866737 574.75827186 -153.92200268 574.78597429 -150.30534554 574.81480408 C-149.61996167 574.82022075 -148.9345778 574.82563743 -148.22842473 574.83121824 C-146.85851908 574.8420725 -145.48861458 574.85307251 -144.11871129 574.86422014 C-140.7727778 574.89062735 -137.42707727 574.91030356 -134.08104038 574.92163849 C-127.79803295 574.94367636 -121.52473119 574.99911562 -115.24454576 575.1809926 C-112.23444541 575.26402484 -109.2241196 575.32108403 -106.21337211 575.37494564 C-104.78453685 575.40703606 -103.35590764 575.45089093 -101.9278394 575.50764561 C-93.62934609 575.83301208 -88.04775605 575.55924098 -81.556077 570.08113956 C-79.58886504 568.15773724 -77.77151128 566.26671974 -76.125 564.05859375 C-73.01052754 560.1300398 -69.70527502 556.59319165 -66.125 553.09765625 C-65.60914337 552.59350693 -65.09328674 552.0893576 -64.5617981 551.56993103 C-63.51599381 550.54978522 -62.4695358 549.53030915 -61.42242432 548.51150513 C-55.24557171 542.47803112 -49.20374106 536.35859479 -43.58251953 529.80078125 C-41.02710294 526.89292059 -38.26727934 524.20428233 -35.5 521.5 C-31.50195228 517.54650663 -27.63401688 513.56846006 -23.99609375 509.27734375 C-21.12404588 506.00062377 -18.11516493 502.85623496 -15.125 499.6875 C-10.23586941 494.49131637 -5.59578628 489.1865769 -1.140625 483.609375 C1.15120465 480.81568484 3.55231812 478.15791222 6 475.5 C10.89379479 470.17019892 15.46020517 464.63164422 20 459 C21.00934094 457.76994984 22.01982598 456.5408379 23.03125 455.3125 C30.07055523 446.74521775 36.85510413 438.02843474 43.43896484 429.10693359 C45.04880646 426.93412578 46.67363576 424.77315427 48.30078125 422.61328125 C72.85685012 389.86951841 94.46766656 355.11592732 108.96582031 316.72949219 C109.881226 314.31347811 110.82017458 311.90906973 111.7734375 309.5078125 C117.92520515 293.86631408 121.58646275 277.90231028 124.54467773 261.38793945 C124.99091079 259.04766838 125.50722545 256.7343806 126.046875 254.4140625 C127.02213455 250.1086714 127.60908744 245.825711 128.0625 241.4375 C128.1860083 240.2616333 128.1860083 240.2616333 128.31201172 239.06201172 C131.8082385 204.78514285 131.8000382 169.26392893 122 136 C121.6241657 134.6320956 121.25053811 133.26358334 120.87890625 131.89453125 C110.44281777 94.05119328 87.48103335 58.73253709 56 35 C54.94941406 34.2059375 53.89882813 33.411875 52.81640625 32.59375 C44.81792243 26.66340279 36.47759966 21.66943524 27.72265625 16.94140625 C25.5170443 15.73607183 23.35620891 14.45774379 21.1875 13.1875 C16.35364522 10.50305011 11.21425892 8.79264507 6 7 C4.70654847 6.50463558 3.4147108 6.0050236 2.125 5.5 C-6.94149571 2.11371847 -16.25141986 -0.38390254 -25.625 -2.75 C-26.94129395 -3.08427002 -26.94129395 -3.08427002 -28.28417969 -3.42529297 C-29.11079102 -3.63041504 -29.93740234 -3.83553711 -30.7890625 -4.046875 C-31.89822021 -4.32289551 -31.89822021 -4.32289551 -33.02978516 -4.60449219 C-35.15530002 -5.0984085 -35.15530002 -5.0984085 -38 -5 Z " fill="#F6F8F3" transform="translate(291,13)"/>
<path d="M0 0 C8.93681822 -0.0931111 17.87346677 -0.16397173 26.81066608 -0.20724869 C30.96159948 -0.22803052 35.11219846 -0.25617348 39.26293945 -0.30175781 C43.27652919 -0.3455548 47.28979939 -0.36920763 51.30360985 -0.37950897 C52.82687591 -0.38684017 54.35012658 -0.40115459 55.87325478 -0.42292023 C66.23866552 -0.56501041 75.25147698 0.12854572 84.0625 6.0625 C86.15036163 8.15036163 87.84140717 9.8758567 88.265625 12.8828125 C88.19494924 23.02478369 86.92978055 33.17048483 85.05078125 43.12890625 C83.56225046 51.1238689 82.60556505 59.19570664 81.58789062 67.26171875 C78.7354848 88.83090701 78.7354848 88.83090701 72 94 C64.28604343 99.62476 57.54849028 101.13113102 48.07666016 101.11352539 C47.4125412 101.11367142 46.74842224 101.11381744 46.06417847 101.1139679 C43.88910551 101.11327634 41.71412032 101.10551973 39.5390625 101.09765625 C38.02306159 101.09578938 36.50706008 101.09436675 34.99105835 101.09336853 C31.01595369 101.08956456 27.04088602 101.07975253 23.0657959 101.06866455 C19.00350444 101.0584047 14.94120696 101.05386114 10.87890625 101.04882812 C2.91925393 101.03812822 -5.04036842 101.02107746 -13 101 C-12.49309471 95.75326228 -11.98327746 90.51619951 -11.23828125 85.296875 C-11.09181152 84.25684326 -10.9453418 83.21681152 -10.79443359 82.14526367 C-10.63539551 81.02482666 -10.47635742 79.90438965 -10.3125 78.75 C-8.42159575 65.2393002 -6.63639051 51.71565104 -4.875 38.1875 C-4.74703033 37.20608032 -4.61906067 36.22466064 -4.48721313 35.21350098 C-4.11324441 32.34423804 -3.74003227 29.47487794 -3.3671875 26.60546875 C-3.2048336 25.3579911 -3.2048336 25.3579911 -3.03919983 24.08531189 C-1.99912795 16.06026012 -1.00001825 8.03012068 0 0 Z " fill="#6DA24D" transform="translate(575,150)"/>
<path d="M0 0 C8.67604847 -0.09313132 17.35192195 -0.16398175 26.02836323 -0.20724869 C30.05823373 -0.22802623 34.08775948 -0.25616097 38.11743164 -0.30175781 C42.01431297 -0.34557062 45.91086502 -0.36921083 49.80797386 -0.37950897 C51.2865841 -0.38683741 52.76517856 -0.40114622 54.24364662 -0.42292023 C64.47677716 -0.56748317 73.36935156 0.20793064 82.0625 6.0625 C84.22012356 8.22012356 85.85686877 9.94325442 86.27661133 13.04223633 C86.24999923 22.35371608 84.93769727 31.47842424 83.6875 40.6875 C83.33899408 43.30071222 82.99233849 45.91416534 82.64587402 48.52764893 C82.41668212 50.25526293 82.18662684 51.98276263 81.95568848 53.71014404 C81.29054244 58.70719557 80.67175268 63.70561568 80.10546875 68.71484375 C79.97889893 69.81803955 79.8523291 70.92123535 79.72192383 72.05786133 C79.49775184 74.03975623 79.28214001 76.02264654 79.0769043 78.0065918 C78.35083814 84.29001385 77.00596861 87.99403139 72.4375 92.5625 C64.89706361 98.52339361 55.62834649 100.13147193 46.26025391 100.11352539 C45.29333618 100.11374443 45.29333618 100.11374443 44.30688477 100.1139679 C42.19674195 100.11327661 40.08668971 100.10552133 37.9765625 100.09765625 C36.5054021 100.09578928 35.03424108 100.09436669 33.56307983 100.09336853 C29.70634215 100.08956533 25.84964262 100.07975398 21.99291992 100.06866455 C18.05127478 100.05840302 14.10962342 100.05386078 10.16796875 100.04882812 C2.44529518 100.03812959 -5.27734705 100.02107977 -13 100 C-13.01497735 98.25808324 -13.02560191 96.51612874 -13.03442383 94.77416992 C-13.04081375 93.80412521 -13.04720367 92.83408051 -13.05378723 91.8346405 C-12.97924142 87.90600235 -12.39024697 84.16965675 -11.6875 80.3125 C-10.5060121 73.34815832 -9.51915197 66.38943214 -8.6875 59.375 C-7.27858663 47.65887751 -5.58642999 35.98760946 -3.875 24.3125 C-3.74080658 23.39402283 -3.60661316 22.47554565 -3.46835327 21.52923584 C-3.08226274 18.89031608 -2.69398343 16.25172988 -2.3046875 13.61328125 C-2.18812302 12.81840805 -2.07155853 12.02353485 -1.95146179 11.20457458 C-1.39327943 7.44603475 -0.76229549 3.72196909 0 0 Z " fill="#3E8556" transform="translate(1099,264)"/>
<path d="M0 0 C8.07599939 -0.04649013 16.15194216 -0.08195349 24.2280426 -0.10362434 C27.9787369 -0.11402908 31.72933914 -0.12812725 35.47998047 -0.15087891 C39.1045013 -0.17272609 42.72893399 -0.18459348 46.35351562 -0.18975449 C47.73129665 -0.19342905 49.10907325 -0.20060417 50.48681641 -0.21146011 C68.74287211 -0.34949259 68.74287211 -0.34949259 75.375 4.875 C76.34566406 5.61363281 76.34566406 5.61363281 77.3359375 6.3671875 C80.03174068 9.01236527 80.98008489 11.0232351 81.05786133 14.83789062 C80.28945096 23.68144162 79.27701557 32.46738541 78.00805664 41.25292969 C77.68413088 43.52361723 77.38218071 45.79663151 77.08007812 48.0703125 C76.87113125 49.53664984 76.66089222 51.00280377 76.44921875 52.46875 C76.17597778 54.42458008 76.17597778 54.42458008 75.8972168 56.41992188 C74.38130586 62.46871586 71.18323737 66.6196278 66 70 C58.9255946 73.2803761 52.66598004 75.12974323 44.83276367 75.11352539 C43.61187546 75.11344986 42.39098724 75.11337433 41.13310242 75.11329651 C39.82460831 75.10813522 38.5161142 75.10297394 37.16796875 75.09765625 C35.80748039 75.09578961 34.44699135 75.09436687 33.08650208 75.09336853 C29.51744713 75.08956275 25.94843331 75.07974914 22.37939453 75.06866455 C18.73275305 75.05840863 15.08610489 75.05386197 11.43945312 75.04882812 C4.29295199 75.03812503 -2.85352131 75.02107204 -10 75 C-8.90462657 64.71414124 -7.70002263 54.4752042 -6.125 44.25 C-4.59314528 34.21654547 -3.19414629 24.17151833 -1.8671875 14.109375 C-1.68426911 12.7289899 -1.50124545 11.34861874 -1.31811523 9.96826172 C-0.87771557 6.64564246 -0.43835819 3.3228891 0 0 Z " fill="#3C8456" transform="translate(1114,148)"/>
<path d="M0 0 C5.28 0 10.56 0 16 0 C16.99 24.255 16.99 24.255 18 49 C19.629375 44.99875 21.25875 40.9975 22.9375 36.875 C27.94611424 24.5783256 32.96831453 12.28725167 38 0 C43.28 0 48.56 0 54 0 C53.39891871 14.5104779 51.47877063 28.83128409 49.56152344 43.21411133 C49.08742876 46.77075023 48.62221099 50.32848657 48.15953064 53.88662624 C47.80069007 56.63985578 47.43770954 59.39252665 47.07339478 62.1450367 C46.81590486 64.09530484 46.56161737 66.04599493 46.30737305 67.99668884 C46.07207886 69.75100975 46.07207886 69.75100975 45.83203125 71.54077148 C45.69514893 72.57395004 45.5582666 73.6071286 45.41723633 74.6716156 C45 77 45 77 44 78 C39.66684941 78.1438629 35.33487639 78.04208618 31 78 C31.61776528 68.33542833 32.73886443 58.7760137 34.0625 49.1875 C34.25099368 47.80147885 34.43914645 46.41541129 34.62695312 45.02929688 C35.08130558 41.68572878 35.53904248 38.34266275 36 35 C35.34197388 36.58868896 35.34197388 36.58868896 34.6706543 38.20947266 C33.03466473 42.15765061 31.39580736 46.10463287 29.75610352 50.05126953 C29.04829517 51.75602521 28.34125361 53.46109949 27.63500977 55.16650391 C26.61678726 57.62487621 25.59576668 60.08207048 24.57421875 62.5390625 C24.26159592 63.29555084 23.94897308 64.05203918 23.62687683 64.83145142 C21.90096165 68.97416915 20.06162092 73.00923179 18 77 C14.37 77 10.74 77 7 77 C6.26907183 74.07628731 5.84540462 71.89230822 5.70288086 68.96582031 C5.64215393 67.77883545 5.64215393 67.77883545 5.5802002 66.56787109 C5.52309875 65.33544678 5.52309875 65.33544678 5.46484375 64.078125 C5.42653442 63.3154834 5.3882251 62.5528418 5.34875488 61.76708984 C5.20732169 58.92827319 5.07282121 56.08911456 4.9375 53.25 C4.628125 46.8975 4.31875 40.545 4 34 C0.7 48.52 -2.6 63.04 -6 78 C-10.62 78 -15.24 78 -20 78 C-18.37758643 69.3797188 -16.28080837 60.90003701 -14.12109375 52.40234375 C-13.7450856 50.91690508 -13.36919758 49.431436 -12.99342346 47.94593811 C-12.21093229 44.85520935 -11.4265468 41.76496904 -10.64086914 38.67504883 C-9.63243196 34.70813289 -8.62952965 30.73984057 -7.62808132 26.77115536 C-6.85589215 23.71403642 -6.08047531 20.65774329 -5.30409431 17.60168648 C-4.93260477 16.13747143 -4.5622135 14.6729773 -4.19293022 13.20820427 C-3.67940171 11.17301236 -3.16146559 9.13899336 -2.64233398 7.10522461 C-2.34858383 5.94735947 -2.05483368 4.78949432 -1.75218201 3.59654236 C-1 1 -1 1 0 0 Z " fill="#0A7051" transform="translate(559,487)"/>
<path d="M0 0 C4.62 0 9.24 0 14 0 C15.12225773 5.58650211 16.24323214 11.17325963 17.36303711 16.76025391 C17.74387232 18.6594126 18.12505328 20.558502 18.5065918 22.45751953 C19.05609388 25.19285061 19.60433717 27.92843147 20.15234375 30.6640625 C20.3221727 31.50804596 20.49200165 32.35202942 20.66697693 33.22158813 C21.51701821 37.47139349 22.31879123 41.71898134 23 46 C23.20681396 44.78417236 23.41362793 43.56834473 23.62670898 42.31567383 C24.3956768 37.79618151 25.1655922 33.27685104 25.93579102 28.75756836 C26.2687312 26.80318519 26.60141588 24.84875848 26.93383789 22.89428711 C27.41224759 20.08175295 27.89158196 17.2693777 28.37109375 14.45703125 C28.51904892 13.58601273 28.66700409 12.7149942 28.81944275 11.81758118 C28.95951248 10.997108 29.09958221 10.17663483 29.24389648 9.33129883 C29.36603012 8.61404129 29.48816376 7.89678375 29.61399841 7.15779114 C30.04194581 4.76551831 30.52338904 2.38305482 31 0 C35.62 0 40.24 0 45 0 C43.60888534 9.37100563 41.99183761 18.67574299 40.21484375 27.98046875 C39.95094221 29.36955155 39.6871556 30.7586562 39.42347717 32.14778137 C38.87621006 35.02793164 38.32725281 37.90775319 37.77709961 40.78735352 C37.07184397 44.47979789 36.37144797 48.17314586 35.67232418 51.86675549 C35.13139873 54.72123579 34.58770571 57.57518356 34.04318428 60.42897987 C33.78350939 61.79199139 33.52475835 63.15517924 33.26695061 64.51854515 C32.9086081 66.41158828 32.5460828 68.3038382 32.18334961 70.19604492 C31.97842392 71.27158127 31.77349823 72.34711761 31.56236267 73.45524597 C31 76 31 76 30 78 C25.71 78 21.42 78 17 78 C15.48769869 73.46309607 14.28050395 69.09651794 13.30859375 64.44140625 C13.158423 63.73402817 13.00825226 63.02665009 12.85353088 62.2978363 C12.53845798 60.80983194 12.22508432 59.32146687 11.91333008 57.83276367 C11.43944963 55.57180201 10.95940757 53.31221392 10.47851562 51.05273438 C10.17150766 49.59903586 9.86485526 48.1452622 9.55859375 46.69140625 C9.34607216 45.69108116 9.34607216 45.69108116 9.1292572 44.67054749 C8.25096649 40.45842611 7.56829316 36.2620264 7 32 C6.852994 32.84231422 6.852994 32.84231422 6.70301819 33.7016449 C5.68577443 39.5256554 4.66300457 45.34867574 3.63696289 51.17114258 C3.25434669 53.34667259 2.87315894 55.52245431 2.4934082 57.69848633 C1.94854609 60.81918939 1.39861851 63.93896268 0.84765625 67.05859375 C0.6778273 68.03775253 0.50799835 69.01691132 0.33302307 70.02574158 C0.17293259 70.92659988 0.0128421 71.82745819 -0.15209961 72.75561523 C-0.29199814 73.55281479 -0.43189667 74.35001434 -0.57603455 75.17137146 C-1 77 -1 77 -2 78 C-6.33315059 78.1438629 -10.66512361 78.04208618 -15 78 C-13.6264711 68.62797198 -11.99153921 59.32269453 -10.21484375 50.01953125 C-9.95094221 48.63044845 -9.6871556 47.2413438 -9.42347717 45.85221863 C-8.87621006 42.97206836 -8.32725281 40.09224681 -7.77709961 37.21264648 C-7.07184397 33.52020211 -6.37144797 29.82685414 -5.67232418 26.13324451 C-5.13139873 23.27876421 -4.58770571 20.42481644 -4.04318428 17.57102013 C-3.78350939 16.20800861 -3.52475835 14.84482076 -3.26695061 13.48145485 C-2.9086081 11.58841172 -2.5460828 9.6961618 -2.18334961 7.80395508 C-1.97842392 6.72841873 -1.77349823 5.65288239 -1.56236267 4.54475403 C-1 2 -1 2 0 0 Z " fill="#0A7051" transform="translate(676,487)"/>
<path d="M0 0 C4.62 0 9.24 0 14 0 C20.57446809 30.10638298 20.57446809 30.10638298 23 45 C23.15855469 44.08605469 23.31710937 43.17210937 23.48046875 42.23046875 C25.15235227 32.64598524 26.87841667 23.07112491 28.625 13.5 C28.84309326 12.28852295 29.06118652 11.0770459 29.28588867 9.82885742 C29.49318604 8.69939697 29.7004834 7.56993652 29.9140625 6.40625 C30.0992041 5.38853516 30.2843457 4.37082031 30.47509766 3.32226562 C31 1 31 1 32 0 C36.33315059 -0.1438629 40.66512361 -0.04208618 45 0 C43.68957198 9.76759071 42.06662485 19.4338405 40.21484375 29.11328125 C39.95088892 30.50332034 39.68710345 31.8933916 39.42347717 33.28349304 C38.87680336 36.16197851 38.32779545 39.04000601 37.77709961 41.91772461 C37.07056088 45.61112159 36.37058189 49.30572871 35.67232418 53.00069904 C35.13206474 55.8552649 34.58817661 58.70912996 34.04318428 61.56279564 C33.78323475 62.92658146 33.52448431 64.29059639 33.26695061 65.65484047 C32.90948974 67.54575088 32.54656316 69.43562561 32.18334961 71.32543945 C31.97842392 72.40018021 31.77349823 73.47492096 31.56236267 74.58222961 C31 77 31 77 30 78 C27.81360547 78.07258946 25.62499611 78.08373783 23.4375 78.0625 C21.64119141 78.04896484 21.64119141 78.04896484 19.80859375 78.03515625 C18.41833984 78.01775391 18.41833984 78.01775391 17 78 C14.50188025 68.50993616 12.30880647 58.98300154 10.3125 49.375 C10.09827393 48.34439453 9.88404785 47.31378906 9.66333008 46.25195312 C8.68842332 41.51147389 7.77704942 36.7776091 7 32 C6.79318604 33.21582764 6.58637207 34.43165527 6.37329102 35.68432617 C5.6043232 40.20381849 4.8344078 44.72314896 4.06420898 49.24243164 C3.7312688 51.19681481 3.39858412 53.15124152 3.06616211 55.10571289 C2.58775241 57.91824705 2.10841804 60.7306223 1.62890625 63.54296875 C1.48095108 64.41398727 1.33299591 65.2850058 1.18055725 66.18241882 C1.04048752 67.002892 0.90041779 67.82336517 0.75610352 68.66870117 C0.63396988 69.38595871 0.51183624 70.10321625 0.38600159 70.84220886 C-0.04194581 73.23448169 -0.52338904 75.61694518 -1 78 C-5.62 78 -10.24 78 -15 78 C-11.92019841 60.27953354 -8.62493484 42.60392708 -5.25 24.9375 C-5.04786896 23.87578583 -4.84573792 22.81407166 -4.63748169 21.72018433 C-4.05750072 18.67629109 -3.47457342 15.63297806 -2.890625 12.58984375 C-2.71476364 11.66598877 -2.53890228 10.74213379 -2.35771179 9.7902832 C-2.19358292 8.93901855 -2.02945404 8.08775391 -1.86035156 7.21069336 C-1.71776917 6.46685898 -1.57518677 5.7230246 -1.42828369 4.95664978 C-1 3 -1 3 0 0 Z " fill="#0A7051" transform="translate(1230,487)"/>
<path d="M0 0 C0.87720703 -0.020625 1.75441406 -0.04125 2.65820312 -0.0625 C9.72703313 -0.10479666 14.51505658 0.93388237 20 5.6875 C24.30086393 10.72565489 24.68967036 14.67756008 24.5625 21.2109375 C23.66746631 28.46443972 19.03192062 32.81822568 13.54296875 37.21875 C13.09566406 37.5590625 12.64835937 37.899375 12.1875 38.25 C12.950625 38.91 13.71375 39.57 14.5 40.25 C18.38690728 44.21442395 20.00441676 48.36750336 20.35546875 53.89453125 C20.08818586 60.9725782 18.02435848 66.05795105 13.1875 71.25 C3.09691201 79.45487175 -9.79670845 80.16482821 -22.29296875 79.0234375 C-24.1366916 78.79501166 -25.97549004 78.52728452 -27.8125 78.25 C-27.20176262 69.57718988 -25.55286951 61.13110281 -23.87109375 52.6171875 C-23.58066133 51.12940105 -23.29063424 49.64153542 -23.00099182 48.15359497 C-22.24386514 44.26983326 -21.48129851 40.38715979 -20.7175293 36.50469971 C-19.93660327 32.529827 -19.16091614 28.55393242 -18.38476562 24.578125 C-16.86575442 16.80108329 -15.34098511 9.02518525 -13.8125 1.25 C-9.1751442 0.03100796 -4.77929103 0.02772613 0 0 Z M0.1875 11.25 C-3.57918299 16.90002448 -4.17465976 24.5500445 -3.8125 31.25 C1.16058592 31.08142082 3.30285932 30.98720057 7.1875 27.75 C9.54749064 24.42674787 9.90985061 21.32290913 9.6796875 17.30859375 C9.28809533 14.96231155 9.28809533 14.96231155 6.9375 12.6875 C4.11385769 10.94116386 4.11385769 10.94116386 0.1875 11.25 Z M-6.8125 43.25 C-7.4857656 46.14444095 -8.15130404 49.04030013 -8.8125 51.9375 C-9.09867188 53.16243164 -9.09867188 53.16243164 -9.390625 54.41210938 C-10.29983916 58.42239326 -11.08250098 62.10717252 -10.8125 66.25 C-6.79328583 66.57153713 -4.25337898 66.45348261 -0.5625 64.75 C2.90811207 61.59489812 4.45818018 58.88579148 5.1875 54.25 C4.95835006 50.35445099 4.05908781 47.24610035 1.4375 44.25 C-1.41087865 42.98405393 -3.72549941 43.18252458 -6.8125 43.25 Z " fill="#0A6F51" transform="translate(1137.8125,486.75)"/>
<path d="M0 0 C0.81662109 -0.020625 1.63324219 -0.04125 2.47460938 -0.0625 C8.47489429 -0.10074883 14.45462254 0.47682232 19.21557617 4.56079102 C23.03632302 8.82060864 24.47145517 12.95992479 25 18.5625 C24.36610255 26.04248991 21.85252286 32.71194772 16.6875 38.25 C14.74821992 39.79593553 12.84082269 40.99806821 10.6875 42.25 C11.3990625 43.1471875 11.3990625 43.1471875 12.125 44.0625 C14.834217 47.8554038 14.92498352 51.34224841 15.22265625 55.88671875 C15.35317383 57.83481445 15.35317383 57.83481445 15.48632812 59.82226562 C15.57430424 61.19400494 15.66219376 62.5657498 15.75 63.9375 C15.84143414 65.32098756 15.93322683 66.70445148 16.02539062 68.08789062 C16.24962623 71.47502841 16.46901914 74.86248615 16.6875 78.25 C11.4075 78.25 6.1275 78.25 0.6875 78.25 C0.61402344 76.24099609 0.61402344 76.24099609 0.5390625 74.19140625 C0.46396359 72.39841978 0.38841892 70.60545194 0.3125 68.8125 C0.2815625 67.93400391 0.250625 67.05550781 0.21875 66.15039062 C-0.0924353 57.52233223 -0.0924353 57.52233223 -2.3125 49.25 C-5.29533157 47.55834699 -5.29533157 47.55834699 -8.3125 47.25 C-8.36075928 47.84280762 -8.40901855 48.43561523 -8.45874023 49.04638672 C-9.0446833 55.58273744 -10.09644206 61.94154944 -11.375 68.375 C-11.56126953 69.33148437 -11.74753906 70.28796875 -11.93945312 71.2734375 C-12.39308444 73.59975194 -12.85220879 75.92499415 -13.3125 78.25 C-18.2625 78.25 -23.2125 78.25 -28.3125 78.25 C-27.63586289 69.92238822 -26.21153512 61.82945023 -24.625 53.6328125 C-24.35943136 52.24427883 -24.09421975 50.85567683 -23.8293457 49.4670105 C-23.27722385 46.57710129 -22.72230248 43.68775023 -22.16503906 40.79882812 C-21.45174448 37.10092655 -20.74329283 33.40211905 -20.03663635 29.7029438 C-19.35934531 26.15842874 -18.67980914 22.61434533 -18 19.0703125 C-17.80695786 18.06264013 -17.80695786 18.06264013 -17.61001587 17.03461075 C-17.24514692 15.13237524 -16.87847258 13.23048629 -16.51171875 11.32861328 C-16.30377686 10.24846954 -16.09583496 9.16832581 -15.8815918 8.05545044 C-15.41711402 5.7657155 -14.90523278 3.50921919 -14.3125 1.25 C-9.55137815 0.04759855 -4.87879881 0.03037384 0 0 Z M-1.3125 12.25 C-1.98388621 15.51988299 -2.64879263 18.79105049 -3.3125 22.0625 C-3.59867188 23.4556543 -3.59867188 23.4556543 -3.890625 24.87695312 C-4.07109375 25.76962891 -4.2515625 26.66230469 -4.4375 27.58203125 C-4.60507812 28.40421143 -4.77265625 29.2263916 -4.9453125 30.07348633 C-5.39567686 32.37515483 -5.39567686 32.37515483 -5.3125 35.25 C-1.72211276 35.58398951 0.22068472 35.52140423 3.375 33.6875 C7.10570876 29.75513131 8.48011351 25.96834524 9.125 20.625 C8.59833347 16.5621439 7.77683054 14.93283968 4.6875 12.25 C1.5883584 12.07791487 1.5883584 12.07791487 -1.3125 12.25 Z " fill="#0A7051" transform="translate(898.3125,486.75)"/>
<path d="M0 0 C4.95 0 9.9 0 15 0 C14.38331793 7.153512 13.33648034 14.08560774 11.9375 21.125 C11.75123047 22.08148438 11.56496094 23.03796875 11.37304688 24.0234375 C10.91940944 26.34978331 10.46167962 28.67523936 10 31 C10.47421387 30.16750732 10.94842773 29.33501465 11.43701172 28.47729492 C13.19893432 25.38487116 14.96228887 22.29326594 16.72607422 19.2019043 C17.48883437 17.86456176 18.2512075 16.52699841 19.01318359 15.18920898 C20.10933056 13.26487796 21.20687293 11.34134879 22.3046875 9.41796875 C22.6443454 8.82098679 22.9840033 8.22400482 23.33395386 7.6089325 C24.81834818 5.01106735 26.33918575 2.49122138 28 0 C30.95064148 -0.2208564 33.68368231 -0.28060989 36.625 -0.1875 C37.42679688 -0.17396484 38.22859375 -0.16042969 39.0546875 -0.14648438 C41.03674378 -0.11109051 43.01845551 -0.05728234 45 0 C43.51958963 4.3285912 41.19797901 7.73497622 38.5 11.375 C37.60703193 12.61643938 36.71514056 13.8586538 35.82421875 15.1015625 C34.41021612 17.06367031 32.98764592 19.01649136 31.53759766 20.95214844 C30.10473023 22.8680859 28.70726501 24.80622111 27.3125 26.75 C26.64347656 27.6150415 26.64347656 27.6150415 25.9609375 28.49755859 C22.91385653 32.82601986 22.63825522 35.91527997 23.43383789 41.10009766 C23.62067139 42.05706543 23.80750488 43.0140332 24 44 C24.21841553 45.13356934 24.43683105 46.26713867 24.66186523 47.43505859 C25.56131631 51.89387086 26.52347042 56.33762714 27.49145508 60.78198242 C27.90591024 62.6936241 28.31435903 64.60656487 28.72265625 66.51953125 C29.09015991 68.20719604 29.09015991 68.20719604 29.46508789 69.92895508 C30 73 30 73 30 78 C24.72 78 19.44 78 14 78 C11.525 63.15 11.525 63.15 9 48 C6.05605865 51.92525514 5.45177858 53.45505863 4.61328125 58.078125 C4.39736328 59.23828125 4.18144531 60.3984375 3.95898438 61.59375 C3.74564453 62.8003125 3.53230469 64.006875 3.3125 65.25 C3.08755859 66.47203125 2.86261719 67.6940625 2.63085938 68.953125 C2.07753366 71.9669842 1.53748677 74.98327585 1 78 C-4.28 78 -9.56 78 -15 78 C-13.48919062 69.89685421 -11.97676327 61.79401527 -10.46161938 53.691679 C-9.75786003 49.92793492 -9.05476324 46.16406978 -8.35327148 42.39990234 C-7.67409177 38.75560392 -6.99305311 35.11165706 -6.31081581 31.46792984 C-6.05307418 30.08966126 -5.79596128 28.71127492 -5.53954124 27.33275986 C-3.83747722 18.18548272 -1.98318547 9.09024312 0 0 Z " fill="#0A7051" transform="translate(1289,487)"/>
<path d="M0 0 C-1.09959564 4.14705929 -2.20550907 8.2924092 -3.3125 12.4375 C-3.62123047 13.60216797 -3.92996094 14.76683594 -4.24804688 15.96679688 C-5.96774144 22.39302395 -7.81574381 28.71606297 -10 35 C-14.62249119 34.54532874 -19.07045823 33.99477697 -23.6015625 32.98046875 C-31.33482416 31.55945194 -39.09437812 31.66464189 -46.9309082 31.68432617 C-49.53315023 31.6874646 -52.1342276 31.6640354 -54.73632812 31.63867188 C-69.94367352 31.57983903 -84.4181207 33.5396052 -99 37.9375 C-100.25490234 38.29618164 -100.25490234 38.29618164 -101.53515625 38.66210938 C-106.84453336 40.21717423 -111.89687981 42.1189026 -116.96875 44.33032227 C-119 45 -119 45 -121 44 C-94.66838998 22.80626511 -35.36038633 -11.78679544 0 0 Z " fill="#FBFCFA" transform="translate(1483,353)"/>
<path d="M0 0 C5.94 0 11.88 0 18 0 C18 25.74 18 51.48 18 78 C13.05 78 8.1 78 3 78 C2.91477831 71.86403867 3.10101383 66.06815666 4 60 C-0.62 60 -5.24 60 -10 60 C-10.6496875 62.2275 -10.6496875 62.2275 -11.3125 64.5 C-12.68495922 69.0879351 -14.26470084 73.53780217 -16 78 C-20.95 78 -25.9 78 -31 78 C-30.21549929 74.07749644 -29.3495273 71.07456497 -27.875 67.42578125 C-27.42358643 66.30260498 -26.97217285 65.17942871 -26.50708008 64.0222168 C-26.00486476 62.78558575 -25.50250018 61.54901532 -25 60.3125 C-24.47842425 59.02072461 -23.95719326 57.72880997 -23.4362793 56.43676758 C-22.28077604 53.57305639 -21.12238123 50.71053386 -19.96240234 47.84863281 C-18.17725879 43.44195535 -16.40162015 39.03149058 -14.62747192 34.62037659 C-13.07586436 30.76344664 -11.52173438 26.90753635 -9.96704102 23.05184937 C-9.1965059 21.14019638 -8.42665051 19.22826927 -7.6574707 17.31607056 C-6.57234586 14.61984421 -5.48388622 11.92498827 -4.39453125 9.23046875 C-4.06588577 8.41206512 -3.7372403 7.5936615 -3.39863586 6.75045776 C-1.11424648 1.11424648 -1.11424648 1.11424648 0 0 Z M4 18 C-0.95 33.345 -0.95 33.345 -6 49 C-2.7 49 0.6 49 4 49 C4.33 38.77 4.66 28.54 5 18 C4.67 18 4.34 18 4 18 Z " fill="#0A7051" transform="translate(1189,487)"/>
<path d="M0 0 C5.28 0 10.56 0 16 0 C16 16.83 16 33.66 16 51 C17.505625 46.441875 19.01125 41.88375 20.5625 37.1875 C30.75328416 6.49343169 30.75328416 6.49343169 34 0 C39.61 0 45.22 0 51 0 C48.98550168 6.25938984 46.71730847 12.31699999 44.15625 18.37109375 C43.79022675 19.24364807 43.42420349 20.11620239 43.04708862 21.01519775 C41.86789943 23.823978 40.68404387 26.63076326 39.5 29.4375 C38.68805244 31.36878662 37.87636747 33.30018367 37.06494141 35.23168945 C34.71466307 40.82311303 32.35824926 46.41193439 30 52 C29.67253784 52.77625732 29.34507568 53.55251465 29.00769043 54.35229492 C25.68072663 62.23865858 22.34590374 70.12164956 19 78 C13.39 78 7.78 78 2 78 C1.26273772 68.37222199 0.7327603 58.77704106 0.4375 49.125 C0.41632111 48.45388184 0.39514221 47.78276367 0.37332153 47.09130859 C-0.11341525 31.39410495 -0.09396775 15.70305528 0 0 Z " fill="#0A7051" transform="translate(931,487)"/>
<path d="M0 0 C5.94 0 11.88 0 18 0 C18.33 25.74 18.66 51.48 19 78 C14.05 78 9.1 78 4 78 C4 72.06 4 66.12 4 60 C-2.435 60.495 -2.435 60.495 -9 61 C-9.42152344 62.14339844 -9.84304688 63.28679688 -10.27734375 64.46484375 C-10.83058521 65.95578259 -11.38397847 67.44666511 -11.9375 68.9375 C-12.21529297 69.69224609 -12.49308594 70.44699219 -12.77929688 71.22460938 C-14.88671875 76.88671875 -14.88671875 76.88671875 -16 78 C-18.53049402 78.07313567 -21.03304837 78.09247527 -23.5625 78.0625 C-24.27341797 78.05798828 -24.98433594 78.05347656 -25.71679688 78.04882812 C-27.47790013 78.03700864 -29.23896036 78.01907263 -31 78 C-28.58680545 70.43865707 -25.71943467 63.10867164 -22.75 55.75 C-22.23250747 54.46262883 -21.71517759 53.17519226 -21.19799805 51.88769531 C-19.47002167 47.58990039 -17.7353 43.29484204 -16 39 C-15.50974335 37.78594482 -15.50974335 37.78594482 -15.00958252 36.54736328 C-12.6134148 30.61374998 -10.21406776 24.68142961 -7.8125 18.75 C-7.31224304 17.51388977 -7.31224304 17.51388977 -6.80187988 16.25280762 C-5.85453977 13.91294658 -4.90600541 11.57357372 -3.95703125 9.234375 C-3.67215347 8.53054688 -3.3872757 7.82671875 -3.09376526 7.1015625 C-1.11518841 2.23037682 -1.11518841 2.23037682 0 0 Z M4 20 C2.49247107 24.26821354 0.99527041 28.53997809 -0.5 32.8125 C-1.14388672 34.63491211 -1.14388672 34.63491211 -1.80078125 36.49414062 C-2.20683594 37.65751953 -2.61289062 38.82089844 -3.03125 40.01953125 C-3.40830078 41.09307861 -3.78535156 42.16662598 -4.17382812 43.27270508 C-5.14495852 46.0035786 -5.14495852 46.0035786 -5 49 C-2.03 49 0.94 49 4 49 C5.38308781 46.23382437 5.11210196 43.98982 5.09765625 40.8984375 C5.09443359 39.68671875 5.09121094 38.475 5.08789062 37.2265625 C5.07951172 35.95554687 5.07113281 34.68453125 5.0625 33.375 C5.05798828 32.09625 5.05347656 30.8175 5.04882812 29.5 C5.03701203 26.33328708 5.02053815 23.16666644 5 20 C4.67 20 4.34 20 4 20 Z " fill="#0A7051" transform="translate(472,487)"/>
<path d="M0 0 C4.03484259 3.04591059 5.99644474 6.49882513 7.59375 11.203125 C8.65826237 20.64757776 7.44498849 28.57739182 2.05078125 36.45703125 C-2.59638051 42.23142218 -8.09683602 45.78222957 -15.40625 47.203125 C-17.15511981 47.26937007 -18.90627748 47.28865095 -20.65625 47.265625 C-21.54828125 47.25660156 -22.4403125 47.24757813 -23.359375 47.23828125 C-24.03484375 47.22667969 -24.7103125 47.21507812 -25.40625 47.203125 C-25.51582031 48.05132813 -25.62539063 48.89953125 -25.73828125 49.7734375 C-26.90199627 58.38303642 -28.50231896 66.72197766 -30.40625 75.203125 C-35.35625 75.203125 -40.30625 75.203125 -45.40625 75.203125 C-44.65471895 66.84691215 -43.05931644 58.67620004 -41.46484375 50.44921875 C-41.17450451 48.93756369 -40.88447562 47.42584898 -40.59474182 45.91407776 C-39.83667464 41.96309536 -39.07443328 38.0129298 -38.3112793 34.06292725 C-37.53113757 30.02095795 -36.75500221 25.97821964 -35.97851562 21.93554688 C-34.45831693 14.02398736 -32.93370157 6.11328742 -31.40625 -1.796875 C-21.7316375 -3.79746619 -8.87019901 -4.99828675 0 0 Z M-18.40625 10.203125 C-19.06233829 12.16174304 -19.06233829 12.16174304 -19.4765625 14.53515625 C-19.65058594 15.41623047 -19.82460938 16.29730469 -20.00390625 17.20507812 C-20.17792969 18.13255859 -20.35195313 19.06003906 -20.53125 20.015625 C-20.71300781 20.93150391 -20.89476562 21.84738281 -21.08203125 22.79101562 C-21.84172412 26.71228745 -22.40625 30.18749727 -22.40625 34.203125 C-18.39416373 34.68075432 -16.69075965 34.38164086 -13.21875 32.203125 C-9.01405663 28.30743797 -7.63027467 23.53298154 -7.09375 17.953125 C-7.48175331 14.25698076 -7.48175331 14.25698076 -9.40625 11.203125 C-13.91228431 9.25684017 -13.91228431 9.25684017 -18.40625 10.203125 Z " fill="#0A7051" transform="translate(442.40625,489.796875)"/>
<path d="M0 0 C17.15937838 12.65012375 29.06888809 29.86400329 32.3046875 51.2265625 C34.42220327 74.66427129 29.39222107 95.25860622 14.52734375 113.98046875 C1.63734261 128.87302364 -14.6340404 138.88129904 -34.41015625 141.3828125 C-56.7154268 142.73943727 -77.0002919 138.27707277 -94.30859375 123.37109375 C-111.12781199 107.45848765 -119.14523195 86.68607357 -119.81298828 63.82202148 C-120.07821306 40.85766464 -112.29226175 22.64981926 -96.296875 6.2109375 C-69.50366152 -19.06383061 -29.9131953 -20.07141468 0 0 Z M-98.66015625 14.6953125 C-112.99889067 31.6730778 -116.80157586 51.73009076 -115.41015625 73.3828125 C-113.26077 91.67021355 -102.92324145 110.76960704 -88.88671875 122.5390625 C-72.26008304 134.91725186 -53.15364649 139.6364053 -32.6953125 136.8828125 C-13.28784046 133.10854169 2.58894483 123.00657438 14.640625 107.3125 C26.42224576 89.60465317 31.2274272 69.9122981 27.40234375 48.8203125 C22.93721865 28.61302543 11.82335166 12.68913041 -5.41015625 1.3828125 C-37.13011723 -17.27754948 -73.47429422 -11.93248819 -98.66015625 14.6953125 Z " fill="#F5F7F4" transform="translate(256.41015625,143.6171875)"/>
<path d="M0 0 C10.89 0 21.78 0 33 0 C32.47942079 4.68521286 31.92450033 9.37749836 31 14 C25.06 14.33 19.12 14.66 13 15 C11.68 20.28 10.36 25.56 9 31 C14.61 31 20.22 31 26 31 C25.125 40.625 25.125 40.625 24 44 C18.39 44 12.78 44 7 44 C5.68 50.93 4.36 57.86 3 65 C9.27 65 15.54 65 22 65 C21 74 21 74 20 78 C8.45 78 -3.1 78 -15 78 C-12.74950751 62.24655258 -12.74950751 62.24655258 -11.68725586 56.75097656 C-11.45038559 55.51720276 -11.21351532 54.28342896 -10.96946716 53.01226807 C-10.59592857 51.09580475 -10.59592857 51.09580475 -10.21484375 49.140625 C-9.95084196 47.77541144 -9.68705752 46.41015583 -9.42347717 45.04486084 C-8.87687354 42.21762859 -8.32789903 39.39087086 -7.77709961 36.56445312 C-7.07106852 32.94057856 -6.37086203 29.3156064 -5.67232418 25.69028091 C-5.13147024 22.88639362 -4.58777484 20.08306331 -4.04318428 17.2798996 C-3.7835838 15.94199675 -3.52483278 14.60392878 -3.26695061 13.26569366 C-2.90862353 11.40866874 -2.54609117 9.55245673 -2.18334961 7.69628906 C-1.87596107 6.11415619 -1.87596107 6.11415619 -1.56236267 4.50006104 C-1 2 -1 2 0 0 Z " fill="#0A7051" transform="translate(1062,487)"/>
<path d="M0 0 C1.39120471 0.00015906 2.78241534 0.00585033 4.17358398 0.01586914 C4.90463852 0.01728409 5.63569305 0.01869904 6.38890076 0.02015686 C8.73253406 0.02577131 11.07607313 0.03832617 13.41967773 0.05102539 C15.00496282 0.05603853 16.59024939 0.06060176 18.17553711 0.06469727 C22.06945383 0.07574542 25.96329979 0.09301967 29.85717773 0.11352539 C29.54967403 2.2600804 29.23604114 4.40575824 28.91967773 6.55102539 C28.7456543 7.74598633 28.57163086 8.94094727 28.39233398 10.17211914 C27.85717773 13.11352539 27.85717773 13.11352539 26.85717773 14.11352539 C25.5145036 14.19984413 24.16743452 14.22059012 22.82202148 14.21118164 C22.01313477 14.20795898 21.20424805 14.20473633 20.37084961 14.20141602 C19.52071289 14.19303711 18.67057617 14.1846582 17.79467773 14.17602539 C16.94067383 14.17151367 16.08666992 14.16700195 15.20678711 14.16235352 C13.0902211 14.15052912 10.97369088 14.13259308 8.85717773 14.11352539 C8.80819336 14.75418945 8.75920898 15.39485352 8.70874023 16.05493164 C8.63397461 16.91989258 8.55920898 17.78485352 8.48217773 18.67602539 C8.41256836 19.52293945 8.34295898 20.36985352 8.27124023 21.24243164 C7.85717773 24.11352539 7.85717773 24.11352539 5.85717773 31.11352539 C11.46717773 31.11352539 17.07717773 31.11352539 22.85717773 31.11352539 C22.39593619 35.59415757 21.95053652 39.74009025 20.85717773 44.11352539 C12.44217773 44.60852539 12.44217773 44.60852539 3.85717773 45.11352539 C2.53717773 51.71352539 1.21717773 58.31352539 -0.14282227 65.11352539 C6.12717773 65.11352539 12.39717773 65.11352539 18.85717773 65.11352539 C18.19717773 69.40352539 17.53717773 73.69352539 16.85717773 78.11352539 C5.30717773 78.11352539 -6.24282227 78.11352539 -18.14282227 78.11352539 C-17.54653347 72.15063745 -16.97724279 66.65288766 -15.85180664 60.84375 C-15.72647049 60.1904068 -15.60113434 59.5370636 -15.47200012 58.86392212 C-15.06465585 56.74701279 -14.65086072 54.63142945 -14.23657227 52.51586914 C-13.94865048 51.03045551 -13.6610171 49.54498594 -13.37365723 48.0594635 C-12.77471135 44.9685945 -12.17259808 41.87836498 -11.56811523 38.78857422 C-10.79227379 34.82172736 -10.02406725 30.85344653 -9.25811005 26.88468075 C-8.6673335 23.8276275 -8.07282108 20.77131035 -7.47712708 17.71521187 C-7.19213731 16.25093639 -6.9082698 14.78644204 -6.62553406 13.32172966 C-6.23207348 11.28664472 -5.83365785 9.25259369 -5.43383789 7.21875 C-5.2081311 6.06088486 -4.98242432 4.90301971 -4.74987793 3.71006775 C-3.91555423 0.1414381 -3.91555423 0.1414381 0 0 Z " fill="#0A7051" transform="translate(842.142822265625,486.886474609375)"/>
<path d="M0 0 C10.89 0 21.78 0 33 0 C32 10 32 10 31 14 C25.06 14 19.12 14 13 14 C12.01 19.28 11.02 24.56 10 30 C15.28 30.33 20.56 30.66 26 31 C25.125 41.75 25.125 41.75 24 44 C18.39 44 12.78 44 7 44 C6.71125 45.98 6.4225 47.96 6.125 50 C5.37192006 55.16397675 4.27938708 59.88245169 3 65 C9.27 65 15.54 65 22 65 C21.125 74.625 21.125 74.625 20 78 C8.45 78 -3.1 78 -15 78 C-12.29063663 62.21748472 -9.45156265 46.46602519 -6.48071289 30.73071289 C-5.7995117 27.11862925 -5.12333337 23.5056257 -4.44726562 19.89257812 C-4.01332174 17.58848497 -3.57908848 15.2844463 -3.14453125 12.98046875 C-2.94350296 11.90363327 -2.74247467 10.82679779 -2.53535461 9.71733093 C-2.34813339 8.73061905 -2.16091217 7.74390717 -1.96801758 6.72729492 C-1.80465408 5.85956955 -1.64129059 4.99184418 -1.47297668 4.0978241 C-1 2 -1 2 0 0 Z " fill="#0A7051" transform="translate(630,487)"/>
<path d="M0 0 C5.28 0 10.56 0 16 0 C17.06166557 3.1849967 17.29951763 5.8531504 17.53515625 9.19921875 C17.62216797 10.40771484 17.70917969 11.61621094 17.79882812 12.86132812 C17.88583984 14.12396484 17.97285156 15.38660156 18.0625 16.6875 C18.15337891 17.96173828 18.24425781 19.23597656 18.33789062 20.54882812 C18.56205947 23.69899026 18.78261653 26.84936354 19 30 C19.31751221 29.26885986 19.63502441 28.53771973 19.9621582 27.78442383 C21.408719 24.45889057 22.86055215 21.13568455 24.3125 17.8125 C25.06176758 16.08676758 25.06176758 16.08676758 25.82617188 14.32617188 C26.31279297 13.21435547 26.79941406 12.10253906 27.30078125 10.95703125 C27.74591064 9.93585205 28.19104004 8.91467285 28.6496582 7.86254883 C29.96386671 5.07659788 31.18726421 2.49448699 33 0 C35.94093052 -0.37859559 38.27644958 -0.47775614 41.1875 -0.3125 C41.93708984 -0.28994141 42.68667969 -0.26738281 43.45898438 -0.24414062 C45.3068447 -0.18529157 47.15367667 -0.09560938 49 0 C47.53511662 3.87581865 45.76166539 7.47045966 43.8046875 11.12109375 C43.49599731 11.69741043 43.18730713 12.27372711 42.8692627 12.86750793 C42.21227234 14.0927727 41.55405975 15.31738277 40.89471436 16.54138184 C39.86425247 18.4574846 38.84106374 20.37733908 37.81884766 22.29785156 C32.1699915 32.87334723 32.1699915 32.87334723 29.40625 37.11328125 C23.14987313 46.77457091 21.45068515 56.98692539 19.55908203 68.22436523 C18.893971 71.52639461 17.92535646 74.76125239 17 78 C12.05 78 7.1 78 2 78 C2.62797004 70.96673559 3.92203779 64.15876836 5.37890625 57.2578125 C7.30432548 45.68617947 4.9811014 34.52408905 3 23.125 C2.5687342 20.61169481 2.14011643 18.09799818 1.71606445 15.58346558 C1.45355917 14.03005124 1.18670096 12.47736408 0.91479492 10.92556763 C0.27576715 7.17577969 0 3.83379105 0 0 Z " fill="#0A7051" transform="translate(503,487)"/>
<path d="M0 0 C-0.51405169 4.96916636 -1.23384882 9.29026351 -3 14 C-3.80824219 13.89300781 -4.61648438 13.78601563 -5.44921875 13.67578125 C-7.05216797 13.49595703 -7.05216797 13.49595703 -8.6875 13.3125 C-10.27111328 13.12107422 -10.27111328 13.12107422 -11.88671875 12.92578125 C-15.5055454 13.0120519 -17.14319417 13.83294549 -20 16 C-21.63023814 19.26047629 -21.4673535 21.37801035 -21 25 C-18.98292042 27.97315198 -16.52002643 30.4496118 -14 33 C-8.47306419 38.80710306 -5.01529653 44.11834347 -4.5625 52.3125 C-4.88779949 59.84643624 -7.16860532 66.79216323 -12.75 72 C-20.7285118 78.10465948 -28.07402833 78.73152015 -38 78 C-40.66327058 77.60249693 -42.50274962 77.07835812 -45 76 C-46.1615882 72.51523541 -45.77669581 71.32751629 -44.75 67.875 C-44.49734375 66.98554687 -44.2446875 66.09609375 -43.984375 65.1796875 C-43.49710938 64.10074219 -43.49710938 64.10074219 -43 63 C-40 62 -40 62 -37 63 C-35.35720783 63.11792999 -33.70947306 63.17511674 -32.0625 63.1875 C-31.20785156 63.20167969 -30.35320313 63.21585938 -29.47265625 63.23046875 C-26.82375715 62.98357294 -25.23364615 62.42413681 -23 61 C-21.39011396 57.78022792 -21.54138655 54.49201386 -22 51 C-23.94555233 47.18671743 -26.43955301 44.54065164 -29.5 41.625 C-35.23273503 35.94157882 -37.22722987 31.26853502 -37.5625 23.125 C-37.3341406 16.45976012 -36.17280952 11.29139483 -32 6 C-23.08216514 -2.27961457 -11.39239463 -3.79746488 0 0 Z " fill="#0A7050" transform="translate(824,488)"/>
<path d="M0 0 C1.45019531 0.15275391 1.45019531 0.15275391 2.9296875 0.30859375 C3.65414063 0.39238281 4.37859375 0.47617187 5.125 0.5625 C6.49595624 4.25287278 5.72510967 6.27133835 4.1875 9.8125 C3.61708984 11.15054687 3.61708984 11.15054687 3.03515625 12.515625 C2.73480469 13.19109375 2.43445312 13.8665625 2.125 14.5625 C1.40054687 14.58828125 0.67609375 14.6140625 -0.0703125 14.640625 C-6.05090606 14.99148649 -10.37101221 15.26800001 -14.875 19.5625 C-23.17968272 30.56722734 -25.32833399 43.06929131 -23.875 56.5625 C-22.28388893 60.55888717 -21.47860355 62.16009763 -17.875 64.5625 C-15.12981679 64.80437651 -15.12981679 64.80437651 -12.1875 64.6875 C-10.434375 64.64625 -8.68125 64.605 -6.875 64.5625 C-6.875 69.1825 -6.875 73.8025 -6.875 78.5625 C-14.2757471 80.41268678 -23.06020355 80.87128996 -30.1640625 77.6640625 C-36.04971122 73.87467223 -39.12015811 68.23689863 -40.875 61.5625 C-41.27946829 58.15479408 -41.30439476 54.80343318 -41.25 51.375 C-41.23984863 50.44953369 -41.22969727 49.52406738 -41.21923828 48.57055664 C-40.88131028 33.56419553 -36.73125084 19.65805377 -26.21875 8.5390625 C-18.59952921 2.11351963 -9.90632617 -1.0872797 0 0 Z " fill="#0A7051" transform="translate(1046.875,486.4375)"/>
<path d="M0 0 C14.19 0 28.38 0 43 0 C42.01 4.95 41.02 9.9 40 15 C35.38 15 30.76 15 26 15 C25.88213135 16.3907373 25.7642627 17.78147461 25.64282227 19.21435547 C25.02115785 25.40545638 23.89216984 31.46420502 22.71484375 37.5703125 C22.49429825 38.73255341 22.27375275 39.89479431 22.04652405 41.09225464 C21.34756539 44.77062111 20.64263156 48.44781241 19.9375 52.125 C19.4598898 54.63273699 18.98267229 57.1405488 18.50585938 59.6484375 C17.34177908 65.76649966 16.172342 71.8835158 15 78 C9.72 78 4.44 78 -1 78 C0.62787064 66.6315919 2.76974709 55.37866784 4.94116211 44.10351562 C5.56764063 40.84828894 6.18932396 37.59217079 6.81054688 34.3359375 C7.20805075 32.26296663 7.60582717 30.19004799 8.00390625 28.1171875 C8.18933487 27.14538544 8.37476349 26.17358337 8.56581116 25.17233276 C8.73946701 24.27354401 8.91312286 23.37475525 9.09204102 22.44873047 C9.24367203 21.65965302 9.39530304 20.87057556 9.55152893 20.05758667 C10 18 10 18 11 15 C6.71 15 2.42 15 -2 15 C-1.52312298 9.89060335 -1.00753402 5.0376701 0 0 Z " fill="#0A7051" transform="translate(727,487)"/>
<path d="M0 0 C1.39456452 0.00667256 2.78911118 0.01863093 4.18359375 0.03515625 C4.89451172 0.03966797 5.60542969 0.04417969 6.33789062 0.04882812 C8.09899388 0.06064761 9.86005411 0.07858362 11.62109375 0.09765625 C10.86620821 8.43844683 9.29326252 16.60108826 7.71484375 24.81640625 C7.42701511 26.32568801 7.13937998 27.83500668 6.85192871 29.34436035 C6.25236199 32.48815274 5.65026982 35.63144804 5.04638672 38.77441406 C4.27127561 42.8098254 3.5028909 46.84648441 2.73638153 50.88353729 C2.14552899 53.99118098 1.55102161 57.0981167 0.95539856 60.20484924 C0.67034473 61.69423593 0.38647757 63.18385023 0.10380554 64.6736908 C-0.28968338 66.74478841 -0.68810755 68.81487514 -1.08789062 70.88476562 C-1.31359741 72.06341187 -1.5393042 73.24205811 -1.77185059 74.4564209 C-2.37890625 77.09765625 -2.37890625 77.09765625 -3.37890625 78.09765625 C-5.90940027 78.17079192 -8.41195462 78.19013152 -10.94140625 78.16015625 C-11.65232422 78.15564453 -12.36324219 78.15113281 -13.09570312 78.14648438 C-14.85680638 78.13466489 -16.61786661 78.11672888 -18.37890625 78.09765625 C-17.62402071 69.75686567 -16.05107502 61.59422424 -14.47265625 53.37890625 C-14.18482761 51.86962449 -13.89719248 50.36030582 -13.60974121 48.85095215 C-13.01017449 45.70715976 -12.40808232 42.56386446 -11.80419922 39.42089844 C-11.02908811 35.3854871 -10.2607034 31.34882809 -9.49419403 27.31177521 C-8.90334149 24.20413152 -8.30883411 21.0971958 -7.71321106 17.99046326 C-7.42815723 16.50107657 -7.14429007 15.01146227 -6.86161804 13.5216217 C-6.46812912 11.45052409 -6.06970495 9.38043736 -5.66992188 7.31054688 C-5.33136169 5.54257751 -5.33136169 5.54257751 -4.98596191 3.7388916 C-4.09374978 -0.14302958 -4.14545774 0.11981092 0 0 Z " fill="#0A6F51" transform="translate(992.37890625,486.90234375)"/>
</svg>
