<?xml version="1.0" encoding="UTF-8"?>
<svg version="1.1" xmlns="http://www.w3.org/2000/svg" width="447" height="115">
<path d="M0 0 C1.29200317 -0.01401855 1.29200317 -0.01401855 2.61010742 -0.02832031 C14.40717149 0.03217149 14.40717149 0.03217149 18.625 4.25 C19.80485884 18.28729488 6.89010751 32.95727695 -1.51171875 43.109375 C-4.41393474 46.53621886 -7.38598216 49.89891328 -10.375 53.25 C-11.68885985 54.74880904 -13.00161128 56.24859166 -14.3125 57.75 C-14.84488281 58.35457031 -15.37726563 58.95914063 -15.92578125 59.58203125 C-17.31293232 61.17856361 -18.66034432 62.80105906 -20 64.4375 C-23.94576097 69.11011167 -28.2992753 73.15817907 -33 77.0625 C-33.94101562 77.85269531 -34.88203125 78.64289063 -35.8515625 79.45703125 C-38.375 81.25 -38.375 81.25 -41.375 81.25 C-40.90874647 75.92489384 -38.83004163 72.29394659 -35.9375 67.9375 C-35.02697232 66.51930222 -34.11817301 65.09999357 -33.2109375 63.6796875 C-32.74268555 62.95104492 -32.27443359 62.22240234 -31.79199219 61.47167969 C-18.46189923 40.98034181 -18.46189923 40.98034181 -15.375 17.25 C-24.4109246 13.45916002 -33.86122452 11.8974287 -43.5390625 10.6796875 C-46.375 10.25 -46.375 10.25 -48.375 9.25 C-48.375 8.26 -48.375 7.27 -48.375 6.25 C-32.44409645 1.60818086 -16.56388423 0.12287965 0 0 Z " fill="#E73C3C" transform="translate(415.375,32.75)"/>
<path d="M0 0 C3.96 0 7.92 0 12 0 C13.65 6.27 15.3 12.54 17 19 C18.65 12.73 20.3 6.46 22 0 C24.97 0 27.94 0 31 0 C31.67099984 2.60311992 32.33695338 5.20735398 33 7.8125 C33.28617188 8.91948242 33.28617188 8.91948242 33.578125 10.04882812 C34.35262914 13.10535341 35 15.83373478 35 19 C35.66 19 36.32 19 37 19 C37.103125 17.906875 37.20625 16.81375 37.3125 15.6875 C37.97061041 10.29680151 39.50167472 5.2115662 41 0 C44.96 0 48.92 0 53 0 C50.93834697 9.16859361 48.42902064 18.06697217 45.3125 26.9375 C45.00304443 27.81954102 44.69358887 28.70158203 44.37475586 29.61035156 C42.14056813 35.85943187 42.14056813 35.85943187 41 37 C39.48071962 37.07179964 37.95832518 37.08392007 36.4375 37.0625 C35.61121094 37.05347656 34.78492188 37.04445312 33.93359375 37.03515625 C33.29550781 37.02355469 32.65742188 37.01195312 32 37 C29.37694699 32.12861585 27.67180336 27.25423914 26 22 C24.35 26.95 22.7 31.9 21 37 C17.7 37 14.4 37 11 37 C9.58378289 33.02002749 8.17839436 29.03643831 6.7824707 25.04931641 C6.30716497 23.69641158 5.82902991 22.34449703 5.34790039 20.99365234 C0.43012541 7.17485784 0.43012541 7.17485784 0 0 Z " fill="#2B5D76" transform="translate(184,50)"/>
<path d="M0 0 C0 3.3 0 6.6 0 10 C1.010625 9.79375 2.02125 9.5875 3.0625 9.375 C8.51350529 8.85585664 12.17841674 9.86657042 16.8125 12.75 C20.85769237 16.9107693 21.2508811 21.66100842 21.1953125 27.2734375 C21.18886719 28.42714844 21.18242187 29.58085938 21.17578125 30.76953125 C21.15902344 31.95933594 21.14226562 33.14914063 21.125 34.375 C21.11597656 35.58800781 21.10695313 36.80101562 21.09765625 38.05078125 C21.07416682 41.03393929 21.03829821 44.01699532 21 47 C17.04 47 13.08 47 9 47 C8.505 34.625 8.505 34.625 8 22 C4.1490712 19.7018576 4.1490712 19.7018576 0 20 C0 28.91 0 37.82 0 47 C-3.63 47 -7.26 47 -11 47 C-11 32.15 -11 17.3 -11 2 C-5 0 -5 0 0 0 Z " fill="#255972" transform="translate(334,40)"/>
<path d="M0 0 C3.45629092 2.861585 5.58307812 5.74923435 7 10 C7 13.63 7 17.26 7 21 C-0.26 21 -7.52 21 -15 21 C-11.65062751 26.37742502 -11.65062751 26.37742502 -7.109375 26.48828125 C-5.6554446 26.45523738 -4.20191425 26.39586963 -2.75 26.3125 C-1.63238281 26.27866211 -1.63238281 26.27866211 -0.4921875 26.24414062 C1.339409 26.18543561 3.16996653 26.09575757 5 26 C5.495 30.455 5.495 30.455 6 35 C-0.53681272 38.09573584 -8.27144043 37.95860066 -15.29296875 36.53515625 C-19.78582249 34.85901435 -22.37781072 31.89582407 -25 28 C-27.67500625 20.99403125 -27.86011886 14.75342834 -24.96484375 7.85546875 C-22.60999159 3.32690691 -19.4454279 0.9418182 -14.8125 -0.9375 C-9.59301732 -2.44245084 -4.99420685 -2.17544265 0 0 Z M-13.8125 8.3125 C-15.2877467 10.06499542 -15.2877467 10.06499542 -15 13 C-11.04 13 -7.08 13 -3 13 C-4.76851036 9.81925835 -4.76851036 9.81925835 -7 7 C-9.88725465 6.69607846 -11.42208484 6.58150971 -13.8125 8.3125 Z " fill="#2B5D76" transform="translate(114,51)"/>
<path d="M0 0 C0.67675781 -0.01998047 1.35351562 -0.03996094 2.05078125 -0.06054688 C7.12203358 -0.05564238 9.99029812 1.25020009 13.875 4.4375 C16.9877627 9.10664404 17.00222319 13.77398681 16.97265625 19.2734375 C16.96943359 20.33691406 16.96621094 21.40039062 16.96289062 22.49609375 C16.95032227 24.13771484 16.95032227 24.13771484 16.9375 25.8125 C16.93298828 26.93011719 16.92847656 28.04773438 16.92382812 29.19921875 C16.91209258 31.94533566 16.89415866 34.69142485 16.875 37.4375 C12.915 37.4375 8.955 37.4375 4.875 37.4375 C4.81441406 35.64441406 4.75382812 33.85132813 4.69140625 32.00390625 C4.60702151 29.66926176 4.52237249 27.33462681 4.4375 25 C4.39818359 23.81599609 4.35886719 22.63199219 4.31835938 21.41210938 C4.27646484 20.28740234 4.23457031 19.16269531 4.19140625 18.00390625 C4.15474854 16.96177979 4.11809082 15.91965332 4.08032227 14.84594727 C4.13984659 12.4875174 4.13984659 12.4875174 2.875 11.4375 C0.565 11.4375 -1.745 11.4375 -4.125 11.4375 C-4.455 20.0175 -4.785 28.5975 -5.125 37.4375 C-8.755 37.4375 -12.385 37.4375 -16.125 37.4375 C-16.125 26.2175 -16.125 14.9975 -16.125 3.4375 C-9.98871034 1.13639138 -6.20906472 -0.06579934 0 0 Z " fill="#265A73" transform="translate(36.125,49.5625)"/>
<path d="M0 0 C-0.33 2.97 -0.66 5.94 -1 9 C-4.96 9 -8.92 9 -13 9 C-12.67 9.99 -12.34 10.98 -12 12 C-10.29861295 12.8764932 -10.29861295 12.8764932 -8.25 13.4375 C-4.52569427 14.71459586 -1.86604797 16.22080197 1 19 C2.49756381 23.49269144 2.68518388 27.32510608 0.875 31.75 C-2.32428793 35.58914552 -5.76395883 36.87835785 -10.69140625 37.36328125 C-11.96886719 37.34652344 -13.24632812 37.32976562 -14.5625 37.3125 C-16.48255859 37.30669922 -16.48255859 37.30669922 -18.44140625 37.30078125 C-21.75006788 37.02112489 -24.03252181 36.42962961 -27 35 C-26.67 32.36 -26.34 29.72 -26 27 C-22.20732808 26.0639658 -19.06325435 26.01723748 -15.1875 26.4375 C-14.21167969 26.53933594 -13.23585937 26.64117187 -12.23046875 26.74609375 C-11.49441406 26.82988281 -10.75835937 26.91367188 -10 27 C-12.53515093 23.91372931 -14.92602587 22.51353609 -18.5625 21.0625 C-21.46739203 19.82505422 -22.89563705 19.11385049 -25.0625 16.75 C-26.31636463 13.07199708 -26.78783129 9.7979414 -26 6 C-23.73617424 2.40451202 -22.00636323 0.4919998 -18.1875 -1.375 C-11.52117438 -2.68212267 -6.33825534 -2.11275178 0 0 Z " fill="#306179" transform="translate(178,51)"/>
<path d="M0 0 C0 3.3 0 6.6 0 10 C3.3 10 6.6 10 10 10 C10 13.3 10 16.6 10 20 C6.7 20 3.4 20 0 20 C0.14058476 22.45873768 0.28722999 24.91685175 0.4375 27.375 C0.47681641 28.07367188 0.51613281 28.77234375 0.55664062 29.4921875 C0.74280134 33.37360492 0.74280134 33.37360492 2 37 C5.3 37 8.6 37 12 37 C12.33 39.97 12.66 42.94 13 46 C7.89655616 48.63403553 2.49924022 48.86135144 -3.03125 47.5 C-6.10606971 46.35345706 -7.87345896 45.16450335 -9.875 42.5625 C-11.99365038 37.73668524 -12.13498187 33.40095707 -12.09765625 28.171875 C-12.0962413 27.42286926 -12.09482635 26.67386353 -12.09336853 25.90216064 C-12.08778659 23.51806588 -12.07523745 21.13406622 -12.0625 18.75 C-12.05748266 17.13020969 -12.05292016 15.51041791 -12.04882812 13.890625 C-12.03782308 9.92704688 -12.02057091 5.96353955 -12 2 C-7.69214025 0.64851459 -4.58042408 0 0 0 Z " fill="#2F6179" transform="translate(72,40)"/>
<path d="M0 0 C0 3.3 0 6.6 0 10 C3.3 10 6.6 10 10 10 C10 13.3 10 16.6 10 20 C6.7 20 3.4 20 0 20 C0.14058476 22.45873768 0.28722999 24.91685175 0.4375 27.375 C0.47681641 28.07367188 0.51613281 28.77234375 0.55664062 29.4921875 C0.74280134 33.37360492 0.74280134 33.37360492 2 37 C5.3 37 8.6 37 12 37 C12.33 39.97 12.66 42.94 13 46 C7.83792775 48.58103613 3.68232629 48.55096362 -2 48 C-5.45128672 46.66792442 -7.40996081 45.59003919 -10 43 C-11.34068069 38.91151155 -11.12550848 34.7716637 -11.09765625 30.515625 C-11.0962413 29.70003113 -11.09482635 28.88443726 -11.09336853 28.04412842 C-11.08778303 25.44604788 -11.07523321 22.84805437 -11.0625 20.25 C-11.05748312 18.48567833 -11.05292054 16.72135531 -11.04882812 14.95703125 C-11.03781835 10.63798744 -11.02056369 6.31900846 -11 2 C-6.9402698 0.48940272 -4.45389333 0 0 0 Z " fill="#255972" transform="translate(272,40)"/>
<path d="M0 0 C-0.875 7.75 -0.875 7.75 -2 10 C-2.90492188 9.85691406 -2.90492188 9.85691406 -3.828125 9.7109375 C-4.62734375 9.60007812 -5.4265625 9.48921875 -6.25 9.375 C-7.03890625 9.25898437 -7.8278125 9.14296875 -8.640625 9.0234375 C-11.35867244 8.99643703 -12.72405371 9.55257802 -15 11 C-17.30567313 14.22794238 -17.32369432 17.11566819 -17 21 C-15.79255056 24.20476624 -15.79255056 24.20476624 -13 26 C-10.95944995 26.07065617 -8.91665743 26.08421976 -6.875 26.0625 C-5.77929688 26.05347656 -4.68359375 26.04445313 -3.5546875 26.03515625 C-2.71164062 26.02355469 -1.86859375 26.01195313 -1 26 C1.125 32.625 1.125 32.625 0 36 C-3.42991538 37.14330513 -6.1986416 37.20381651 -9.8125 37.25 C-11.61654297 37.28867188 -11.61654297 37.28867188 -13.45703125 37.328125 C-17.99804204 36.90756832 -21.25954497 35.58749342 -24.64453125 32.5 C-29.76562082 25.92308229 -29.50908572 20.09642093 -29 12 C-27.99155399 6.32244894 -24.52862235 3.40212863 -20.03515625 0.1640625 C-13.60450189 -3.51412368 -6.70107712 -2.18810681 0 0 Z " fill="#2D5F77" transform="translate(317,51)"/>
<path d="M0 0 C3.83378636 1.81233537 5.53351018 3.30026527 7.875 6.8125 C9.46885751 11.32842962 9.48001749 14.98392654 8.375 19.625 C6.1773354 23.42096613 2.94027886 26.02986057 -1 28 C-6.385961 28.35317777 -9.59851755 28.42337524 -14 25 C-17.16894847 22.18315692 -18.69048006 20.28160413 -19.2734375 15.984375 C-19.51449579 10.68109252 -18.71789036 7.63169019 -15.484375 3.41015625 C-11.03758564 -0.81429364 -5.81061096 -0.73435842 0 0 Z " fill="#E73D3D" transform="translate(438,0)"/>
<path d="M0 0 C0 15.51 0 31.02 0 47 C-3.63 47 -7.26 47 -11 47 C-11 32.15 -11 17.3 -11 2 C-4 0 -4 0 0 0 Z " fill="#1F546F" transform="translate(12,40)"/>
<path d="M0 0 C1.23621094 0.02707031 2.47242188 0.05414063 3.74609375 0.08203125 C5.14021484 0.13423828 5.14021484 0.13423828 6.5625 0.1875 C7.40926067 3.91951925 7.52179637 6.45690301 6.5625 10.1875 C2.1075 10.6825 2.1075 10.6825 -2.4375 11.1875 C-2.7675 19.7675 -3.0975 28.3475 -3.4375 37.1875 C-7.0675 37.1875 -10.6975 37.1875 -14.4375 37.1875 C-14.4375 25.9675 -14.4375 14.7475 -14.4375 3.1875 C-8.30792535 0.56053944 -6.19888287 -0.17711094 0 0 Z " fill="#245872" transform="translate(142.4375,49.8125)"/>
<path d="M0 0 C3.96 0 7.92 0 12 0 C12 12.21 12 24.42 12 37 C8.04 37 4.08 37 0 37 C0 24.79 0 12.58 0 0 Z " fill="#35657D" transform="translate(242,50)"/>
<path d="M0 0 C3.96 0 7.92 0 12 0 C11.67 1.98 11.34 3.96 11 6 C10.67 4.68 10.34 3.36 10 2 C6.7 2.33 3.4 2.66 0 3 C0 2.01 0 1.02 0 0 Z " fill="#94ADB9" transform="translate(225,50)"/>
<path d="M0 0 C-0.99 1.485 -0.99 1.485 -2 3 C-0.35 3 1.3 3 3 3 C3 3.33 3 3.66 3 4 C-3.75 4.125 -3.75 4.125 -6 3 C-6 2.01 -6 1.02 -6 0 C-3.50907189 -1.24546405 -2.58919267 -0.7767578 0 0 Z " fill="#F19090" transform="translate(373,39)"/>
</svg>
