<?xml version="1.0" encoding="UTF-8"?>
<svg version="1.1" xmlns="http://www.w3.org/2000/svg" width="684" height="250">
<path d="M0 0 C0.60328125 0.60199219 1.2065625 1.20398438 1.828125 1.82421875 C5.3993856 3.75758106 8.84963153 2.7922835 12.75 2.1875 C13.54277344 2.07857422 14.33554688 1.96964844 15.15234375 1.85742188 C17.10376263 1.58704456 19.0522372 1.29556663 21 1 C22.32576001 3.65152002 22.43639822 6.01818189 22.76855469 8.97045898 C22.98472443 10.86639297 22.98472443 10.86639297 23.20526123 12.80062866 C23.36084884 14.1991115 23.51638525 15.59760003 23.671875 16.99609375 C23.83601258 18.44654258 24.00050929 19.89695081 24.16534424 21.34732056 C24.60667499 25.23858517 25.04347748 29.13034515 25.47924805 33.02223587 C26.19894197 39.44232217 26.925609 45.86162638 27.65098572 52.28107262 C27.92202079 54.68097842 28.19251851 57.08094443 28.4630127 59.48091125 C29.48970421 68.57724344 30.54411971 77.66957959 31.640625 86.7578125 C31.76000427 87.75351761 31.87938354 88.74922272 32.00238037 89.77510071 C32.6533197 95.20622449 32.6533197 95.20622449 33.31970215 100.63546753 C33.95524064 105.75205582 34.51512792 110.86682514 35 116 C35.13929932 117.24418701 35.27859863 118.48837402 35.42211914 119.77026367 C35.97150066 127.76531432 35.97150066 127.76531432 33.45263672 130.96655273 C31.20329081 132.67005103 28.95979692 133.92443454 26.4375 135.1875 C24.67724545 136.17766365 22.9181422 137.16987663 21.16015625 138.1640625 C20.28246582 138.64004883 19.40477539 139.11603516 18.50048828 139.60644531 C14.98618958 141.56500975 11.68750292 143.78453253 8.375 146.0625 C7.15872117 146.88194624 5.94126491 147.6996475 4.72265625 148.515625 C4.11566895 148.92232422 3.50868164 149.32902344 2.88330078 149.74804688 C-0.45395823 151.96654107 -3.82047672 154.13954785 -7.1875 156.3125 C-7.88528564 156.76286621 -8.58307129 157.21323242 -9.30200195 157.67724609 C-10.76084909 158.61857616 -12.21975357 159.55981736 -13.67871094 160.50097656 C-17.02548042 162.66222652 -20.36870861 164.82889831 -23.71020508 166.99829102 C-25.43039566 168.11490596 -27.15157127 169.23000504 -28.8737793 170.34350586 C-32.54956382 172.72589871 -36.20711168 175.1205148 -39.79296875 177.63671875 C-40.85128906 178.37535156 -41.90960938 179.11398438 -43 179.875 C-43.886875 180.51179687 -44.77375 181.14859375 -45.6875 181.8046875 C-48 183 -48 183 -49.80200195 182.7890625 C-52.6702457 181.75938753 -54.94014812 180.2556171 -57.48046875 178.5703125 C-58.55321045 177.86310059 -59.62595215 177.15588867 -60.73120117 176.42724609 C-61.88332954 175.6598739 -63.0354285 174.89245757 -64.1875 174.125 C-65.37499413 173.34003276 -66.5629041 172.55569425 -67.7512207 171.77197266 C-70.10504496 170.21917669 -72.45736635 168.66414677 -74.80859375 167.10742188 C-78.75155905 164.50371345 -82.71480773 161.93301898 -86.6875 159.375 C-96.25144542 153.19984478 -105.79034387 146.98663465 -115.31494141 140.75097656 C-117.78001035 139.14345934 -120.25343936 137.54993511 -122.73046875 135.9609375 C-124.09129841 135.0783602 -125.45198725 134.19556573 -126.8125 133.3125 C-127.4223877 132.92698975 -128.03227539 132.54147949 -128.66064453 132.14428711 C-131.83292847 130.06881826 -133.64294553 128.54459376 -135 125 C-135.03100586 123.02514648 -135.03100586 123.02514648 -134.71484375 120.87109375 C-134.59906982 120.02514648 -134.4832959 119.17919922 -134.36401367 118.30761719 C-134.1528894 116.88690918 -134.1528894 116.88690918 -133.9375 115.4375 C-133.63813038 113.24382858 -133.34147376 111.04978597 -133.046875 108.85546875 C-132.87865234 107.61587402 -132.71042969 106.3762793 -132.53710938 105.09912109 C-131.60032768 98.05458286 -130.80861457 90.9919847 -129.996521 83.93222046 C-129.68478829 81.22646311 -129.37031736 78.52103612 -129.05517578 75.81567383 C-127.95588837 66.36397778 -126.87464982 56.9104872 -125.81858826 47.45385742 C-125.28476704 42.67956958 -124.74577355 37.90587132 -124.20645142 33.13220215 C-123.94487366 30.80347317 -123.68588003 28.4744524 -123.42953491 26.1451416 C-123.07004057 22.87986904 -122.70191709 19.61567186 -122.33203125 16.3515625 C-122.22698273 15.37641693 -122.1219342 14.40127136 -122.01370239 13.39657593 C-121.50391607 8.96870487 -121.00356562 5.04981706 -119 1 C-117.88882813 1.2371875 -116.77765625 1.474375 -115.6328125 1.71875 C-107.24448683 3.46784109 -107.24448683 3.46784109 -99.171875 1.6328125 C-97.60000854 0.25876597 -96.07093276 -1.16536933 -94.58203125 -2.62890625 C-86.90380543 -9.679864 -76.12582261 -14.05828124 -66 -16 C-65.11441406 -16.18175781 -64.22882813 -16.36351563 -63.31640625 -16.55078125 C-39.52376864 -19.77357669 -19.12356601 -14.18331146 0 0 Z M-83.21875 28.73828125 C-92.82087723 42.83692702 -94.7808261 59.32285865 -95 76 C-98.63 76 -102.26 76 -106 76 C-107.3383587 84.33900421 -108.52011771 92.68965612 -109.625 101.0625 C-109.76010986 102.0738501 -109.89521973 103.0852002 -110.03442383 104.12719727 C-110.15970459 105.08682373 -110.28498535 106.0464502 -110.4140625 107.03515625 C-110.5270166 107.8950415 -110.6399707 108.75492676 -110.75634766 109.64086914 C-111.06848939 112.26785928 -111.06848939 112.26785928 -111 116 C-109.41954788 117.48994437 -109.41954788 117.48994437 -107.22265625 118.62890625 C-106.0003833 119.33672241 -106.0003833 119.33672241 -104.75341797 120.05883789 C-103.86541504 120.55504639 -102.97741211 121.05125488 -102.0625 121.5625 C-100.21075851 122.63285846 -98.36052023 123.70582131 -96.51171875 124.78125 C-95.58020996 125.32007813 -94.64870117 125.85890625 -93.68896484 126.4140625 C-89.84128473 128.68340425 -86.10500006 131.10603932 -82.375 133.5625 C-76.43343605 137.45298612 -70.43675845 141.23682697 -64.375 144.9375 C-63.27357666 145.61051147 -63.27357666 145.61051147 -62.14990234 146.29711914 C-57.80611162 148.93780478 -53.4247297 151.49729856 -49 154 C-48.1495813 153.45811035 -48.1495813 153.45811035 -47.28198242 152.90527344 C-37.30159433 146.54690566 -27.3187478 140.19261616 -17.3125 133.875 C-16.17615112 133.15642822 -16.17615112 133.15642822 -15.0168457 132.42333984 C-10.89646198 129.81975026 -6.76763088 127.23059766 -2.62890625 124.65625 C-1.75000732 124.10727051 -0.8711084 123.55829102 0.03442383 122.99267578 C1.72835017 121.9349097 3.42471156 120.88103063 5.1237793 119.83154297 C5.87957275 119.35861816 6.63536621 118.88569336 7.4140625 118.3984375 C8.0838916 117.98255371 8.7537207 117.56666992 9.44384766 117.13818359 C11.15710275 116.06739334 11.15710275 116.06739334 12 114 C11.73428461 111.14229197 11.4001688 108.33235074 11.00390625 105.4921875 C10.89151108 104.65156769 10.77911591 103.81094788 10.66331482 102.94485474 C10.30218238 100.25408301 9.9324422 97.56457326 9.5625 94.875 C9.31649046 93.05346188 9.07104054 91.23184809 8.82617188 89.41015625 C8.22394366 84.93919944 7.61399189 80.46935587 7 76 C3.04 76 -0.92 76 -5 76 C-4.95359375 74.9584375 -4.9071875 73.916875 -4.859375 72.84375 C-4.31519993 55.25841201 -7.89967378 37.22755775 -20.3125 23.9375 C-29.83031493 15.19930131 -40.96509017 12.29348453 -53.6015625 12.62890625 C-65.57482441 13.3574655 -75.77285169 19.54888914 -83.21875 28.73828125 Z " fill="#7EBF49" transform="translate(137,38)"/>
<path d="M0 0 C19.41420525 -0.58830925 35.66305548 3.89610476 51 16 C54.19405209 18.12936806 54.49187661 18.23418211 58.01171875 17.7578125 C58.76904297 17.66113281 59.52636719 17.56445312 60.30664062 17.46484375 C61.48516602 17.29662109 61.48516602 17.29662109 62.6875 17.125 C63.48478516 17.02058594 64.28207031 16.91617188 65.10351562 16.80859375 C67.07041111 16.54948177 69.03541767 16.27610346 71 16 C72.32576001 18.65152002 72.43639822 21.01818189 72.76855469 23.97045898 C72.91266785 25.23441498 73.05678101 26.49837097 73.20526123 27.80062866 C73.36084884 29.1991115 73.51638525 30.59760003 73.671875 31.99609375 C73.83601258 33.44654258 74.00050929 34.89695081 74.16534424 36.34732056 C74.60667499 40.23858517 75.04347748 44.13034515 75.47924805 48.02223587 C76.19894197 54.44232217 76.925609 60.86162638 77.65098572 67.28107262 C77.92202079 69.68097842 78.19251851 72.08094443 78.4630127 74.48091125 C79.48970421 83.57724344 80.54411971 92.66957959 81.640625 101.7578125 C81.76000427 102.75351761 81.87938354 103.74922272 82.00238037 104.77510071 C82.6533197 110.20622449 82.6533197 110.20622449 83.31970215 115.63546753 C83.95524064 120.75205582 84.51512792 125.86682514 85 131 C85.13929932 132.24418701 85.27859863 133.48837402 85.42211914 134.77026367 C85.97150066 142.76531432 85.97150066 142.76531432 83.45263672 145.96655273 C81.20329081 147.67005103 78.95979692 148.92443454 76.4375 150.1875 C74.67724545 151.17766365 72.9181422 152.16987663 71.16015625 153.1640625 C69.84362061 153.87804199 69.84362061 153.87804199 68.50048828 154.60644531 C64.98618958 156.56500975 61.68750292 158.78453253 58.375 161.0625 C57.15872117 161.88194624 55.94126491 162.6996475 54.72265625 163.515625 C54.11566895 163.92232422 53.50868164 164.32902344 52.88330078 164.74804688 C47.40626323 168.38899172 41.86104068 171.92713106 36.33447266 175.4921875 C32.0516414 178.2584253 27.77563059 181.03515031 23.5 183.8125 C22.68764893 184.33948486 21.87529785 184.86646973 21.03833008 185.40942383 C19.85920044 186.1754895 19.85920044 186.1754895 18.65625 186.95703125 C17.50189453 187.70267334 17.50189453 187.70267334 16.32421875 188.46337891 C14.72459167 189.52094748 13.14456893 190.60857909 11.58203125 191.72021484 C10.80214844 192.27016113 10.02226563 192.82010742 9.21875 193.38671875 C8.52716797 193.88776123 7.83558594 194.38880371 7.12304688 194.9050293 C4.58652722 196.21325039 2.81570243 196.20564464 0 196 C-0.14541967 191.77119589 -0.23411527 187.54303587 -0.3125 183.3125 C-0.35439453 182.11431641 -0.39628906 180.91613281 -0.43945312 179.68164062 C-0.56227253 170.86320713 -0.56227253 170.86320713 1.94140625 167.01953125 C5.98478303 164.34976651 10.052183 161.79544937 14.25 159.375 C20.77330916 155.53936296 27.22956982 151.64317252 33.5625 147.5 C39.86143091 143.38161365 46.19566711 139.32527473 52.5625 135.3125 C53.40304932 134.78269531 54.24359863 134.25289062 55.10961914 133.70703125 C57.07259817 132.47058671 59.03601628 131.23484785 61 130 C60.87882812 129.03175293 60.75765625 128.06350586 60.6328125 127.06591797 C60.18185281 123.45455428 59.7357261 119.84260685 59.29101562 116.23046875 C59.09831237 114.67073638 58.90431967 113.11116274 58.70898438 111.55175781 C58.42754884 109.30314532 58.15084014 107.05399241 57.875 104.8046875 C57.78750488 104.1138205 57.70000977 103.42295349 57.60986328 102.71115112 C57.12718996 98.73182763 57 95.04232167 57 91 C53.04 91 49.08 91 45 91 C44.97421875 89.9584375 44.9484375 88.916875 44.921875 87.84375 C44.32460895 70.80964203 41.37587916 52.16127218 28.9375 39.4375 C27.63926454 38.27552971 26.32806418 37.12775698 25 36 C24.071875 35.0925 23.14375 34.185 22.1875 33.25 C15.29247352 28.38292249 8.31242294 27.03905287 0 26 C0 17.42 0 8.84 0 0 Z " fill="#69A23D" transform="translate(87,23)"/>
<path d="M0 0 C6.6 0 13.2 0 20 0 C22.31 9.9 24.62 19.8 27 30 C29.08166451 26.87750324 29.90075278 24.38934933 30.9453125 20.80078125 C31.29980469 19.59228516 31.65429688 18.38378906 32.01953125 17.13867188 C32.38433594 15.87603516 32.74914062 14.61339844 33.125 13.3125 C33.50083142 12.02525311 33.87712827 10.73814202 34.25390625 9.45117188 C35.17385492 6.3021168 36.08752314 3.15122823 37 0 C42.61 0 48.22 0 54 0 C55.14427989 3.91302857 56.28524637 7.82679569 57.41796875 11.74316406 C57.80407414 13.07445025 58.19207669 14.40518777 58.58203125 15.73535156 C59.14304164 17.65022888 59.69661203 19.56728096 60.25 21.484375 C60.58515625 22.63647461 60.9203125 23.78857422 61.265625 24.97558594 C62 28 62 28 62 32 C62.66 32 63.32 32 64 32 C64.1134375 30.7521875 64.226875 29.504375 64.34375 28.21875 C64.9751314 22.54521012 66.20743957 17.05431683 67.5 11.5 C67.72558594 10.4996875 67.95117188 9.499375 68.18359375 8.46875 C69.86833113 1.13166887 69.86833113 1.13166887 71 0 C72.41570123 -0.08651611 73.835595 -0.10704904 75.25390625 -0.09765625 C76.53491211 -0.09282227 76.53491211 -0.09282227 77.84179688 -0.08789062 C79.18854492 -0.07532227 79.18854492 -0.07532227 80.5625 -0.0625 C81.46419922 -0.05798828 82.36589844 -0.05347656 83.29492188 -0.04882812 C85.53001314 -0.03700225 87.76497437 -0.0205222 90 0 C88.36601923 5.74391123 86.73019878 11.48729438 85.09277344 17.23022461 C84.53759707 19.17832754 83.98289764 21.12656647 83.42871094 23.07495117 C74.48506459 54.51493541 74.48506459 54.51493541 73 56 C71.58429877 56.08651611 70.164405 56.10704904 68.74609375 56.09765625 C67.9770874 56.09515869 67.20808105 56.09266113 66.41577148 56.09008789 C65.43294189 56.08098389 64.4501123 56.07187988 63.4375 56.0625 C60.323125 56.041875 57.20875 56.02125 54 56 C51.03 45.44 48.06 34.88 45 24 C42.03 34.56 39.06 45.12 36 56 C29.4 56 22.8 56 16 56 C13.91244179 48.84657372 11.82600851 41.6928217 9.74157715 34.53848362 C8.77374053 31.21677305 7.80540342 27.89521006 6.8359375 24.57397461 C5.72248417 20.75938091 4.61118068 16.94416262 3.5 13.12890625 C3.15001953 11.93100967 2.80003906 10.7331131 2.43945312 9.49891663 C2.11912109 8.3978508 1.79878906 7.29678497 1.46875 6.16235352 C1.18451172 5.18750504 0.90027344 4.21265656 0.60742188 3.20826721 C0 1 0 1 0 0 Z " fill="#66A039" transform="translate(593,94)"/>
<path d="M0 0 C0.91869873 -0.00128906 1.83739746 -0.00257812 2.78393555 -0.00390625 C10.81875035 0.11965228 17.31802133 1.69562289 24.9375 4.375 C24.9375 10.645 24.9375 16.915 24.9375 23.375 C20.37880202 22.2353255 17.30504129 20.2422213 13.375 17.75 C9.24884306 15.42242429 5.70673896 15.1962243 1 15.125 C-0.01964844 15.09921875 -1.03929687 15.0734375 -2.08984375 15.046875 C-5.48750286 15.42191227 -7.32480198 16.3657252 -10.0625 18.375 C-11.30151711 20.24592681 -11.30151711 20.24592681 -11.0625 22.375 C-7.16632665 27.9345826 -0.22505035 28.47016162 5.96484375 29.99804688 C13.97418734 32.09464395 21.40698755 35.05647988 25.9375 42.375 C28.88260705 49.38715964 28.29374941 56.7131266 25.6875 63.75 C21.39140593 70.19414111 15.61915283 74.92988711 8.07861328 76.96704102 C3.690715 77.80309324 -0.73402001 77.75618387 -5.1875 77.75 C-6.20416748 77.75056396 -7.22083496 77.75112793 -8.26831055 77.75170898 C-16.88913693 77.62599289 -24.27753695 76.26748153 -32.0625 72.375 C-32.0625 66.435 -32.0625 60.495 -32.0625 54.375 C-27.62128449 55.2632431 -24.87765579 56.32098395 -20.9375 58.375 C-13.17764354 62.4000627 -6.82444214 63.28493331 1.9375 62.375 C4.8715295 61.03832493 5.31775342 60.29054385 6.9375 57.375 C7.51656942 54.68653703 7.51656942 54.68653703 5.9375 52.375 C1.5801921 50.19634605 -2.8662391 49.17285995 -7.58398438 47.9987793 C-17.26800645 45.55745932 -24.13208636 42.6416372 -30.0625 34.375 C-32.16966865 28.05349406 -32.36789246 19.84320138 -30.00390625 13.5625 C-26.06494845 7.24308803 -20.86418364 3.71984559 -13.9375 1.26953125 C-9.22066547 0.18066522 -4.825389 -0.00701174 0 0 Z " fill="#66A039" transform="translate(405.0625,73.625)"/>
<path d="M0 0 C10.66072034 8.06604766 14.29821474 17.96258146 16.6875 30.72265625 C17.48904635 36.73128521 17.46686119 42.61802869 17.21484375 48.67578125 C13.88346753 49.67598998 10.84717006 49.80824058 7.37646484 49.82104492 C5.61476456 49.8306147 5.61476456 49.8306147 3.81747437 49.84037781 C1.92202377 49.84204704 1.92202377 49.84204704 -0.01171875 49.84375 C-1.31088226 49.8470784 -2.61004578 49.8504068 -3.94857788 49.85383606 C-6.69391715 49.85981409 -9.43922499 49.86167715 -12.18457031 49.86108398 C-15.70653209 49.86098205 -19.22829369 49.87467222 -22.7502079 49.89185619 C-26.10821489 49.90562234 -29.46618386 49.90506386 -32.82421875 49.90625 C-34.72574203 49.91702827 -34.72574203 49.91702827 -36.66567993 49.92802429 C-37.83384247 49.92494766 -39.002005 49.92187103 -40.20556641 49.91870117 C-41.75300034 49.9208387 -41.75300034 49.9208387 -43.33169556 49.92301941 C-45.78515625 49.67578125 -45.78515625 49.67578125 -47.78515625 47.67578125 C-49.57334403 34.46177026 -46.59651778 18.50140935 -38.78515625 7.67578125 C-29.5243894 -4.16112218 -13.31612907 -7.86560036 0 0 Z " fill="#67A239" transform="translate(102.78515625,65.32421875)"/>
<path d="M0 0 C6.414375 -0.0825 12.82875 -0.165 19.4375 -0.25 C21.44384521 -0.28641602 23.45019043 -0.32283203 25.51733398 -0.36035156 C27.13524308 -0.37205091 28.75316409 -0.38223977 30.37109375 -0.390625 C31.59753601 -0.4213208 31.59753601 -0.4213208 32.84875488 -0.45263672 C40.26821879 -0.45705899 46.19186307 1.61918826 51.875 6.4375 C56.97885995 12.59215464 58.31716094 17.36170969 57.8125 25.3125 C57.16371187 32.24593464 56.04963782 37.07791357 50.9453125 41.96875 C41.27179563 49.91601639 32.15687706 50 20 50 C20 57.92 20 65.84 20 74 C13.4 74 6.8 74 0 74 C0 49.58 0 25.16 0 0 Z M20 15 C20 21.27 20 27.54 20 34 C21.7325 34.04125 23.465 34.0825 25.25 34.125 C26.22453125 34.14820312 27.1990625 34.17140625 28.203125 34.1953125 C31.08170091 33.99429463 32.61784582 33.59161629 35 32 C37.2012803 28.69807955 37.76868654 26.93232882 38 23 C36.85842699 19.87569492 36.0632559 17.70567986 33.24609375 15.8359375 C30.46058726 14.79924465 28.21428116 14.80442188 25.25 14.875 C22.65125 14.936875 22.65125 14.936875 20 15 Z " fill="#262425" transform="translate(193,76)"/>
<path d="M0 0 C1.02480469 -0.02449219 2.04960937 -0.04898438 3.10546875 -0.07421875 C11.119596 -0.10476816 18.69601805 1.0317426 24.625 6.8125 C28.15878248 12.84937841 28.39605704 17.61544318 28.3203125 24.48828125 C28.3174826 25.45783249 28.31465271 26.42738373 28.31173706 27.42631531 C28.30056991 30.51350405 28.27547152 33.60039939 28.25 36.6875 C28.23996573 38.78450101 28.23084066 40.88150658 28.22265625 42.97851562 C28.20064188 48.1107896 28.16613571 53.2428451 28.125 58.375 C22.185 58.375 16.245 58.375 10.125 58.375 C10.125 56.725 10.125 55.075 10.125 53.375 C9.4959375 53.79652344 8.866875 54.21804687 8.21875 54.65234375 C1.35377321 59.04634245 -3.68617658 61.31705993 -11.9375 59.8125 C-16.40851257 58.50735235 -19.89968781 55.93733325 -22.875 52.375 C-25.92414637 46.25644716 -25.88962318 39.41886953 -23.75 33 C-18.78244258 26.04541962 -12.7073451 23.37793955 -4.5625 21.6875 C0.34060469 21.27198265 5.20776477 21.29497266 10.125 21.375 C8.99334903 17.72863017 8.99334903 17.72863017 6.37890625 15.08203125 C-2.28160376 12.36530281 -11.52764866 14.70384757 -19.875 17.375 C-19.875 12.425 -19.875 7.475 -19.875 2.375 C-13.18128232 0.3684899 -6.96752089 0.00869853 0 0 Z M-5.875 36.375 C-6.10418242 40.39157143 -6.10418242 40.39157143 -5.875 44.375 C-3.49275072 46.75724928 -2.8247963 46.69517149 0.4375 46.75 C3.59512201 46.64814123 5.24205089 46.32244654 8.1875 45 C11.12765679 41.01656176 10.53621401 37.16335866 10.125 32.375 C4.46812384 32.07726968 -1.53729383 32.03729383 -5.875 36.375 Z " fill="#262425" transform="translate(278.875,91.625)"/>
<path d="M0 0 C1.14662109 -0.02416992 1.14662109 -0.02416992 2.31640625 -0.04882812 C10.30159992 -0.05560673 16.67158009 2.1516635 22.5859375 7.56640625 C29.7884033 15.73773166 29.75968016 25.94262879 29.30859375 36.26123047 C28.67707244 43.31713748 25.24542152 49.52601902 20.125 54.3125 C11.78625338 60.86189058 1.21218541 60.49950259 -8.875 59.3125 C-16.25371134 57.53631853 -20.46714427 53.40831451 -25.0625 47.5 C-30.09295774 38.65333294 -30.29388926 27.65222362 -27.6875 17.9375 C-25.20242259 10.78419307 -21.58225295 6.00833326 -14.875 2.3125 C-9.82604739 0.23307952 -5.37188412 -0.02242022 0 0 Z M-6.25 15 C-11.02679307 21.79774398 -10.58778885 29.29362546 -9.875 37.3125 C-8.89416207 40.53723603 -7.79455953 42.48961833 -5.875 45.3125 C-2.64200668 46.92899666 0.62965443 46.88275791 4.125 46.3125 C7.81229765 43.82758202 9.35485895 41.38383925 10.5 37.1875 C11.80933245 29.71807009 11.41469524 21.74704287 7.125 15.3125 C2.70232201 12.364048 -1.90263137 11.91108018 -6.25 15 Z " fill="#66A039" transform="translate(561.875,91.6875)"/>
<path d="M0 0 C6.6 0 13.2 0 20 0 C23.3 9.57 26.6 19.14 30 29 C31.9866461 26.02003085 32.85509974 23.67172886 33.91015625 20.2734375 C34.26013672 19.1596875 34.61011719 18.0459375 34.97070312 16.8984375 C35.33099609 15.73570313 35.69128906 14.57296875 36.0625 13.375 C36.77980825 11.06945704 37.49971721 8.76472105 38.22265625 6.4609375 C38.53984619 5.43790527 38.85703613 4.41487305 39.18383789 3.36083984 C40 1 40 1 41 0 C42.41570123 -0.08651611 43.835595 -0.10704904 45.25390625 -0.09765625 C46.0229126 -0.09515869 46.79191895 -0.09266113 47.58422852 -0.09008789 C48.56705811 -0.08098389 49.5498877 -0.07187988 50.5625 -0.0625 C52.24601009 -0.05101141 53.92952267 -0.0398852 55.61303711 -0.02905273 C56.44105331 -0.02356918 57.26906952 -0.01808563 58.12217712 -0.01243591 C59.05169945 -0.00628014 59.05169945 -0.00628014 60 0 C54.85849138 14.91554018 49.46578482 29.73231318 43.98193359 44.52514648 C43.06492603 47.00014297 42.14919995 49.47556432 41.23583984 51.9519043 C39.90222131 55.56663793 38.56493802 59.17999412 37.2265625 62.79296875 C36.61103012 64.46289131 36.61103012 64.46289131 35.98306274 66.16654968 C35.60531708 67.18304092 35.22757141 68.19953217 34.83837891 69.24682617 C34.5064151 70.14358566 34.17445129 71.04034515 33.83242798 71.96427917 C33 74 33 74 32 75 C30.5112814 75.08669432 29.018555 75.10703494 27.52734375 75.09765625 C26.62822266 75.09443359 25.72910156 75.09121094 24.80273438 75.08789062 C23.38444336 75.07532227 23.38444336 75.07532227 21.9375 75.0625 C20.98810547 75.05798828 20.03871094 75.05347656 19.06054688 75.04882812 C16.70696935 75.0370011 14.35351523 75.02052025 12 75 C12.42152344 73.9378125 12.84304688 72.875625 13.27734375 71.78125 C13.83120566 70.35435153 14.38456421 68.9272576 14.9375 67.5 C15.21529297 66.80390625 15.49308594 66.1078125 15.77929688 65.390625 C16.18051758 64.34648437 16.18051758 64.34648437 16.58984375 63.28125 C16.83597412 62.65283203 17.08210449 62.02441406 17.33569336 61.37695312 C19.76478334 52.68543529 18.25398727 47.57702657 14.94140625 39.31640625 C14.51826645 38.22029526 14.09512665 37.12418427 13.65916443 35.99485779 C12.31014775 32.51070189 10.93701417 29.03666574 9.5625 25.5625 C8.1971926 22.06133668 6.83675017 18.55830945 5.47654724 15.05516052 C4.62936958 12.87894104 3.7781129 10.70430445 2.92250061 8.53138733 C2.34706764 7.06867653 2.34706764 7.06867653 1.76000977 5.57641602 C1.4194606 4.71452164 1.07891144 3.85262726 0.7280426 2.96461487 C0 1 0 1 0 0 Z " fill="#262425" transform="translate(311,94)"/>
<path d="M0 0 C0.83764893 -0.00128906 1.67529785 -0.00257812 2.53833008 -0.00390625 C8.76593601 0.10293249 13.22408399 1.11406958 18.625 4.375 C18.625 9.655 18.625 14.935 18.625 20.375 C14.97398117 19.46224529 13.86969687 18.94063413 11.0625 16.8125 C6.10605476 13.61958397 1.36519207 13.40330604 -4.375 14.375 C-8.57330907 16.68835398 -9.90669099 18.91900135 -11.375 23.375 C-12.04056165 29.79723774 -12.26958174 35.950404 -8.375 41.375 C-4.4423259 44.97058775 -1.27179416 44.86545246 3.87109375 44.7421875 C7.91592096 44.20287721 10.23639274 42.61148079 13.625 40.375 C16.1 39.88 16.1 39.88 18.625 39.375 C18.625 44.655 18.625 49.935 18.625 55.375 C6.64170027 59.82041764 -5.66924638 61.01777047 -17.75 55.75 C-24.2518613 52.02483211 -28.93649214 46.1360003 -30.94140625 38.92578125 C-32.66238845 28.8014445 -31.45063738 20.18453728 -26.6875 11.1875 C-19.43510916 2.36702466 -11.13174611 -0.01768874 0 0 Z " fill="#66A039" transform="translate(467.375,91.625)"/>
<path d="M0 0 C1.7578125 1.2890625 1.7578125 1.2890625 2.7578125 3.2890625 C2.0978125 3.0003125 1.4378125 2.7115625 0.7578125 2.4140625 C-4.8096529 0.32626298 -10.37601131 -0.73324147 -16.2421875 -1.7109375 C-16.2421875 13.7990625 -16.2421875 29.3090625 -16.2421875 45.2890625 C-25.8121875 45.2890625 -35.3821875 45.2890625 -45.2421875 45.2890625 C-45.2421875 34.0390625 -45.2421875 34.0390625 -44.2421875 28.6640625 C-44.0565625 27.64054687 -43.8709375 26.61703125 -43.6796875 25.5625 C-43.5353125 24.81226562 -43.3909375 24.06203125 -43.2421875 23.2890625 C-48.94306463 28.98993963 -45.5437572 39.2571141 -46.2421875 47.2890625 C-26.1121875 47.2890625 -5.9821875 47.2890625 14.7578125 47.2890625 C14.4278125 43.6590625 14.0978125 40.0290625 13.7578125 36.2890625 C13.6981121 33.8938825 13.66955137 31.49734791 13.6953125 29.1015625 C13.70433594 27.99425781 13.71335938 26.88695312 13.72265625 25.74609375 C13.73425781 24.93527344 13.74585938 24.12445313 13.7578125 23.2890625 C14.0878125 23.2890625 14.4178125 23.2890625 14.7578125 23.2890625 C16.67739512 31.68723646 16.98369274 39.69306451 16.7578125 48.2890625 C13.42643628 49.28927123 10.39013881 49.42152183 6.91943359 49.43432617 C5.15773331 49.44389595 5.15773331 49.44389595 3.36044312 49.45365906 C1.46499252 49.45532829 1.46499252 49.45532829 -0.46875 49.45703125 C-1.76791351 49.46035965 -3.06707703 49.46368805 -4.40560913 49.46711731 C-7.1509484 49.47309534 -9.89625624 49.4749584 -12.64160156 49.47436523 C-16.16356334 49.4742633 -19.68532494 49.48795347 -23.20723915 49.50513744 C-26.56524614 49.51890359 -29.92321511 49.51834511 -33.28125 49.51953125 C-35.18277328 49.53030952 -35.18277328 49.53030952 -37.12271118 49.54130554 C-38.29087372 49.53822891 -39.45903625 49.53515228 -40.66259766 49.53198242 C-42.21003159 49.53411995 -42.21003159 49.53411995 -43.78872681 49.53630066 C-46.2421875 49.2890625 -46.2421875 49.2890625 -48.2421875 47.2890625 C-50.03037528 34.07505151 -47.05354903 18.1146906 -39.2421875 7.2890625 C-29.56403722 -5.08133102 -13.73662942 -7.75235522 0 0 Z " fill="#7CBE47" transform="translate(103.2421875,65.7109375)"/>
<path d="M0 0 C5.94 0 11.88 0 18 0 C18.33 1.98 18.66 3.96 19 6 C19.7425 5.38125 20.485 4.7625 21.25 4.125 C25.40153359 0.91699677 27.96457172 -0.26409022 33.25 -0.125 C35.60125 -0.063125 35.60125 -0.063125 38 0 C38 5.28 38 10.56 38 16 C34.54947917 15.96744792 31.09895833 15.93489583 27.6484375 15.90234375 C23.58658347 15.92712372 23.58658347 15.92712372 18 17 C18 29.87 18 42.74 18 56 C12.06 56 6.12 56 0 56 C0 37.52 0 19.04 0 0 Z " fill="#66A039" transform="translate(493,94)"/>
<path d="M0 0 C2.375 1.5625 2.375 1.5625 4 4 C4.71901545 7.93438794 4.56125308 10.97953986 2.625 14.5 C1 16 1 16 -1 16 C-1 19.63 -1 23.26 -1 27 C-3.31 27 -5.62 27 -8 27 C-8 23.37 -8 19.74 -8 16 C-9.32 15.34 -10.64 14.68 -12 14 C-13.56935594 10.86128812 -13.35201103 8.46144178 -13 5 C-8.77977108 -0.10869817 -6.46756826 -1.68156775 0 0 Z " fill="#95C272" transform="translate(92,137)"/>
<path d="M0 0 C1.20135171 3.60405514 0.74248461 5.57798693 0.125 9.3125 C-1.07691834 16.60018798 -1.46451543 23.50321605 -2 31 C18.13 31 38.26 31 59 31 C58.505 25.555 58.505 25.555 58 20 C57.9402996 17.60482 57.91173887 15.20828541 57.9375 12.8125 C57.94652344 11.70519531 57.95554688 10.59789063 57.96484375 9.45703125 C57.97644531 8.64621094 57.98804688 7.83539063 58 7 C58.33 7 58.66 7 59 7 C60.91958262 15.39817396 61.22588024 23.40400201 61 32 C57.66862378 33.00020873 54.63232631 33.13245933 51.16162109 33.14526367 C49.39992081 33.15483345 49.39992081 33.15483345 47.60263062 33.16459656 C45.70718002 33.16626579 45.70718002 33.16626579 43.7734375 33.16796875 C42.47427399 33.17129715 41.17511047 33.17462555 39.83657837 33.17805481 C37.0912391 33.18403284 34.34593126 33.1858959 31.60058594 33.18530273 C28.07862416 33.1852008 24.55686256 33.19889097 21.03494835 33.21607494 C17.67694136 33.22984109 14.31897239 33.22928261 10.9609375 33.23046875 C9.05941422 33.24124702 9.05941422 33.24124702 7.11947632 33.25224304 C5.95131378 33.24916641 4.78315125 33.24608978 3.57958984 33.24291992 C2.03215591 33.24505745 2.03215591 33.24505745 0.45346069 33.24723816 C-2 33 -2 33 -4 31 C-5.21234768 22.04122296 -4.12032828 8.24065656 0 0 Z " fill="#BFDFA4" transform="translate(59,82)"/>
<path d="M0 0 C0.33 0 0.66 0 1 0 C3.16436898 15.55422727 5.20373351 31.12118256 6.98254395 46.7244873 C7.15866539 48.26408293 7.3372325 49.80340106 7.51843262 51.34240723 C8.60241447 60.58581612 9.25511191 69.67727961 9 79 C8.34 78.67 7.68 78.34 7 78 C7.02320313 77.36835938 7.04640625 76.73671875 7.0703125 76.0859375 C7.20186583 69.56465108 6.58269535 63.42145965 5.57421875 56.984375 C4.73078425 51.42257599 4.22845047 45.81949788 3.69775391 40.22070312 C3.37018658 35.97687775 3.37018658 35.97687775 2 32 C1.78065395 30.53811353 1.60942435 29.06881946 1.46484375 27.59765625 C1.3776709 26.71166748 1.29049805 25.82567871 1.20068359 24.9128418 C1.07040771 23.50192261 1.07040771 23.50192261 0.9375 22.0625 C0.84807129 21.1135083 0.75864258 20.1645166 0.66650391 19.18676758 C0.09035512 12.7794444 -0.27128011 6.43536707 0 0 Z " fill="#B5D2A0" transform="translate(163,88)"/>
<path d="M0 0 C0.99 0.33 1.98 0.66 3 1 C2.67 1.33 2.34 1.66 2 2 C1.77210574 3.77690109 1.60510212 5.56169968 1.46484375 7.34765625 C1.33432617 8.96704102 1.33432617 8.96704102 1.20117188 10.61914062 C1.0706543 12.32360352 1.0706543 12.32360352 0.9375 14.0625 C0.80118164 15.77276367 0.80118164 15.77276367 0.66210938 17.51757812 C0.43735454 20.34475741 0.21684289 23.17220464 0 26 C-0.33 26 -0.66 26 -1 26 C-1 22.7 -1 19.4 -1 16 C-2.32 15.34 -3.64 14.68 -5 14 C-5.66 13.67 -6.32 13.34 -7 13 C-7.3125 9.8125 -7.3125 9.8125 -7 6 C-4.8272578 3.36983839 -3.05326212 1.52663106 0 0 Z " fill="#85C352" transform="translate(86,136)"/>
<path d="M0 0 C5 1 5 1 7 3 C7.125 6.625 7.125 6.625 7 10 C6.36578125 10.21398437 5.7315625 10.42796875 5.078125 10.6484375 C2.74386889 11.85438953 2.74386889 11.85438953 2.171875 14.6015625 C2.03265625 15.59929687 1.8934375 16.59703125 1.75 17.625 C1.60046875 18.62789062 1.4509375 19.63078125 1.296875 20.6640625 C1.19890625 21.43492187 1.1009375 22.20578125 1 23 C0.34 22.67 -0.32 22.34 -1 22 C-0.67 14.74 -0.34 7.48 0 0 Z " fill="#5F9B31" transform="translate(88,139)"/>
<path d="M0 0 C0.33 0 0.66 0 1 0 C1.98586958 6.53138599 2 12.22645857 2 19 C-8.23 19 -18.46 19 -29 19 C-29 18.34 -29 17.68 -29 17 C-19.43 17 -9.86 17 0 17 C0 11.39 0 5.78 0 0 Z " fill="#5C9A2D" transform="translate(116,94)"/>
<path d="M0 0 C0.33 0 0.66 0 1 0 C2.91958262 8.39817396 3.22588024 16.40400201 3 25 C-0.63683183 26.16898166 -3.93834538 26.02874952 -7.734375 25.87890625 C-9.02988281 25.83056641 -10.32539062 25.78222656 -11.66015625 25.73242188 C-13.02344263 25.67590496 -14.38672383 25.61926274 -15.75 25.5625 C-17.12888612 25.50924178 -18.50779235 25.45650166 -19.88671875 25.40429688 C-23.25804533 25.27463047 -26.62907518 25.13966346 -30 25 C-30 24.67 -30 24.34 -30 24 C-19.77 24 -9.54 24 1 24 C0.67 20.37 0.34 16.74 0 13 C-0.0597004 10.60482 -0.08826113 8.20828541 -0.0625 5.8125 C-0.05347656 4.70519531 -0.04445313 3.59789063 -0.03515625 2.45703125 C-0.02355469 1.64621094 -0.01195313 0.83539063 0 0 Z " fill="#A6C88C" transform="translate(117,89)"/>
<path d="M0 0 C4.29887694 4.29887694 4.125 12.34776171 4.125 18.1875 C4.08375 19.445625 4.0425 20.70375 4 22 C6.64 22 9.28 22 12 22 C12.33 22.66 12.66 23.32 13 24 C9.37 24 5.74 24 2 24 C1.66252452 21.12543208 1.32989537 18.25043941 1 15.375 C0.90460938 14.56675781 0.80921875 13.75851563 0.7109375 12.92578125 C0.21746383 8.59026261 -0.11320717 4.37262689 0 0 Z " fill="#5A992A" transform="translate(132,88)"/>
<path d="M0 0 C0.495 0.99 0.495 0.99 1 2 C-0.60433809 1.52140759 -2.20846416 1.04210442 -3.8125 0.5625 C-5.15248047 0.16224609 -5.15248047 0.16224609 -6.51953125 -0.24609375 C-8.35473055 -0.80387873 -10.18033726 -1.39344575 -12 -2 C-14.76210374 -2.12320587 -17.48796459 -2.18513929 -20.25 -2.1875 C-21.35794922 -2.20586914 -21.35794922 -2.20586914 -22.48828125 -2.22460938 C-27.3709987 -2.23752662 -31.36741357 -1.55032324 -36 0 C-36 -0.66 -36 -1.32 -36 -2 C-25.70214749 -8.86523501 -10.18675838 -5.43953117 0 0 Z " fill="#ADCF93" transform="translate(108,54)"/>
<path d="M0 0 C2.71224618 1.61268692 5.37352812 3.24901874 8 5 C10.75387627 5.02477359 10.75387627 5.02477359 13.6875 4.625 C14.68136719 4.51414062 15.67523438 4.40328125 16.69921875 4.2890625 C17.45847656 4.19367187 18.21773437 4.09828125 19 4 C19 4.66 19 5.32 19 6 C17.35 6.66 15.7 7.32 14 8 C14 8.33 14 8.66 14 9 C9.99973882 9.59578358 8.01367988 9.63996562 4.53125 7.44140625 C2.29667053 5.68414992 0.1245113 3.88845449 -2 2 C-1.34 1.34 -0.68 0.68 0 0 Z " fill="#89B666" transform="translate(133,36)"/>
<path d="M0 0 C0.33 0 0.66 0 1 0 C0.67 6.93 0.34 13.86 0 21 C-3.63 21 -7.26 21 -11 21 C-10.67 20.34 -10.34 19.68 -10 19 C-7.36 19 -4.72 19 -2 19 C-2.01160156 18.28714844 -2.02320313 17.57429688 -2.03515625 16.83984375 C-2.0859624 11.44713401 -2.03709023 6.30068338 -1 1 C-0.67 0.67 -0.34 0.34 0 0 Z " fill="#6EB733" transform="translate(41,91)"/>
<path d="M0 0 C-0.08984375 1.734375 -0.08984375 1.734375 -1 4 C-3.17752194 5.58470389 -5.23776911 6.92718158 -7.5625 8.25 C-8.48579102 8.79527344 -8.48579102 8.79527344 -9.42773438 9.3515625 C-10.94526033 10.2456088 -12.47180439 11.12431628 -14 12 C-14 9 -14 9 -12.5 7.125 C-4.11764706 0 -4.11764706 0 0 0 Z " fill="#7FB05A" transform="translate(120,172)"/>
<path d="M0 0 C5.41490891 0.43319271 8.75792422 1.56593865 13 5 C13.33 5.99 13.66 6.98 14 8 C15.65 8.33 17.3 8.66 19 9 C19.33 10.32 19.66 11.64 20 13 C15.22123889 11.37614914 11.33331323 8.74237077 7.1875 5.9375 C6.49462891 5.47794922 5.80175781 5.01839844 5.08789062 4.54492188 C3.37141668 3.39327778 1.68286015 2.20022856 0 1 C0 0.67 0 0.34 0 0 Z " fill="#A2D17B" transform="translate(4,166)"/>
<path d="M0 0 C-3.71750779 4.20240011 -8.31660979 6.99782679 -13 10 C-13.66 9.67 -14.32 9.34 -15 9 C-12.55938505 3.14252412 -6.47770748 -1.01214179 0 0 Z " fill="#8BB869" transform="translate(122,198)"/>
<path d="M0 0 C7.99976044 -0.20483028 15.26134446 -0.13480153 23 2 C23 2.66 23 3.32 23 4 C20.1038504 3.6902353 17.20810424 3.37728812 14.3125 3.0625 C13.49587891 2.97548828 12.67925781 2.88847656 11.83789062 2.79882812 C7.84549781 2.36241272 3.92347148 1.88697624 0 1 C0 0.67 0 0.34 0 0 Z " fill="#5A9A2A" transform="translate(87,23)"/>
<path d="M0 0 C0.66 0 1.32 0 2 0 C5.21674047 3.21674047 6.16245053 4.53956212 7 9 C7.65471866 10.65914649 8.34311667 12.30535073 9.0625 13.9375 C10.65971557 17.79503507 11.44547952 20.76794458 11 25 C9.24316199 21.67973734 7.93402063 18.26851404 6.625 14.75 C4.68654941 9.64790601 2.55223507 4.82088847 0 0 Z " fill="#B8D3A3" transform="translate(120,66)"/>
<path d="M0 0 C0.33 0.99 0.66 1.98 1 3 C-0.6396875 3.6496875 -0.6396875 3.6496875 -2.3125 4.3125 C-4.64815672 5.2868558 -5.83359769 5.80586397 -7.5 7.75 C-9 9 -9 9 -12.4375 8.75 C-17.72727273 7.63636364 -17.72727273 7.63636364 -20 7 C-19.67 6.34 -19.34 5.68 -19 5 C-18.35933594 5.14179687 -17.71867187 5.28359375 -17.05859375 5.4296875 C-11.76637676 6.42088363 -11.76637676 6.42088363 -6.84765625 4.73046875 C-4.99308672 3.09978736 -4.99308672 3.09978736 -3.375 1.34765625 C-2 0 -2 0 0 0 Z " fill="#B0D88F" transform="translate(44,35)"/>
<path d="M0 0 C3.15835107 1.39750048 5.32272825 3.05198234 7.75 5.5 C8.67039062 6.41265625 8.67039062 6.41265625 9.609375 7.34375 C11 9 11 9 11 11 C7.20450741 10.45418801 5.69020705 8.94590705 3.25 6.0625 C2.63640625 5.35222656 2.0228125 4.64195313 1.390625 3.91015625 C0 2 0 2 0 0 Z " fill="#7FB059" transform="translate(111,55)"/>
<path d="M0 0 C7.74468085 0.74468085 7.74468085 0.74468085 11 4 C11 4.66 11 5.32 11 6 C11.99 6.33 12.98 6.66 14 7 C12.328125 7.7109375 12.328125 7.7109375 10 8 C7.421875 6.6015625 7.421875 6.6015625 4.75 4.625 C3.85796875 3.97789062 2.9659375 3.33078125 2.046875 2.6640625 C1.37140625 2.11492187 0.6959375 1.56578125 0 1 C0 0.67 0 0.34 0 0 Z " fill="#9BCD73" transform="translate(76,213)"/>
<path d="M0 0 C0.78375 0.04125 1.5675 0.0825 2.375 0.125 C-0.56759079 3.26980675 -3.62560534 5.61730126 -7.25 7.9375 C-8.21164063 8.56269531 -9.17328125 9.18789062 -10.1640625 9.83203125 C-10.97617188 10.25871094 -11.78828125 10.68539062 -12.625 11.125 C-13.285 10.795 -13.945 10.465 -14.625 10.125 C-10.875 7.125 -10.875 7.125 -8.625 7.125 C-8.625 6.135 -8.625 5.145 -8.625 4.125 C-7.305 4.125 -5.985 4.125 -4.625 4.125 C-4.625 3.465 -4.625 2.805 -4.625 2.125 C-2.625 0.125 -2.625 0.125 0 0 Z " fill="#98C07B" transform="translate(159.625,171.875)"/>
<path d="M0 0 C0.33 0 0.66 0 1 0 C1.85298376 3.67387495 2.10789471 7.0447393 2.0625 10.8125 C2.05347656 11.78832031 2.04445312 12.76414063 2.03515625 13.76953125 C2.02355469 14.50558594 2.01195312 15.24164063 2 16 C0.02 16.99 0.02 16.99 -2 18 C-1.505 16.515 -1.505 16.515 -1 15 C-0.95542327 12.81295424 -0.9609001 10.62465053 -1 8.4375 C-1.11087191 2.22174381 -1.11087191 2.22174381 0 0 Z " fill="#629E34" transform="translate(169,150)"/>
<path d="M0 0 C1.65 0 3.3 0 5 0 C1.97704729 3.25548753 -1.20462309 5.68977058 -5 8 C-5.66 8 -6.32 8 -7 8 C-6.67 6.68 -6.34 5.36 -6 4 C-4.02 3.67 -2.04 3.34 0 3 C0 2.01 0 1.02 0 0 Z " fill="#94BD75" transform="translate(134,187)"/>
<path d="M0 0 C1.20366211 0.00966797 1.20366211 0.00966797 2.43164062 0.01953125 C3.26501953 0.03628906 4.09839844 0.05304687 4.95703125 0.0703125 C6.22450195 0.08384766 6.22450195 0.08384766 7.51757812 0.09765625 C9.60168368 0.12120547 11.68564342 0.15707603 13.76953125 0.1953125 C13.76953125 0.5253125 13.76953125 0.8553125 13.76953125 1.1953125 C12.84011719 1.24429688 11.91070312 1.29328125 10.953125 1.34375 C1.69292192 1.89208396 1.69292192 1.89208396 -7.23046875 4.1953125 C-7.23046875 3.5353125 -7.23046875 2.8753125 -7.23046875 2.1953125 C-4.12961304 0.12807536 -3.50115194 -0.04966173 0 0 Z " fill="#CFE6BB" transform="translate(79.23046875,49.8046875)"/>
<path d="M0 0 C4.77609498 1.64178265 8.79382904 4.26546702 13 7 C11 8 11 8 8.1875 7.375 C4.56509068 5.81239206 2.57636928 3.95524712 0 1 C0 0.67 0 0.34 0 0 Z " fill="#AAD486" transform="translate(26,154)"/>
<path d="M0 0 C-2.77280706 3.08089673 -5.06326356 4.68775452 -9 6 C-8.6875 4.125 -8.6875 4.125 -8 2 C-4.77208445 -0.1519437 -3.71599191 -0.20086443 0 0 Z " fill="#89B767" transform="translate(99,213)"/>
<path d="M0 0 C-1.43160268 1.00842453 -2.87051453 2.00647891 -4.3125 3 C-5.51326172 3.8353125 -5.51326172 3.8353125 -6.73828125 4.6875 C-9 6 -9 6 -12 6 C-10.29620573 2.1915187 -9.41878493 1.16163629 -5.4375 -0.375 C-2 -1 -2 -1 0 0 Z " fill="#ADD68B" transform="translate(71,54)"/>
<path d="M0 0 C0.99 0 1.98 0 3 0 C1.18690997 3.77727089 -0.9073259 7.37269822 -3 11 C-3.33 10.34 -3.66 9.68 -4 9 C-3.22265625 6.8359375 -3.22265625 6.8359375 -2.0625 4.375 C-1.68222656 3.55773437 -1.30195312 2.74046875 -0.91015625 1.8984375 C-0.60980469 1.27195312 -0.30945312 0.64546875 0 0 Z " fill="#B0D78F" transform="translate(53,64)"/>
<path d="M0 0 C1.98 0.99 1.98 0.99 4 2 C3.34 2 2.68 2 2 2 C1.67 5.3 1.34 8.6 1 12 C0.67 12 0.34 12 0 12 C0 8.04 0 4.08 0 0 Z " fill="#70B936" transform="translate(18,41)"/>
<path d="M0 0 C3.68754757 0.49831724 5.60490662 1.10067643 8 4 C7.67 4.66 7.34 5.32 7 6 C1.125 2.25 1.125 2.25 0 0 Z " fill="#87B563" transform="translate(103,69)"/>
<path d="M0 0 C-0.33 1.32 -0.66 2.64 -1 4 C-3.31 4.33 -5.62 4.66 -8 5 C-3.16129032 0 -3.16129032 0 0 0 Z " fill="#ABD588" transform="translate(52,30)"/>
<path d="M0 0 C3.37503669 1.1858237 5.64722731 2.27573689 8 5 C5.69 4.67 3.38 4.34 1 4 C0.67 2.68 0.34 1.36 0 0 Z " fill="#AAD486" transform="translate(47,167)"/>
<path d="M0 0 C2.6875 -0.3125 2.6875 -0.3125 5 0 C2.47211993 2.79872437 0.79588866 4.45773019 -3 5 C-1.8125 2.5 -1.8125 2.5 0 0 Z " fill="#9FC482" transform="translate(165,167)"/>
</svg>
