<?xml version="1.0" encoding="UTF-8"?>
<svg version="1.1" xmlns="http://www.w3.org/2000/svg" width="3852" height="679">
<path d="M0 0 C12.91499961 12.88004698 23.09134756 27.2759409 31.44335938 43.43945312 C31.82234375 44.16616211 32.20132812 44.89287109 32.59179688 45.64160156 C57.26157198 93.51172725 60.13225107 153.3586524 44.40844727 204.57348633 C35.70639942 231.08368535 21.67873724 255.20559763 2.44335938 275.43945312 C1.9420752 275.97328613 1.44079102 276.50711914 0.92431641 277.05712891 C-21.19288093 300.48350563 -50.0966029 317.1327777 -81.55664062 324.43945312 C-82.37245605 324.63410156 -83.18827148 324.82875 -84.02880859 325.02929688 C-108.28085808 330.56641842 -137.27317081 331.50626522 -161.55664062 325.43945312 C-162.81420166 325.13346191 -162.81420166 325.13346191 -164.09716797 324.82128906 C-183.34484091 320.02072587 -201.70461835 313.0792978 -216.76171875 299.7890625 C-217.83105652 298.84710022 -217.83105652 298.84710022 -218.92199707 297.8861084 C-219.73114563 297.17001404 -219.73114563 297.17001404 -220.55664062 296.43945312 C-220.55810719 297.27213715 -220.55957375 298.10482117 -220.56108475 298.96273804 C-220.5981577 319.23613908 -220.65717897 339.509373 -220.74054337 359.78263855 C-220.78033033 369.58670318 -220.81272458 379.39068759 -220.82763672 389.19482422 C-220.840655 397.74143263 -220.86762419 406.28786449 -220.91125369 414.83437347 C-220.93386452 419.3585268 -220.94955153 423.8824624 -220.94852448 428.40667725 C-220.94777764 432.66837222 -220.96573772 436.92958596 -220.99780846 441.19115639 C-221.00630034 442.75195431 -221.0080622 444.31280626 -221.00244331 445.87361717 C-220.95010491 462.65199298 -220.95010491 462.65199298 -227.00372696 468.94337463 C-232.45390272 473.75537348 -236.55169389 474.73840229 -243.68652344 474.72998047 C-244.5033107 474.73669769 -245.32009796 474.74341492 -246.16163635 474.75033569 C-248.86107476 474.76932766 -251.56026457 474.77324084 -254.25976562 474.77539062 C-256.14060569 474.78181899 -258.02144475 474.78854739 -259.90228271 474.79556274 C-263.8464998 474.80753941 -267.79062929 474.81124329 -271.73486328 474.81005859 C-276.7764642 474.80985568 -281.81749971 474.83712797 -286.85896683 474.87160301 C-290.74530591 474.89390049 -294.6315097 474.89789522 -298.51790619 474.89683914 C-300.37575982 474.89919196 -302.23361737 474.90799742 -304.09140778 474.92350388 C-306.69772745 474.94321655 -309.30283834 474.93730501 -311.90917969 474.92529297 C-312.66894608 474.93653198 -313.42871246 474.947771 -314.21150208 474.95935059 C-319.73198091 474.89506699 -323.91716977 473.45507053 -328.55664062 470.43945312 C-330.39648438 468.40429688 -330.39648438 468.40429688 -331.49414062 466.37695312 C-331.87441406 465.70535156 -332.2546875 465.03375 -332.64648438 464.34179688 C-334.69891044 460.05196214 -334.6988263 456.19882505 -334.68806839 451.54946613 C-334.69012102 450.73291688 -334.69217366 449.91636763 -334.69428849 449.07507446 C-334.69998163 446.31535966 -334.6984984 443.5556944 -334.69708252 440.79597473 C-334.69966483 438.80680794 -334.70267762 436.81764168 -334.70608592 434.82847613 C-334.71417495 429.34373635 -334.71594655 423.85900964 -334.71668339 418.3742646 C-334.71853065 412.46613008 -334.72607634 406.5580024 -334.7328186 400.64987183 C-334.74712549 387.04782573 -334.75293033 373.44578063 -334.75751055 359.84372858 C-334.75984563 353.12338026 -334.76344819 346.4030328 -334.76720593 339.68268515 C-334.78004246 316.68226328 -334.7907614 293.68184189 -334.79420853 270.68141651 C-334.79443016 269.23723633 -334.79465194 267.79305616 -334.79487388 266.34887598 C-334.79509452 264.90118719 -334.795315 263.4534984 -334.79553533 262.00580961 C-334.79597788 259.10144794 -334.796425 256.19708627 -334.796875 253.29272461 C-334.79703909 252.21255318 -334.79703909 252.21255318 -334.79720649 251.1105601 C-334.80083722 227.76013921 -334.81675737 204.40974937 -334.84006536 181.05934038 C-334.86465761 156.37724768 -334.87838109 131.69517273 -334.87957644 107.01306742 C-334.8797479 104.30389988 -334.87996333 101.59473234 -334.88021088 98.8855648 C-334.88026665 98.21848201 -334.88032241 97.55139921 -334.88037987 96.86410178 C-334.88145958 86.79046453 -334.89077186 76.71685601 -334.90439606 66.64322853 C-334.91977707 55.18510921 -334.92492934 43.72704308 -334.91665795 32.26891539 C-334.91274432 26.42091888 -334.91371584 20.57302956 -334.9277153 14.72504616 C-334.9404114 9.37264452 -334.93929447 4.02043109 -334.92712459 -1.33197013 C-334.92516014 -3.26942764 -334.92828039 -5.20689829 -334.93696895 -7.14433732 C-334.9480284 -9.77690518 -334.94059631 -12.40880496 -334.92857742 -15.04135418 C-334.93617262 -15.79437938 -334.94376781 -16.54740457 -334.95159316 -17.32324871 C-334.89150039 -23.41616033 -333.66252965 -28.93276361 -329.75976562 -33.80273438 C-329.11523438 -34.3415625 -328.47070312 -34.88039062 -327.80664062 -35.43554688 C-327.17242188 -35.98984375 -326.53820312 -36.54414063 -325.88476562 -37.11523438 C-320.59843506 -40.39701677 -315.02307528 -40.81372697 -308.92822266 -40.83520508 C-307.83646729 -40.84287148 -307.83646729 -40.84287148 -306.72265625 -40.85069275 C-304.33650293 -40.8644979 -301.95064143 -40.86363878 -299.56445312 -40.86132812 C-297.8920786 -40.86522026 -296.21970505 -40.86955599 -294.54733276 -40.87431335 C-291.04893789 -40.88175622 -287.55064397 -40.88149852 -284.05224609 -40.8762207 C-279.58821814 -40.87043092 -275.12460575 -40.8873545 -270.66064644 -40.91056538 C-267.20833963 -40.92535958 -263.75613157 -40.92616667 -260.30379868 -40.92305565 C-258.65890557 -40.92356608 -257.01400652 -40.92875113 -255.36914444 -40.93886757 C-235.94489947 -41.04367683 -235.94489947 -41.04367683 -229.43554688 -35.87695312 C-228.78392578 -35.00876953 -228.78392578 -35.00876953 -228.11914062 -34.12304688 C-227.66667969 -33.54683594 -227.21421875 -32.970625 -226.74804688 -32.37695312 C-223.84274108 -27.94755249 -223.2293262 -24.6688872 -222.93164062 -19.31054688 C-222.81949219 -17.415625 -222.81949219 -17.415625 -222.70507812 -15.48242188 C-222.65609375 -14.51820313 -222.60710937 -13.55398437 -222.55664062 -12.56054688 C-221.93660156 -13.16640625 -221.3165625 -13.77226562 -220.67773438 -14.39648438 C-159.59733093 -72.18725911 -58.64261825 -56.40137646 0 0 Z M-203.55664062 84.43945312 C-219.01421037 103.62700166 -224.82760897 127.25813817 -222.33837891 151.57128906 C-219.16901164 174.21917536 -207.53879693 194.37880006 -189.55664062 208.43945312 C-171.16100066 221.39841987 -149.82231155 227.09936602 -127.49316406 223.61474609 C-119.7196124 222.24673357 -112.62676764 219.9696807 -105.55664062 216.43945312 C-104.58339844 215.95863281 -103.61015625 215.4778125 -102.60742188 214.98242188 C-83.32251697 204.62151218 -70.27553027 186.8012431 -63.30664062 166.25195312 C-56.64847867 142.87874024 -58.84844437 118.51439714 -70.41601562 97.13867188 C-81.48758061 77.58259089 -98.65733071 64.10467336 -120.14892578 57.60473633 C-150.64983241 49.24060915 -183.07305243 60.79426762 -203.55664062 84.43945312 Z " fill="#011B33" transform="translate(1181.556640625,193.560546875)"/>
<path d="M0 0 C0.85463333 -0.0049649 1.70926666 -0.00992981 2.58979797 -0.01504517 C5.39792709 -0.02956902 8.20599976 -0.0364515 11.01416016 -0.04199219 C11.97840534 -0.04481956 12.94265053 -0.04764694 13.93611526 -0.05056 C19.03635174 -0.06551115 24.1365602 -0.07476701 29.23681641 -0.07910156 C34.48774046 -0.08458789 39.73840545 -0.10863111 44.98924828 -0.13707352 C49.0437392 -0.15574992 53.09816822 -0.1609081 57.15269852 -0.16243744 C59.08787074 -0.16545192 61.02304218 -0.17343946 62.95817184 -0.18662262 C65.67153116 -0.20379221 68.38426376 -0.20177671 71.09765625 -0.1953125 C71.88651718 -0.20452728 72.67537811 -0.21374207 73.48814392 -0.22323608 C79.89554773 -0.17572833 86.18495777 0.97671919 91.44775391 4.81738281 C98.94887746 13.7807507 101.24246314 25.42320881 104.42431641 36.45410156 C104.83109624 37.85388106 105.23821565 39.25356192 105.64564514 40.65315247 C106.51670859 43.64795589 107.38549319 46.64340702 108.25244141 49.6394043 C109.64199956 54.44133555 111.036685 59.24176855 112.43212891 64.04199219 C114.13691978 69.90749904 115.84056147 75.77333713 117.54268074 81.63961983 C121.59544346 95.60667054 125.66770346 109.56800841 129.7427063 123.52858353 C131.24733145 128.68357752 132.75048457 133.83899914 134.25292969 138.99462891 C138.37656306 153.14333818 142.50675547 167.29006539 146.6546936 181.43167114 C148.38676867 187.33701125 150.11624542 193.2431114 151.84513283 199.14938545 C153.26010992 203.98235711 154.67859757 208.81428027 156.09968281 213.64545918 C156.97255088 216.61597485 157.84208783 219.58745774 158.71068382 222.55922508 C159.11505146 223.9401205 159.52082922 225.32060386 159.92809486 226.70064735 C160.48367941 228.58392977 161.03385875 230.46880428 161.58374023 232.35375977 C161.89346268 233.40900345 162.20318512 234.46424713 162.52229309 235.5514679 C163.17822266 238.16113281 163.17822266 238.16113281 163.17822266 241.16113281 C167.79822266 241.16113281 172.41822266 241.16113281 177.17822266 241.16113281 C177.41172928 240.14154984 177.6452359 239.12196686 177.88581848 238.07148743 C180.34940919 227.40600246 183.07459764 216.83038239 185.93994141 206.26660156 C186.40426442 204.54676195 186.86835849 202.82686051 187.33224487 201.10690308 C188.58030493 196.48237986 189.83185659 191.85880842 191.08415604 187.23543167 C192.13787589 183.34340611 193.18949417 179.45081396 194.24112225 175.55822277 C203.16561902 142.52559208 212.13342823 109.50463861 221.11721516 76.48808765 C221.62871224 74.60813412 222.14007624 72.72814438 222.65130138 70.84811687 C223.86389061 66.38929067 225.07839239 61.93100729 226.29759216 57.47398376 C228.32934983 50.03718908 230.33774697 42.59852898 232.23242188 35.12548828 C232.53961655 33.92983749 232.84681122 32.73418671 233.16331482 31.50230408 C233.7043046 29.38513605 234.23311154 27.26478544 234.74501038 25.14039612 C236.96157091 16.51656599 240.58427914 8.32408829 248.07666016 3.09863281 C254.19415759 0.36963768 260.24905796 -0.13269758 266.83813477 -0.09765625 C267.66365341 -0.10116089 268.48917206 -0.10466553 269.33970642 -0.10827637 C272.04508084 -0.11701636 274.75018972 -0.11127148 277.45556641 -0.10449219 C279.3507136 -0.10584119 281.24586045 -0.10778368 283.14100647 -0.11029053 C287.1042105 -0.11323144 291.0673241 -0.10897793 295.03051758 -0.09960938 C300.09192335 -0.08822332 305.15311677 -0.09477556 310.21451473 -0.1067543 C314.12575356 -0.11400751 318.03694268 -0.11166898 321.94818306 -0.10649872 C323.81356392 -0.10517138 325.67894941 -0.10677759 327.54432487 -0.11145782 C330.15930883 -0.11657932 332.77395685 -0.10873422 335.38891602 -0.09765625 C336.14815369 -0.10170471 336.90739136 -0.10575317 337.68963623 -0.10992432 C344.44995187 -0.05729548 350.76234055 0.64002186 356.55322266 4.28613281 C361.37555152 9.56773109 362.46895659 14.72087137 362.36572266 21.73773193 C362.05115065 25.80351372 360.93933992 29.53576099 359.74072266 33.41894531 C359.3408313 34.76413742 359.3408313 34.76413742 358.93286133 36.13650513 C358.03043325 39.14975174 357.10672128 42.15582193 356.17822266 45.16113281 C355.85144531 46.22473022 355.52466797 47.28832764 355.18798828 48.38415527 C352.75965186 56.27191231 350.28982222 64.14646214 347.81252289 72.01894379 C346.03795883 77.66237724 344.27087345 83.30816175 342.50255966 88.95355606 C342.04009735 90.42988992 341.5775444 91.9061954 341.1149025 93.38247299 C335.95728078 109.84082942 330.84818734 126.31411267 325.74833679 142.79044724 C324.81842647 145.79468222 323.88828417 148.79884536 322.95815277 151.80301189 C321.34996984 156.99717543 319.74187475 162.19136615 318.1340332 167.38563538 C313.73893321 181.58375741 309.3346676 195.77902751 304.92822266 209.97363281 C304.19368261 212.3400058 303.45914484 214.7063795 302.72460938 217.07275391 C301.27106018 221.75539099 299.817434 226.43800417 298.36376953 231.12060547 C295.38775696 240.70725524 292.41262632 250.29417868 289.4375 259.88110352 C287.93274895 264.72993999 286.42785879 269.57873326 284.92285156 274.42749023 C280.82570985 287.62779423 276.73087035 300.82880818 272.63870239 314.03065491 C269.66933341 323.60871876 266.69444502 333.18506187 263.71774292 342.760849 C261.43977559 350.09149901 259.16851257 357.42417389 256.90279579 364.7586174 C255.11340663 370.55003714 253.31893534 376.33986894 251.52127647 382.12872696 C250.44362628 385.59973671 249.36822146 389.07140073 248.29888916 392.54498291 C244.43483879 405.09186354 240.55189184 417.61472387 235.89697266 429.89550781 C235.43996475 431.1024102 235.43996475 431.1024102 234.97372437 432.33369446 C221.05734496 468.04392993 194.44035545 498.64362088 159.56494141 514.87988281 C119.72445528 531.94815665 69.67151409 530.44524806 29.59619141 515.08691406 C11.46230585 507.77118097 -9.35573783 497.49165472 -19.98193359 480.28222656 C-22.2546853 474.54220713 -21.52740211 467.23186129 -19.57177734 461.47363281 C-16.69176995 455.14163049 -12.40215428 449.62751221 -8.32568359 444.02832031 C-3.73817973 437.71475992 0.5877475 431.22293281 4.92553711 424.73632812 C15.87865043 408.514535 15.87865043 408.514535 24.17822266 406.16113281 C36.92112762 404.45386516 45.423367 409.5528395 55.88916016 416.13378906 C68.52900556 423.92485766 82.28244521 429.52837764 97.29931641 426.54003906 C107.47531473 423.84321972 115.8636219 419.05958857 121.92822266 410.28613281 C126.3198246 402.66847257 129.20729454 394.40691466 132.17822266 386.16113281 C132.56365234 385.09668945 132.94908203 384.03224609 133.34619141 382.93554688 C134.98786069 378.39765188 136.62651279 373.85881991 138.24609375 369.31298828 C138.61299316 368.28318848 138.97989258 367.25338867 139.35791016 366.19238281 C139.6851709 365.27005859 140.01243164 364.34773438 140.34960938 363.39746094 C141.17822266 361.16113281 141.17822266 361.16113281 142.17822266 359.16113281 C141.56958374 359.17001526 140.96094482 359.17889771 140.3338623 359.18804932 C133.97446118 359.27683961 127.6152374 359.33699823 121.25537109 359.38085938 C118.88485557 359.40092107 116.51438921 359.42817707 114.14404297 359.46289062 C110.72822914 359.51164699 107.31307211 359.5341568 103.89697266 359.55175781 C102.31837463 359.58272552 102.31837463 359.58272552 100.70788574 359.61431885 C92.81657278 359.61670197 86.77439586 358.05975573 81.05322266 352.41113281 C78.28131709 348.90468507 76.82561702 345.00360856 75.31884766 340.84204102 C75.0589505 340.13592587 74.79905334 339.42981073 74.53128052 338.70229816 C71.9060256 331.51834714 69.45917744 324.27665648 67.05322266 317.01660156 C66.57989296 315.59541055 66.10633494 314.17429556 65.63256836 312.75325012 C64.64250515 309.78150995 63.65442625 306.80912062 62.66796875 303.83618164 C61.45221612 300.17234846 60.23274455 296.50976869 59.01184845 292.84764671 C53.77873912 277.14766748 48.60678252 261.42891495 43.50068665 245.68717384 C37.67302991 227.72385603 31.75033685 209.79360908 25.77197266 191.87988281 C25.36254425 190.65302073 24.95311584 189.42615864 24.53128052 188.16211891 C21.58241745 179.32773607 18.6306467 170.49432602 15.67822266 161.66113281 C12.31165252 151.58887898 8.94648511 141.51615917 5.58447266 131.44238281 C5.17847021 130.22608311 4.77246777 129.0097834 4.35416222 127.75662613 C-1.62094996 109.84908485 -7.52600868 91.92003841 -13.32592773 73.95495605 C-17.04458999 62.44928933 -20.90844142 51.0017536 -24.93640137 39.60040283 C-28.25588639 30.1228632 -30.73610355 19.69037274 -26.83740234 10.03222656 C-24.77915433 6.24030041 -22.23058062 3.90260822 -18.44677734 1.91113281 C-12.35798508 0.17147788 -6.27789858 0.0088507 0 0 Z " fill="#011B33" transform="translate(1696.82177734375,152.8388671875)"/>
<path d="M0 0 C2.51419645 0.00315701 5.02720778 -0.02038868 7.54125977 -0.0456543 C41.12390969 -0.17733243 71.86574104 11.00689735 96.21508789 34.31567383 C96.54508789 34.64567383 96.87508789 34.97567383 97.21508789 35.31567383 C97.36204102 34.01243164 97.36204102 34.01243164 97.51196289 32.68286133 C98.59361769 24.34665968 99.91563229 19.5418082 106.02758789 13.56567383 C111.60037114 9.63194448 117.27680922 9.01678014 123.95117188 9.04101562 C125.05996704 9.03334923 125.05996704 9.03334923 126.19116211 9.02552795 C128.61458622 9.01172196 131.03772308 9.01258178 133.46118164 9.01489258 C135.15837203 9.01100092 136.85556145 9.00666528 138.55274963 9.00190735 C142.10241866 8.99446463 145.65198818 8.9947224 149.20166016 9 C153.73528615 9.00579436 158.26850356 8.98885508 162.80206203 8.96565533 C166.30494033 8.95087648 169.80772113 8.95005188 173.31062508 8.95316505 C174.98146436 8.95265401 176.6523094 8.94745715 178.32311821 8.93735313 C180.66554712 8.92492387 183.00719167 8.93181825 185.34960938 8.94335938 C186.02985672 8.93571564 186.71010406 8.9280719 187.41096497 8.92019653 C193.85056026 8.98981945 199.16801778 10.5415464 204.02758789 14.75317383 C208.80091828 20.34478943 210.33596402 23.51038535 210.34930897 30.92363358 C210.35376681 32.07270132 210.35822466 33.22176907 210.36281759 34.40565705 C210.36254104 36.30017755 210.36254104 36.30017755 210.36225891 38.23297119 C210.36555881 39.58778226 210.36928464 40.94259235 210.37340039 42.29740119 C210.38341396 46.02403817 210.38713614 49.75065904 210.3897897 53.47730756 C210.39369458 57.495158 210.4032727 61.51299571 210.41200256 65.53083801 C210.4317603 75.23488831 210.44183166 84.93893964 210.45073035 94.64300501 C210.45511381 99.21252232 210.46048042 103.78203848 210.46571922 108.35155487 C210.48272973 123.54054143 210.49722454 138.72952726 210.50446796 153.91852188 C210.50637786 157.85966238 210.50829819 161.80080288 210.51025391 165.74194336 C210.51073765 166.72149513 210.51122139 167.7010469 210.51171979 168.71028206 C210.52002254 184.58321501 210.54536439 200.45607266 210.57783458 216.32897273 C210.61089655 232.62391833 210.62891589 248.91882564 210.63211221 265.21380496 C210.63427795 274.36346275 210.64303614 283.51301069 210.66857338 292.6626358 C210.69026847 300.45365276 210.69833662 308.24453317 210.6886066 316.03557691 C210.68405861 320.01027556 210.68597691 323.9846924 210.70536804 327.95935249 C210.72297703 331.60017114 210.72202083 335.24050191 210.70647075 338.88132557 C210.70296651 340.81781135 210.71913784 342.75430211 210.73607522 344.69071698 C210.68062454 352.18352647 210.16098849 358.1936979 204.73237401 363.86454988 C199.72972735 368.2618508 195.53808008 368.46761226 189.16699219 368.47680664 C187.93721146 368.484254 187.93721146 368.484254 186.68258667 368.49185181 C183.96815147 368.50646608 181.25377473 368.51327441 178.53930664 368.51879883 C176.65224709 368.52455114 174.76518757 368.53030887 172.87812805 368.53607178 C168.91956307 368.54657985 164.96101838 368.5524237 161.00244141 368.5559082 C155.93494687 368.56139075 150.86772131 368.58541448 145.80031109 368.61388016 C141.90120159 368.63252281 138.00215666 368.63771302 134.10300636 368.63924408 C132.23513125 368.64226775 130.36725721 368.65028664 128.49942589 368.66342926 C125.88319945 368.68052285 123.26762713 368.67860143 120.65136719 368.67211914 C119.8828392 368.68133392 119.11431122 368.69054871 118.32249451 368.70004272 C112.7017402 368.65651309 108.62702709 367.44415863 104.38696289 363.70239258 C99.05265088 357.32759664 97.90212562 351.45164699 97.21508789 343.31567383 C96.39008789 344.24379883 95.56508789 345.17192383 94.71508789 346.12817383 C82.07258785 358.69436099 65.23086147 367.4167362 48.34008789 372.62817383 C47.59919922 372.85867432 46.85831055 373.0891748 46.0949707 373.32666016 C31.64894932 377.48485426 17.06327421 378.87541194 2.09008789 378.75317383 C1.29137268 378.75013245 0.49265747 378.74709106 -0.33026123 378.74395752 C-27.08763201 378.59422964 -51.68730979 372.94024323 -75.78491211 361.31567383 C-76.40285645 361.01967285 -77.02080078 360.72367187 -77.6574707 360.41870117 C-93.40436493 352.75838548 -107.29757294 342.54465426 -119.78491211 330.31567383 C-120.8012726 329.34893197 -121.81821054 328.38279688 -122.83569336 327.41723633 C-159.38439948 292.31101362 -176.08521445 242.51654668 -177.91381836 192.81176758 C-178.74404015 143.27520079 -163.13933565 96.90551187 -130.78491211 59.31567383 C-129.63635742 57.95442383 -129.63635742 57.95442383 -128.46459961 56.56567383 C-124.25304816 51.67697096 -119.7299405 47.44805769 -114.78491211 43.31567383 C-113.92381836 42.55512695 -113.06272461 41.79458008 -112.17553711 41.01098633 C-104.25905492 34.14290313 -95.82848357 28.59219717 -86.78491211 23.31567383 C-85.87467285 22.77813477 -85.87467285 22.77813477 -84.94604492 22.22973633 C-59.07689618 7.11453904 -29.81041898 -0.07793951 0 0 Z M-42.59350586 131.71801758 C-60.1603815 152.54149762 -64.79630514 176.70370437 -62.78491211 203.31567383 C-60.09862883 224.33446994 -48.62366249 244.05757454 -32.03491211 257.12817383 C-13.32651534 270.27722789 7.16502838 277.1638741 30.22583008 273.49536133 C38.01747706 272.10094949 45.12314029 269.86164763 52.21508789 266.31567383 C53.19993164 265.82325195 54.18477539 265.33083008 55.19946289 264.82348633 C63.33600225 260.41795077 69.72218096 254.80858076 76.21508789 248.31567383 C76.89571289 247.63504883 77.57633789 246.95442383 78.27758789 246.25317383 C94.24728519 229.14278386 98.91990045 205.96880366 98.51977539 183.37036133 C97.7024968 161.72261013 88.01977186 141.39346984 72.33618164 126.50708008 C37.97547136 96.44717774 -10.93216658 98.69733636 -42.59350586 131.71801758 Z " fill="#011B33" transform="translate(2872.784912109375,143.684326171875)"/>
<path d="M0 0 C3.42081349 2.86774783 6.59988057 5.89189166 9.609375 9.1875 C9.73892578 8.02734375 9.73892578 8.02734375 9.87109375 6.84375 C11.00459025 -1.55868277 12.96536616 -7.16849116 18.984375 -13.1875 C24.42280637 -16.55414799 30.0939697 -17.10839287 36.36132812 -17.07128906 C37.1021312 -17.0747937 37.84293427 -17.07829834 38.60618591 -17.08190918 C41.03442999 -17.09065105 43.46237839 -17.08490424 45.890625 -17.078125 C47.59021052 -17.07947382 49.28979567 -17.08141616 50.98937988 -17.08392334 C54.54325043 -17.08686438 58.09702012 -17.08260985 61.65087891 -17.07324219 C66.19349446 -17.06184826 70.73587363 -17.0684132 75.27848053 -17.08038712 C78.78560143 -17.08763329 82.2926668 -17.08530514 85.79978943 -17.08013153 C87.47423837 -17.07880266 89.14869244 -17.08041588 90.82313538 -17.08509064 C93.16803232 -17.09020138 95.51255278 -17.08238232 97.85742188 -17.07128906 C98.5412645 -17.07533752 99.22510712 -17.07938599 99.92967224 -17.08355713 C106.51587295 -17.02618292 112.31438627 -15.91030617 117.26834154 -11.32575792 C123.38849391 -4.41961476 123.17939763 2.90223137 123.11730957 11.66847229 C123.12192321 13.03570355 123.12827924 14.40292984 123.13621855 15.77014583 C123.15287149 19.51261375 123.14468417 23.25467212 123.13227367 26.99714124 C123.12320894 31.03878156 123.13719989 35.08035234 123.14819336 39.12197876 C123.16596753 47.03347652 123.16214367 54.94482237 123.1505428 62.85632605 C123.14150505 69.28629422 123.14028595 75.71621985 123.14463806 82.14619255 C123.14525099 83.06173214 123.14586393 83.97727173 123.14649543 84.92055495 C123.14777435 86.78050957 123.1490712 88.64046418 123.1503858 90.50041877 C123.1617882 107.93543022 123.14868289 125.37035749 123.12718433 142.80535512 C123.10931066 157.76375219 123.11242033 172.72202509 123.13085938 187.68041992 C123.15226692 205.05507909 123.16069275 222.42966454 123.14841032 239.80433506 C123.14713613 241.65709777 123.14587865 243.50986048 123.14463806 245.36262321 C123.14371241 246.72998663 123.14371241 246.72998663 123.14276806 248.12497355 C123.13931503 254.54735412 123.14514241 260.96968791 123.15455627 267.39206123 C123.16577621 275.21853271 123.16273621 283.04484373 123.1414333 290.87129683 C123.13092324 294.86410983 123.12680021 298.85665532 123.14002991 302.84946632 C123.15196059 306.50551954 123.14538069 310.16105759 123.1241197 313.81706416 C123.11754427 315.76401889 123.1305837 317.71100945 123.14434862 319.65792662 C123.07510754 327.37135292 122.34282738 332.11630254 117.01171875 337.9296875 C111.80126005 341.95910889 107.97285244 342.34225516 101.57714844 342.36450195 C100.75890091 342.37107315 99.94065338 342.37764435 99.09761047 342.38441467 C96.38798937 342.40413496 93.67842368 342.41580788 90.96875 342.42578125 C89.57933071 342.43189454 89.57933071 342.43189454 88.16184235 342.43813133 C83.25845055 342.45898737 78.3550867 342.47329071 73.45166016 342.48266602 C68.39315126 342.49372519 63.33508287 342.52812077 58.27672958 342.56783772 C54.38186844 342.59401384 50.48711208 342.60235877 46.59217072 342.60594749 C44.72789792 342.61081142 42.86362975 342.6224199 40.99944305 342.64098549 C38.38566941 342.66539675 35.77303301 342.6644084 33.15917969 342.6574707 C32.01178062 342.67668579 32.01178062 342.67668579 30.84120178 342.69628906 C23.94576864 342.62983344 19.72793127 340.30605627 14.796875 335.375 C10.93173628 329.74294073 10.30734706 323.81823456 9.609375 317.1875 C8.743125 318.13625 7.876875 319.085 6.984375 320.0625 C-5.54500001 332.49143914 -21.25952286 340.29916447 -37.765625 346 C-38.55396729 346.27803467 -39.34230957 346.55606934 -40.15454102 346.8425293 C-54.87679755 351.66769269 -69.94497012 352.71698394 -85.328125 352.5625 C-86.15923798 352.55784729 -86.99035095 352.55319458 -87.84664917 352.54840088 C-99.90187635 352.46937299 -111.64622918 352.14933684 -123.390625 349.1875 C-124.63803467 348.88150879 -124.63803467 348.88150879 -125.91064453 348.56933594 C-171.71344523 337.06631123 -211.62097294 309.3258895 -236.203125 268.625 C-247.82153968 248.76412683 -256.83805297 227.79596092 -261.390625 205.1875 C-261.63619141 204.02033447 -261.63619141 204.02033447 -261.88671875 202.82958984 C-267.05758723 177.13015981 -266.87247097 146.80685986 -261.390625 121.1875 C-261.25140625 120.4744873 -261.1121875 119.76147461 -260.96875 119.02685547 C-255.896195 93.10633426 -244.99475913 68.47638896 -229.390625 47.1875 C-228.98440918 46.62192383 -228.57819336 46.05634766 -228.15966797 45.47363281 C-203.8627313 11.89933653 -167.62975222 -12.08445404 -127.390625 -21.8125 C-126.61493164 -22.00859863 -125.83923828 -22.20469727 -125.04003906 -22.40673828 C-83.11250434 -32.60916068 -34.56563782 -26.90514511 0 0 Z M-130.140625 105.875 C-147.1179136 125.8482807 -152.06770298 149.45657725 -150.390625 175.1875 C-147.91652858 196.65060044 -136.87983558 216.35399116 -120.390625 230.1875 C-102.76199002 243.77108219 -81.698508 250.54921691 -59.484375 247.68359375 C-38.67636895 244.40560311 -19.83477562 234.27055671 -6.640625 217.5625 C8.17190572 196.62064623 13.30482955 173.07475796 10.30908203 147.63769531 C9.50960368 142.99970243 8.18418337 138.6264911 6.609375 134.1875 C6.196875 133.00414062 5.784375 131.82078125 5.359375 130.6015625 C-2.88123772 109.39134909 -19.1862927 93.74700948 -39.74584961 84.44482422 C-71.60454767 70.86597344 -106.88042452 81.65064613 -130.140625 105.875 Z " fill="#011B33" transform="translate(1523.390625,169.8125)"/>
<path d="M0 0 C1.09197441 -0.0076664 1.09197441 -0.0076664 2.20600891 -0.01548767 C4.58672556 -0.02926537 6.96714889 -0.02843605 9.34790039 -0.02612305 C11.01884568 -0.0300162 12.68978998 -0.03435214 14.36073303 -0.03910828 C17.85315162 -0.04654487 21.34546906 -0.04629767 24.83789062 -0.04101562 C29.29404288 -0.03522142 33.74977942 -0.05216318 38.205863 -0.0753603 C41.65387863 -0.09015283 45.10179537 -0.09096191 48.54983711 -0.08785057 C50.19193915 -0.08836091 51.83404714 -0.09354422 53.47611809 -0.10366249 C71.92501178 -0.20341453 71.92501178 -0.20341453 80.13305664 5.1496582 C84.01941432 9.03601588 86.06744444 12.95360458 86.38225514 18.4385798 C86.38187542 19.2268792 86.3814957 20.01517861 86.38110447 20.82736588 C86.38309552 21.74101292 86.38508657 22.65465996 86.38713795 23.59599328 C86.38422511 24.59598847 86.38131227 25.59598366 86.37831116 26.62628174 C86.37916558 27.69142305 86.38002001 28.75656436 86.38090032 29.85398269 C86.38255169 33.43465448 86.3770393 37.01527976 86.37158203 40.59594727 C86.37130006 43.15808104 86.37145809 45.7202149 86.37202454 48.28234863 C86.37225249 53.80441127 86.3694101 59.32645883 86.3637867 64.84851837 C86.35566149 72.83249842 86.35305543 80.81647276 86.35179871 88.80045649 C86.3496098 101.75377436 86.34295406 114.70708594 86.33349609 127.66040039 C86.32431782 140.2437334 86.31723902 152.82706471 86.31298828 165.41040039 C86.31272556 166.18596835 86.31246283 166.9615363 86.31219215 167.76060632 C86.31088712 171.6513823 86.30962341 175.54215829 86.30838025 179.43293428 C86.29801264 211.7135135 86.28039869 243.99408498 86.25805664 276.2746582 C89.15135224 276.26693672 92.03422356 276.21819705 94.92602539 276.14575195 C95.74002808 276.1478064 96.55403076 276.14986084 97.3927002 276.15197754 C101.99472481 276.03493418 101.99472481 276.03493418 105.98027802 273.9668684 C108.309116 271.38882013 110.23427273 268.55080357 111.85180664 265.48168945 C114.4092189 260.89065925 117.4494802 256.74502213 120.57055664 252.5246582 C121.6829961 250.9894754 122.79365931 249.45300398 123.90258789 247.9152832 C124.45769043 247.14764648 125.01279297 246.38000977 125.5847168 245.58911133 C127.77071912 242.56557733 129.95516726 239.54092269 132.1394043 236.51611328 C133.22094346 235.01843439 134.30264995 233.52087632 135.38452148 232.0234375 C138.08346837 228.28758648 140.78033206 224.55026587 143.47290039 220.80981445 C149.67053579 212.20548546 155.92274496 203.64463236 162.22509766 195.11669922 C165.73331365 190.36310839 169.20648272 185.58741265 172.63305664 180.7746582 C173.03331055 180.21423828 173.43356445 179.65381836 173.84594727 179.07641602 C175.71523917 176.45598602 177.56881198 173.82635542 179.40258789 171.1809082 C185.43540856 162.59884591 191.03791817 156.37937416 201.46525574 153.70951843 C205.08786049 153.14545147 208.6617185 153.12717217 212.31787109 153.12939453 C213.51401031 153.12435661 213.51401031 153.12435661 214.73431396 153.11921692 C217.36333791 153.1097396 219.99229794 153.10776535 222.62133789 153.10668945 C224.45590745 153.10347438 226.29047675 153.10011012 228.12504578 153.09660339 C231.96911208 153.09062 235.81315593 153.08876266 239.65722656 153.08935547 C244.56971005 153.08945699 249.48204868 153.07581185 254.39449787 153.05858326 C258.18388015 153.04743403 261.97322774 153.04543717 265.76262474 153.04596519 C267.5730152 153.04478922 269.38340667 153.04038899 271.1937809 153.03263283 C273.73264164 153.02277483 276.27119227 153.02573386 278.81005859 153.03173828 C279.91929939 153.02330902 279.91929939 153.02330902 281.0509491 153.01470947 C288.5680307 153.05961509 295.33077131 154.31227978 301.25805664 159.2746582 C304.66804532 163.82130978 304.67204648 168.40134816 304.85180664 173.8840332 C303.341793 182.50700584 297.96494878 189.43155659 292.57055664 196.0871582 C291.32155614 197.65983461 290.07285989 199.2327527 288.82446289 200.8059082 C288.21618652 201.56645508 287.60791016 202.32700195 286.98120117 203.1105957 C284.62052322 206.07532359 282.31011887 209.07684072 280.00805664 212.0871582 C279.21915039 213.11454102 278.43024414 214.14192383 277.61743164 215.20043945 C276.83883789 216.21493164 276.06024414 217.22942383 275.25805664 218.2746582 C273.59196411 220.44176668 271.92500465 222.60820773 270.25805664 224.7746582 C269.42470759 225.85797944 268.59137423 226.94131276 267.75805664 228.0246582 C262.75805664 234.5246582 262.75805664 234.5246582 261.50878906 236.14868164 C260.67298288 237.235246 259.83720829 238.32183465 259.00146484 239.40844727 C256.95622028 242.06754368 254.91035673 244.7261576 252.86352539 247.3840332 C248.15045664 253.50569277 243.44931066 259.63626232 238.75805664 265.7746582 C233.27243222 272.95246912 227.77008913 280.11710867 222.25805664 287.2746582 C220.59110372 289.44110472 218.92458223 291.60788296 217.25805664 293.7746582 C216.43775202 294.84107051 215.6174395 295.90747675 214.79711914 296.97387695 C214.38623047 297.50803223 213.9753418 298.0421875 213.55200195 298.5925293 C209.78735352 303.48657227 206.02270508 308.38061523 202.25805664 313.2746582 C206.71572872 320.54191938 211.50078462 327.51900127 216.43969727 334.46337891 C220.18611055 339.73766227 223.86606744 345.05280068 227.50805664 350.3996582 C232.34090552 357.49197344 237.22274775 364.54825999 242.13305664 371.5871582 C248.01385473 380.02023954 253.8299859 388.49448657 259.60864258 396.99780273 C264.8211365 404.65784301 270.10739161 412.2649707 275.40722656 419.86474609 C281.24430691 428.24006009 287.01291417 436.66079845 292.76733398 445.09301758 C294.67806165 447.88932652 296.59497311 450.6813394 298.5144043 453.47167969 C299.41772064 454.78540394 300.31976625 456.10000296 301.22045898 457.41552734 C303.53336917 460.78982989 305.87055903 464.14348233 308.24633789 467.47387695 C321.51165613 486.17134844 321.51165613 486.17134844 320.25805664 497.2746582 C318.85807796 503.48778673 316.50437301 506.70716307 311.25805664 510.2746582 C306.57923229 512.74037124 302.10605134 512.57712661 296.94482422 512.58105469 C296.01406067 512.5893782 295.08329712 512.59770172 294.12432861 512.60627747 C291.05037231 512.6303512 287.97662845 512.6391475 284.90258789 512.64575195 C282.75892576 512.65472199 280.61526426 512.66384391 278.47160339 512.67311096 C273.9768217 512.68959759 269.48211445 512.69730019 264.98730469 512.70019531 C259.24523414 512.70557121 253.5038697 512.7432205 247.76199818 512.78893948 C243.33257027 512.81877842 238.90331077 512.8259204 234.47379112 512.82692146 C232.35800641 512.83111205 230.24222066 512.84349934 228.12653542 512.86443901 C206.31527843 513.06308542 206.31527843 513.06308542 196.85449219 505.30322266 C191.87352337 499.32266413 187.53830446 492.9767489 183.3366394 486.43365479 C182.02821576 484.39622657 180.71085946 482.36482728 179.39111328 480.3347168 C177.9414866 478.10475385 176.49238389 475.87446983 175.04582214 473.64251709 C169.11005121 464.48702991 163.09964078 455.38080168 157.09091187 446.27310181 C155.24618671 443.47641567 153.40292426 440.67877107 151.56005859 437.88085938 C150.38519687 436.09804711 149.21031113 434.31525067 148.03540039 432.5324707 C147.46213516 431.66187012 146.88886993 430.79126953 146.29823303 429.89428711 C143.58817088 425.78393079 140.86573664 421.68329316 138.10620117 417.60595703 C133.58821198 410.91915983 129.16654669 404.23347234 125.12217712 397.2467041 C123.32481519 394.1490951 121.47735141 391.08288244 119.62475586 388.01806641 C118.70388732 386.46436806 117.80737985 384.89600266 116.93432617 383.31494141 C116.49588379 382.52627686 116.05744141 381.7376123 115.60571289 380.92504883 C115.03735718 379.87625549 115.03735718 379.87625549 114.45751953 378.80627441 C110.3164556 372.299894 110.3164556 372.299894 103.85240173 368.61097145 C101.16162672 368.35275808 98.55040737 368.2935983 95.84790039 368.32958984 C94.46145325 368.30623943 94.46145325 368.30623943 93.04699707 368.2824173 C90.78240579 368.24871367 88.5225888 368.24692519 86.25805664 368.2746582 C86.26082202 368.93303712 86.2635874 369.59141603 86.26643658 370.26974583 C86.33274329 386.30331451 86.38235998 402.33683538 86.41349316 418.37050724 C86.42894982 426.12433362 86.45001631 433.87806837 86.484375 441.63183594 C86.51431421 448.3914871 86.53364037 455.15107189 86.54032212 461.91078752 C86.54422675 465.48869987 86.55337791 469.06642237 86.57524681 472.64427376 C86.599485 476.64232871 86.60002374 480.64005537 86.59863281 484.63818359 C86.60941864 485.81926193 86.62020447 487.00034027 86.63131714 488.21720886 C86.59915164 496.75814983 85.43331618 502.92296268 79.25805664 509.2746582 C74.45770238 512.2483178 70.31182051 512.71090625 64.79345703 512.67871094 C63.55079826 512.68900581 63.55079826 512.68900581 62.28303528 512.69950867 C59.55708452 512.71774097 56.83171127 512.7139443 54.10571289 512.70825195 C52.20291457 512.71281549 50.3001179 512.71812157 48.39732361 512.72413635 C44.41373998 512.73306046 40.4303569 512.73065231 36.44677734 512.72070312 C31.35129888 512.70921469 26.25651356 512.72942662 21.16112614 512.75862026 C17.23277924 512.77699934 13.30459792 512.77668639 9.3762188 512.77098274 C7.49801092 512.77082974 5.61979167 512.77685701 3.74162483 512.78927422 C1.11132925 512.80421473 -1.51769247 512.79348521 -4.14794922 512.77636719 C-4.91751953 512.78603516 -5.68708984 512.79570313 -6.47998047 512.80566406 C-12.48773557 512.72412443 -16.72407088 511.10878723 -21.20764065 506.89820004 C-26.31135189 501.21947313 -27.0395934 495.44741018 -26.99641895 488.07799721 C-26.99962543 487.26473992 -27.00283191 486.45148263 -27.00613555 485.61358118 C-27.01444997 482.88307308 -27.0085062 480.1527835 -27.00263977 477.42227173 C-27.00565979 475.44701409 -27.00954852 473.47175763 -27.01423234 471.49650323 C-27.02454029 466.0641303 -27.0223234 460.63182317 -27.01805174 455.19944477 C-27.01558959 449.34248449 -27.02459232 443.48554026 -27.03208923 437.62858582 C-27.0448525 426.1524542 -27.0466279 414.67634596 -27.04428897 403.20020844 C-27.04250747 393.87404386 -27.04421467 384.54788576 -27.04851341 375.22172165 C-27.04911581 373.88204962 -27.04971701 372.54237759 -27.05031702 371.20270555 C-27.05122426 369.18396918 -27.05213293 367.1652328 -27.05304937 365.14649642 C-27.06147962 346.37594168 -27.06581409 327.60538952 -27.06164265 308.83483315 C-27.06148627 308.12714092 -27.06132989 307.4194487 -27.06116878 306.69031126 C-27.06036299 303.10341281 -27.05951722 299.51651437 -27.05865548 295.92961593 C-27.05848439 295.21724145 -27.0583133 294.50486697 -27.05813703 293.77090538 C-27.05779038 292.33031098 -27.05744185 290.88971658 -27.05709144 289.44912219 C-27.05173402 267.03255353 -27.05966496 244.61602421 -27.078125 222.19946289 C-27.09883899 197.0163467 -27.10956886 171.83325487 -27.10554951 146.65012968 C-27.10515417 143.96516188 -27.10479262 141.28019409 -27.10445213 138.59522629 C-27.1043614 137.93411559 -27.10427067 137.2730049 -27.10417719 136.59186055 C-27.10301101 126.60987837 -27.10969723 116.62792903 -27.12026405 106.64595413 C-27.13215926 95.29403706 -27.13360365 83.94217788 -27.12147389 72.59026004 C-27.11557214 66.79692732 -27.11452156 61.00370059 -27.12647629 55.21037483 C-27.13729079 49.90804907 -27.13428464 44.60591837 -27.1202146 39.30360191 C-27.11755543 37.38440542 -27.11997229 35.46519386 -27.12795047 33.54601212 C-27.13804007 30.93810607 -27.12964865 28.33088022 -27.11667347 25.72300148 C-27.12398282 24.97725121 -27.13129216 24.23150094 -27.138823 23.46315217 C-27.07618571 17.3927072 -25.81647558 11.91497194 -21.98022461 7.0324707 C-21.3447168 6.49364258 -20.70920898 5.95481445 -20.05444336 5.3996582 C-19.43182617 4.84536133 -18.80920898 4.29106445 -18.16772461 3.7199707 C-12.58006059 0.3907667 -6.36864139 0.02248111 0 0 Z " fill="#011B33" transform="translate(3531.741943359375,-0.274658203125)"/>
<path d="M0 0 C0.70898438 0.58265625 1.41796875 1.1653125 2.1484375 1.765625 C7.45015616 6.55283088 10.64252482 12.30905023 11.19140625 19.51171875 C10.60982499 30.73799942 4.26556386 38.23150004 -3.1796875 46.00390625 C-5.73494083 48.67858803 -8.07042341 51.47939731 -10.375 54.375 C-13.99766983 58.85121254 -17.75135111 63.17858966 -21.625 67.4375 C-22.1514209 68.02901855 -22.6778418 68.62053711 -23.22021484 69.22998047 C-28.32452497 74.77275608 -33.75831428 78.48177824 -41.41015625 79.23828125 C-53.52204807 79.57720017 -62.0640078 74.49367714 -72.18115234 68.49633789 C-87.28559648 59.6240537 -102.88217916 51.97668488 -120 48 C-121.50626953 47.63648438 -121.50626953 47.63648438 -123.04296875 47.265625 C-139.14371744 43.97885147 -158.25793923 44.51384136 -172.87109375 52.5546875 C-177.56252537 55.73969612 -180.38304945 59.00398352 -182.0625 64.4375 C-181.97045762 69.68391578 -181.11123225 73.75153765 -177.4375 77.6640625 C-168.79260726 84.68803785 -157.86083325 87.60664078 -147.125 89.625 C-145.28103195 89.99160902 -143.43707483 90.35827398 -141.5933075 90.72589111 C-139.43719375 91.15380518 -137.28001416 91.57597522 -135.12255859 91.99707031 C-125.4191117 93.89360575 -115.72369568 95.83007099 -106.03094482 97.78045654 C-102.51909276 98.48366205 -99.00504575 99.17498992 -95.49072266 99.86572266 C-78.69925868 103.2086626 -61.86758743 106.95991034 -46.125 113.875 C-45.35164307 114.20886719 -44.57828613 114.54273438 -43.78149414 114.88671875 C-32.49917556 119.86534337 -22.34675645 125.89122454 -13 134 C-12.18015625 134.67546875 -11.3603125 135.3509375 -10.515625 136.046875 C7.44145889 151.32712651 17.93794178 172.73747077 21 196 C21.29296916 200.73276484 21.3342715 205.44659949 21.3125 210.1875 C21.30686035 211.47035889 21.3012207 212.75321777 21.29541016 214.07495117 C20.96627052 239.80161287 12.24537996 262.03677189 -4 282 C-4.72574219 282.90363281 -5.45148437 283.80726563 -6.19921875 284.73828125 C-33.12096971 316.322203 -77.86106658 330.61773706 -118 334 C-121.51199001 334.15121026 -125.02019755 334.18646344 -128.53515625 334.203125 C-129.52343414 334.21013931 -130.51171204 334.21715363 -131.52993774 334.22438049 C-134.70750514 334.24181808 -137.88488649 334.24823381 -141.0625 334.25 C-142.14479889 334.25067474 -143.22709778 334.25134949 -144.3421936 334.25204468 C-159.75203142 334.23674054 -174.83931239 334.04879435 -190 331 C-190.87930176 330.82839355 -191.75860352 330.65678711 -192.66455078 330.47998047 C-229.1310385 323.13945164 -275.38680784 306.41052371 -298.41015625 275.453125 C-303.63201498 267.39580981 -305.36344876 259.5794029 -304 250 C-300.82938204 240.5531178 -294.72092085 234.17598439 -286.8125 228.5 C-281.46611167 224.5955164 -276.22055809 220.60601444 -271.05615234 216.46337891 C-251.27286416 200.6928771 -251.27286416 200.6928771 -238.2109375 201.4375 C-228.45242556 203.14702034 -221.38911612 209.11898644 -213.984375 215.25390625 C-189.42020811 235.36086544 -158.93173299 247.52998366 -126.9453125 244.53515625 C-115.96262406 243.04542524 -106.30387051 239.57586387 -98.5625 231.4375 C-95.42896757 226.54918941 -94.48665069 222.85218213 -95 217 C-97.0311854 211.35781833 -100.65986085 207.67885819 -105.96591187 205.01187134 C-108.1897617 204.08675674 -110.42666132 203.25504892 -112.69921875 202.45703125 C-113.53216965 202.15851761 -114.36512054 201.86000397 -115.22331238 201.55244446 C-123.13165706 198.80442758 -131.13617538 196.87794361 -139.3288269 195.19717407 C-141.91172716 194.66713761 -144.49029072 194.11903739 -147.06860352 193.56713867 C-151.73103238 192.5718751 -156.39645429 191.59150881 -161.06286621 190.6151123 C-169.19743875 188.91152097 -177.32780351 187.18871671 -185.45443726 185.44766235 C-188.34845143 184.83146048 -191.24493166 184.22812817 -194.1418457 183.62573242 C-211.83193597 179.88843338 -228.11622639 174.70840815 -244 166 C-244.94617187 165.484375 -245.89234375 164.96875 -246.8671875 164.4375 C-253.07158412 160.88108574 -258.54051539 156.60206555 -264 152 C-264.763125 151.38382813 -265.52625 150.76765625 -266.3125 150.1328125 C-286.82388122 132.96877475 -294.48775472 107.71840464 -297 82 C-298.99571178 51.35814841 -287.83136206 23.99501684 -267.84375 1.13671875 C-240.29229463 -29.64573727 -196.04388877 -42.22354357 -156.125 -44.75 C-101.22589558 -47.3988744 -43.31937923 -35.6747829 0 0 Z " fill="#011B33" transform="translate(2362,188)"/>
<path d="M0 0 C27.2053092 26.24322821 27.2053092 26.24322821 27.75 41.78125 C27.61866648 50.6535586 23.56904729 57.52303335 17.4375 63.65625 C14.62540958 65.99676487 11.67579434 68.11003256 8.6875 70.21875 C6.99060234 71.44050971 5.29533022 72.66452983 3.6015625 73.890625 C2.74336914 74.51130859 1.88517578 75.13199219 1.00097656 75.77148438 C-3.04833536 78.74869276 -6.99053134 81.85792442 -10.9375 84.96875 C-34.57911388 103.48818537 -34.57911388 103.48818537 -45.03442383 102.98730469 C-56.01715534 101.54910247 -63.21343883 92.47659288 -70.375 84.90625 C-86.69165325 67.70232282 -104.81022161 54.34756121 -129.4609375 53.41796875 C-153.08271101 52.93289993 -172.74674291 58.42937447 -190.5625 74.65625 C-191.47322266 75.4296875 -191.47322266 75.4296875 -192.40234375 76.21875 C-207.22736375 89.66548015 -214.3731243 110.53065589 -215.7265625 130.01855469 C-216.86742529 153.49180669 -210.83351149 176.01224909 -195.125 193.96875 C-193.62194593 195.54836031 -192.10164685 197.11178658 -190.5625 198.65625 C-189.88832031 199.35363281 -189.21414062 200.05101562 -188.51953125 200.76953125 C-172.8372517 215.92220286 -151.83991748 220.13818275 -130.71875 219.87109375 C-107.67003861 219.18694137 -90.54466523 208.23458987 -74.5625 192.65625 C-73.67691406 191.79902344 -72.79132812 190.94179688 -71.87890625 190.05859375 C-67.54538291 185.79959331 -67.54538291 185.79959331 -63.6640625 181.13671875 C-61.33997848 178.39360842 -59.0551242 176.78504747 -56 174.90625 C-55.04996094 174.31328125 -54.09992187 173.7203125 -53.12109375 173.109375 C-48.0118248 170.20762225 -43.3090012 169.96666986 -37.5625 170.65625 C-29.53240819 173.19479515 -23.10890836 178.87432291 -16.61914062 184.03710938 C-12.45324886 187.31680954 -8.22018645 190.50945582 -4 193.71875 C-3.09137207 194.41331299 -2.18274414 195.10787598 -1.24658203 195.82348633 C2.55381041 198.72530965 6.35311887 201.62003303 10.2421875 204.40234375 C18.43902396 210.29956898 25.12781687 216.47439688 27.4375 226.65625 C28.56074197 235.53298167 25.63662044 242.53623344 20.36499023 249.5402832 C19.85266846 250.19730225 19.34034668 250.85432129 18.8125 251.53125 C18.27761963 252.22887451 17.74273926 252.92649902 17.19165039 253.64526367 C12.86524465 259.23162432 8.33281853 264.55801672 3.4375 269.65625 C2.17873047 270.99236328 2.17873047 270.99236328 0.89453125 272.35546875 C-5.73559409 279.21520883 -12.81047714 285.12158503 -20.5625 290.65625 C-21.43648437 291.28080078 -21.43648437 291.28080078 -22.328125 291.91796875 C-40.78225144 304.95621026 -60.4837532 314.2766685 -82.375 319.90625 C-83.27355713 320.14045654 -84.17211426 320.37466309 -85.09790039 320.6159668 C-102.17269077 324.77324225 -119.28623103 326.2162232 -136.8125 326.09375 C-137.74483459 326.09070862 -138.67716919 326.08766724 -139.63775635 326.08453369 C-154.60159095 326.01265208 -168.95397387 325.15168942 -183.5625 321.65625 C-184.90779785 321.34276611 -184.90779785 321.34276611 -186.28027344 321.02294922 C-233.69352382 309.62635411 -277.02646449 279.24012569 -302.76708984 237.71289062 C-305.51842334 233.10801523 -308.08372196 228.41266418 -310.5625 223.65625 C-310.87815918 223.05232422 -311.19381836 222.44839844 -311.51904297 221.82617188 C-334.39266943 177.32457292 -336.61165281 122.9356018 -321.5625 75.65625 C-304.80013228 26.11901818 -269.5900201 -11.41456028 -223.24731445 -34.59960938 C-150.02418023 -69.93973057 -58.6555949 -55.48844615 0 0 Z " fill="#011B33" transform="translate(3446.5625,196.34375)"/>
<path d="M0 0 C0.79742615 -0.00671722 1.59485229 -0.01343445 2.41644287 -0.02035522 C5.04551473 -0.03931021 7.67433091 -0.04325828 10.3034668 -0.04541016 C12.13803715 -0.0518403 13.97260647 -0.05856882 15.80717468 -0.06558228 C19.65125912 -0.07754913 23.49525373 -0.08126376 27.33935547 -0.08007812 C32.25201811 -0.07987508 37.16410132 -0.10716483 42.07662678 -0.14162254 C45.86602902 -0.16392113 49.65529253 -0.16791474 53.44475365 -0.16685867 C55.25515932 -0.16921065 57.06556906 -0.17801136 58.87590981 -0.19352341 C61.41507496 -0.21324177 63.95300001 -0.20732286 66.4921875 -0.1953125 C67.23168137 -0.20655151 67.97117523 -0.21779053 68.733078 -0.22937012 C75.06442453 -0.1537256 80.23273614 1.9016014 84.9987793 6.10693359 C85.45381836 6.68314453 85.90885742 7.25935547 86.37768555 7.85302734 C86.85077148 8.43181641 87.32385742 9.01060547 87.8112793 9.60693359 C90.62909837 13.8092866 90.07376776 18.41670773 90.05371094 23.26000977 C90.05385696 24.17728348 90.05400299 25.09455719 90.05415344 26.03962708 C90.05345612 29.07510737 90.04567211 32.1105265 90.0378418 35.14599609 C90.03597698 37.24921129 90.03455338 39.35242692 90.03355408 41.4556427 C90.02973394 46.99422401 90.01990791 52.53277914 90.0088501 58.0713501 C89.99862519 63.72187954 89.99405414 69.3724132 89.98901367 75.02294922 C89.97828522 86.11215344 89.9612148 97.20133821 89.94018555 108.29052734 C91.12289536 108.28386551 92.30560516 108.27720367 93.52415466 108.27033997 C104.69087588 108.20942402 115.8575632 108.16450436 127.02441311 108.13509083 C132.76488122 108.1194605 138.50521478 108.09827021 144.24560547 108.06420898 C149.78935627 108.03152182 155.33297794 108.01365453 160.8768177 108.00589561 C162.98783461 108.00036891 165.09884476 107.98957667 167.20980644 107.97333717 C170.17534319 107.95143868 173.14035194 107.94856562 176.10595703 107.94995117 C176.97127045 107.93916534 177.83658386 107.92837952 178.7281189 107.91726685 C185.83862716 107.95302174 193.35594159 109.17341154 198.81518555 114.10302734 C199.34885742 114.56322266 199.8825293 115.02341797 200.43237305 115.49755859 C204.18835994 119.96387461 205.31687684 124.15537758 205.34423828 129.90332031 C205.36326454 131.84596268 205.36326454 131.84596268 205.38267517 133.82785034 C205.38062325 135.22947348 205.37763482 136.63109551 205.3737793 138.03271484 C205.37834596 139.48471317 205.38365297 140.93670933 205.3896637 142.38870239 C205.39857826 145.42654215 205.39619155 148.4641188 205.38623047 151.50195312 C205.37475456 155.37776472 205.39493838 159.25266331 205.42414761 163.12835503 C205.44257619 166.12600388 205.44220382 169.12343674 205.43651009 172.12112808 C205.43635762 173.54914758 205.44233985 174.97718242 205.45480156 176.40514755 C205.52224832 185.40160216 205.42708267 192.40772753 199.08081055 199.31396484 C198.14495117 199.98298828 198.14495117 199.98298828 197.19018555 200.66552734 C196.26979492 201.35775391 196.26979492 201.35775391 195.33081055 202.06396484 C188.92405449 205.35109132 182.34978859 205.57645812 175.3112793 205.51757812 C173.91964317 205.5180162 173.91964317 205.5180162 172.49989319 205.51846313 C169.45905936 205.51707917 166.41847613 205.50156215 163.37768555 205.48583984 C161.25919732 205.48210639 159.14070737 205.47926099 157.0222168 205.4772644 C151.46558811 205.46965411 145.90906515 205.45002806 140.35247803 205.42785645 C134.67469716 205.40734181 128.9968991 205.3982507 123.3190918 205.38818359 C112.19274344 205.36677965 101.06647331 205.33267527 89.94018555 205.29052734 C90.0242207 222.71971293 90.11940348 240.14879764 90.22771263 257.57784843 C90.27774947 265.67118329 90.32419312 273.76450846 90.36206055 281.85791016 C90.39509036 288.91539207 90.43498158 295.97279686 90.4829756 303.03019345 C90.50813181 306.764051 90.52994464 310.49785812 90.54352951 314.23177719 C90.55885568 318.40886186 90.58950605 322.58570379 90.62133789 326.76269531 C90.62349808 327.98909225 90.62565826 329.2154892 90.62788391 330.47904968 C90.73592308 341.60532977 91.74567993 353.13775567 99.35424805 361.92333984 C106.14517961 367.98796856 114.37288958 369.66635893 123.16674805 369.48583984 C133.31126794 368.77143703 141.37162468 364.8002541 150.09033203 359.87109375 C156.40877772 356.3434436 162.51102041 353.66281775 169.94018555 354.35302734 C170.70331055 354.40587891 171.46643555 354.45873047 172.25268555 354.51318359 C179.73260686 356.67670735 184.13762013 361.06190735 188.00268555 367.60302734 C188.44821777 368.32361328 188.89375 369.04419922 189.3527832 369.78662109 C190.34236355 371.38870312 191.32475557 372.99524103 192.30102539 374.60546875 C194.10726491 377.56421498 195.95188343 380.49667266 197.8034668 383.42724609 C216.03095807 412.3255665 216.03095807 412.3255665 214.94018555 426.29052734 C214.08046122 429.38062221 212.80958202 431.69940186 210.94018555 434.29052734 C210.5740918 434.83451172 210.20799805 435.37849609 209.83081055 435.93896484 C191.45720698 460.09685102 156.36097267 470.17366178 127.87768555 474.40771484 C119.47460351 475.47369072 111.15238776 475.64602762 102.69018555 475.60302734 C101.92294159 475.60087219 101.15569763 475.59871704 100.36520386 475.59649658 C88.67497596 475.54390568 77.33394314 475.1396067 65.94018555 472.29052734 C64.73483154 471.99251221 64.73483154 471.99251221 63.50512695 471.68847656 C45.40701559 467.0537214 29.62291914 459.85761099 14.94018555 448.29052734 C13.71235352 447.33919922 13.71235352 447.33919922 12.4597168 446.36865234 C-1.4072906 434.88235242 -11.60484567 418.30591765 -17.43481445 401.41552734 C-17.66144775 400.7700293 -17.88808105 400.12453125 -18.12158203 399.45947266 C-22.54964302 385.57078194 -23.50591839 371.19362016 -23.40039062 356.73339844 C-23.39954134 355.06574011 -23.40002535 353.39808066 -23.40171814 351.73042297 C-23.40256779 347.26665317 -23.38511213 342.80313249 -23.36399627 338.33941984 C-23.34505461 333.65098604 -23.34346541 328.96254454 -23.33992004 324.27407837 C-23.33065036 315.42417339 -23.30610644 306.57438154 -23.27587157 297.72452605 C-23.24216807 287.6372549 -23.22580173 277.54997793 -23.21078527 267.46266437 C-23.17955148 246.73855591 -23.1268914 226.0145488 -23.05981445 205.29052734 C-24.94301392 205.31409302 -24.94301392 205.31409302 -26.86425781 205.33813477 C-31.55510964 205.39273866 -36.24593377 205.42698766 -40.93701172 205.45532227 C-42.96114844 205.47033979 -44.985253 205.49075996 -47.00927734 205.5168457 C-49.93115207 205.55354002 -52.85259381 205.57032442 -55.7746582 205.58349609 C-56.66877914 205.59897995 -57.56290009 205.61446381 -58.4841156 205.63041687 C-65.29946728 205.63221214 -71.93464475 204.78440233 -77.3996582 200.42333984 C-77.92688477 199.76076172 -78.45411133 199.09818359 -78.99731445 198.41552734 C-79.54258789 197.75810547 -80.08786133 197.10068359 -80.6496582 196.42333984 C-83.61816256 191.93357979 -84.31449127 188.13926392 -84.3503418 182.79125977 C-84.3631015 181.49608932 -84.37586121 180.20091888 -84.38900757 178.86650085 C-84.39206571 177.45966746 -84.39429321 176.05283205 -84.39575195 174.64599609 C-84.40218514 173.19256969 -84.40891388 171.73914456 -84.41592407 170.28572083 C-84.42788116 167.24196371 -84.4316066 164.19831995 -84.43041992 161.15454102 C-84.43021699 157.27089546 -84.4574987 153.38798376 -84.49196434 149.50451183 C-84.51429995 146.50259624 -84.51825542 143.50085528 -84.51720047 140.49886513 C-84.5195472 139.06804187 -84.5283181 137.63721311 -84.5438652 136.2064724 C-84.69851131 120.50313747 -84.69851131 120.50313747 -78.71859741 113.78337097 C-72.35874107 107.87064771 -64.90560393 108.00434512 -56.7512207 108.09521484 C-55.30113869 108.09945969 -55.30113869 108.09945969 -53.82176208 108.10379028 C-50.75514993 108.11492328 -47.6888373 108.14001511 -44.62231445 108.16552734 C-42.53442807 108.17556604 -40.44653707 108.18469033 -38.35864258 108.19287109 C-33.25891902 108.21484007 -28.1594174 108.24932227 -23.05981445 108.29052734 C-23.07646904 106.55071594 -23.07646904 106.55071594 -23.09346008 104.77575684 C-23.19494637 93.82952418 -23.26983294 82.88338735 -23.31887531 71.93679047 C-23.34493649 66.30938565 -23.38027163 60.68236152 -23.43701172 55.05517578 C-23.49145461 49.62163059 -23.52126116 44.1884509 -23.53420067 38.75465393 C-23.54341844 36.68463896 -23.56141881 34.61464334 -23.58846474 32.54478455 C-23.62491788 29.63863353 -23.62975296 26.73398064 -23.62744141 23.82763672 C-23.64541779 22.9774295 -23.66339417 22.12722229 -23.68191528 21.25125122 C-23.62915941 15.09609063 -21.90259269 11.09174292 -18.05981445 6.29052734 C-12.5230326 1.03058459 -7.46796784 -0.00907868 0 0 Z " fill="#011B33" transform="translate(2481.059814453125,44.70947265625)"/>
<path d="M0 0 C2.31154619 -0.00461146 4.62308944 -0.01096603 6.93462658 -0.01890898 C13.2734984 -0.03559145 19.61212901 -0.02736062 25.95100164 -0.0149641 C32.08922666 -0.00488314 38.22742779 -0.0175063 44.36564603 -0.02755357 C57.69154795 -0.04859472 71.01737306 -0.04679968 84.34328225 -0.03523792 C96.005098 -0.0251698 107.66688563 -0.02255163 119.32870483 -0.02732849 C120.10270652 -0.02763403 120.87670821 -0.02793957 121.6741645 -0.02825437 C124.8162069 -0.02949976 127.95824928 -0.03077336 131.10029165 -0.03209343 C160.56613593 -0.04432535 190.03193135 -0.03324205 219.49776809 -0.01170584 C245.66789045 0.00727614 271.83793496 0.00557761 298.00805664 -0.0135498 C327.42051672 -0.03497522 356.83293363 -0.04345782 386.24540043 -0.03110075 C389.38166872 -0.02981791 392.51793702 -0.02856655 395.65420532 -0.02732849 C396.81252199 -0.02685403 396.81252199 -0.02685403 397.994239 -0.02636998 C409.64781303 -0.02182293 421.30135583 -0.02713589 432.95492554 -0.0372467 C446.20753967 -0.04868765 459.46006509 -0.0458161 472.71266818 -0.02412373 C479.47450268 -0.01342036 486.23616959 -0.00949666 492.99800491 -0.02272034 C499.18853372 -0.03464366 505.37875808 -0.02808206 511.56925929 -0.00681013 C513.8080047 -0.0023439 516.04677586 -0.00461074 518.2855047 -0.01431328 C544.67134024 -0.1198914 544.67134024 -0.1198914 554.70629883 9.52355957 C564.08046866 19.94386214 564.81298799 29.68425146 564.82739258 43.26965332 C564.83383495 44.70681383 564.84056433 46.14397308 564.8475647 47.58113098 C564.8594929 50.58597853 564.86325032 53.59071153 564.86206055 56.59558105 C564.861858 60.41027307 564.88911283 64.22421476 564.92360497 68.03872967 C564.94605616 71.00652815 564.94989253 73.97415151 564.94884109 76.94202614 C564.9511716 78.34638863 564.95984772 79.75075789 564.97550583 81.15503502 C565.08682124 92.17200879 564.3893841 104.60014179 556.36645508 113.00793457 C549.62235528 119.85219426 541.90812641 123.4823554 532.30405694 123.63558507 C530.59926811 123.64194432 528.8944535 123.64279328 527.18965626 123.63936234 C526.24477048 123.64141497 525.29988471 123.6434676 524.32636604 123.64558244 C521.14210967 123.65126254 517.95789642 123.64979394 514.77363586 123.64837646 C512.4748084 123.65095952 510.17598139 123.65397251 507.87715501 123.65737987 C501.54567747 123.6654601 495.21421126 123.66724001 488.88272917 123.66797733 C482.76007761 123.66915373 476.6374309 123.67595315 470.51478269 123.68205575 C454.11051911 123.69811602 437.70625646 123.70401897 421.30198644 123.70880449 C413.54206219 123.71114033 405.78213869 123.71474296 398.02221503 123.71849987 C371.4602852 123.73133515 344.89835578 123.74205456 318.33642292 123.74550247 C316.66901297 123.7457241 315.00160301 123.74594589 313.33419306 123.74616782 C311.66275277 123.74638846 309.99131249 123.74660895 308.3198722 123.74682927 C304.9666661 123.74727182 301.61346 123.74771894 298.26025391 123.74816895 C297.42885371 123.74827834 296.5974535 123.74838773 295.74085936 123.74850043 C268.78015034 123.7521314 241.81946821 123.76805307 214.85876949 123.79135931 C186.35563729 123.81595387 157.85252046 123.82967513 129.34937733 123.83087039 C126.22061646 123.83104184 123.09185558 123.83125727 119.96309471 123.83150482 C119.19270348 123.83156059 118.42231224 123.83161636 117.62857581 123.83167382 C105.22962878 123.83282456 92.83070933 123.84384852 80.43177161 123.85839188 C67.96989107 123.87275635 55.50804591 123.87599414 43.04615936 123.8679519 C36.29463616 123.86388774 29.54321134 123.8650043 22.79169846 123.87900925 C16.61152456 123.89171197 10.43151361 123.89058246 4.25134005 123.87841853 C2.01512026 123.87645526 -0.22111094 123.87956895 -2.45731469 123.8882629 C-5.49758765 123.89933491 -8.53728341 123.89188078 -11.5775404 123.87987137 C-12.44506578 123.88746656 -13.31259116 123.89506176 -14.20640519 123.90288711 C-24.09130748 123.81863335 -32.16257085 121.21298473 -39.50854492 114.50793457 C-46.85604644 106.99344438 -49.6073161 98.37206274 -49.66967773 88.04040527 C-49.67928528 86.75169022 -49.68889282 85.46297516 -49.6987915 84.13520813 C-49.70364126 82.73471251 -49.70791965 81.33421481 -49.71166992 79.93371582 C-49.7144973 79.22263357 -49.71732468 78.51155132 -49.72023773 77.77892113 C-49.73519867 74.01321419 -49.74444669 70.24754523 -49.7487793 66.48181152 C-49.75424844 62.61644633 -49.77825204 58.75143614 -49.80675125 54.88618183 C-49.82549639 51.89278696 -49.83058957 48.89947542 -49.83211517 45.90602684 C-49.83511731 44.48244481 -49.84306207 43.05886338 -49.85630035 41.63533974 C-49.97347874 28.0624906 -48.23542128 18.87387589 -38.94995117 8.82043457 C-28.20694564 -1.48460671 -13.8078868 -0.0598427 0 0 Z " fill="#00C3F7" transform="translate(49.508544921875,224.4920654296875)"/>
<path d="M0 0 C0.89085781 -0.00205263 1.78171563 -0.00410527 2.69956914 -0.0062201 C5.70003738 -0.01189762 8.70045982 -0.01043192 11.7009325 -0.00901413 C13.86776638 -0.01159733 16.03459979 -0.01461036 18.20143253 -0.01801753 C24.16805984 -0.02609603 30.13467513 -0.02787758 36.10130727 -0.028615 C42.53160353 -0.03046407 48.96189352 -0.03801065 55.39218616 -0.04475021 C70.19183547 -0.05931745 84.99148349 -0.06486078 99.79113867 -0.06944216 C107.10459176 -0.07177817 114.41804407 -0.07538082 121.73149655 -0.07913754 C146.76637794 -0.0919727 171.80125889 -0.10269209 196.83614349 -0.10614014 C198.40763066 -0.10636177 199.97911782 -0.10658355 201.55060499 -0.10680549 C203.12588534 -0.10702613 204.70116569 -0.10724661 206.27644604 -0.10746694 C209.4367251 -0.10790949 212.59700416 -0.1083566 215.75728321 -0.10880661 C216.54084845 -0.108916 217.32441368 -0.10902539 218.13172332 -0.1091381 C243.54037519 -0.11276895 268.94899853 -0.12869022 294.35763948 -0.15199697 C321.22145767 -0.17659348 348.08525956 -0.19031288 374.94908935 -0.19150805 C377.89810678 -0.19167951 380.8471242 -0.19189494 383.79614162 -0.19214249 C384.88533726 -0.19222614 384.88533726 -0.19222614 385.99653684 -0.19231148 C397.68137278 -0.19346206 409.36617945 -0.2044846 421.05100551 -0.21902954 C432.79595492 -0.23339652 444.5408636 -0.23637789 456.28581943 -0.22858956 C462.6484921 -0.22467798 469.01106625 -0.22563759 475.37372684 -0.23964691 C481.19862285 -0.25235502 487.023346 -0.25121537 492.84824166 -0.2390562 C494.95525649 -0.23709386 497.06228343 -0.24020233 499.16928121 -0.24890056 C502.03529958 -0.25998293 504.9007068 -0.25251115 507.76670837 -0.24050903 C508.99098787 -0.25190182 508.99098787 -0.25190182 510.24000028 -0.26352477 C519.83961846 -0.17686094 528.18414347 2.43436707 535.19795704 9.13142776 C542.50055159 17.27854005 545.30456882 25.51467918 545.34322071 36.45296097 C545.35279049 38.30066841 545.35279049 38.30066841 545.3625536 40.18570328 C545.36422283 42.16397362 545.36422283 42.16397362 545.36592579 44.18220901 C545.3691441 45.56454883 545.37250859 46.94688832 545.37601185 48.32922745 C545.38198377 51.2215542 545.38385378 54.11385115 545.38325977 57.00618362 C545.38315833 60.69106159 545.39680089 64.37574612 545.41403198 68.06057835 C545.4252154 70.91496004 545.42717703 73.76929593 545.42665005 76.62369728 C545.42838586 78.63591697 545.43918629 80.64812236 545.45020008 82.66031265 C545.41967057 94.97739681 543.71870646 104.65468226 535.41280079 114.17830276 C524.52337658 124.6428829 510.98951134 123.70418112 496.90425587 123.63936234 C494.72470305 123.64397437 492.54515335 123.65032932 490.36561012 123.65827131 C484.39158371 123.67494594 478.41781339 123.66672656 472.44378614 123.65432644 C465.99515689 123.64527073 459.54657146 123.65924829 453.09795094 123.67024612 C441.20053293 123.68777879 429.30319587 123.68555361 417.40577313 123.67460025 C406.4140172 123.6645306 395.4222911 123.66191468 384.4305315 123.66669083 C383.70089291 123.66699637 382.97125432 123.66730191 382.21950547 123.66761671 C379.25752538 123.6688621 376.29554531 123.6701357 373.33356525 123.67145576 C345.55851471 123.68368663 317.78351601 123.67260607 290.00847347 123.65106817 C265.3421147 123.63208631 240.67583853 123.63378485 216.00948048 123.65291214 C188.28462647 123.67433935 160.55981826 123.68281916 132.83495712 123.67046309 C129.87843228 123.66918025 126.92190743 123.66792889 123.96538258 123.66669083 C123.23743228 123.66637452 122.50948198 123.66605821 121.75947259 123.66573231 C110.77570816 123.661186 99.79197688 123.66649684 88.80821705 123.67660904 C76.31683307 123.68805202 63.82554988 123.68478954 51.33417726 123.66348606 C44.96119322 123.65297536 38.58837681 123.64885445 32.21539402 123.66208267 C26.38013973 123.67401154 20.54520828 123.66743532 14.70998323 123.64617246 C12.60044307 123.64170858 10.49087557 123.64396783 8.38135302 123.65367562 C-6.30971314 123.71609011 -17.62355953 123.22432139 -28.70438671 112.49470901 C-37.04461044 103.09836757 -37.12507995 91.56000672 -37.13798046 79.58845901 C-37.14442321 78.17371873 -37.15115261 76.75897973 -37.15815258 75.3442421 C-37.17007959 72.38647251 -37.17383833 69.42881928 -37.17264843 66.47102737 C-37.1724459 62.71686448 -37.19969967 58.96346415 -37.23419285 55.20948124 C-37.25664874 52.28800541 -37.26048027 49.36670741 -37.25942898 46.44515419 C-37.26175882 45.06311997 -37.27043105 43.68107882 -37.28609371 42.29913139 C-37.39860624 31.34388277 -36.6482702 18.9850386 -28.67704296 10.63142776 C-20.3073955 2.13747861 -11.59704332 -0.0247866 0 0 Z " fill="#00C3F7" transform="translate(36.802042961120605,64.86857223510742)"/>
<path d="M0 0 C2.1862272 -0.00532758 4.37245073 -0.01239448 6.5586673 -0.02104706 C12.55581942 -0.03967308 18.55272458 -0.03336936 24.54988694 -0.02289402 C31.02173403 -0.01590197 37.49353038 -0.03190006 43.96536255 -0.04489136 C55.90775359 -0.06607249 67.85006899 -0.06734995 79.79247322 -0.0596749 C90.82676799 -0.05259827 101.8610336 -0.0525484 112.89532852 -0.05953789 C114.37625972 -0.06044922 115.85719091 -0.06135999 117.33812211 -0.06227018 C119.56983719 -0.06365333 121.80155226 -0.06504442 124.03326732 -0.06645631 C144.77790746 -0.07943449 165.52253784 -0.08455466 186.26717949 -0.07292271 C187.04893265 -0.07248474 187.8306858 -0.07204677 188.63612845 -0.07159552 C194.98424574 -0.06798881 201.33236289 -0.06415398 207.68048004 -0.06030459 C232.44068359 -0.04545816 257.20077683 -0.05423561 281.96096802 -0.08226013 C309.78983772 -0.11369779 337.61864212 -0.12865493 365.44752991 -0.11846012 C368.41560307 -0.11742337 371.38367624 -0.11643614 374.35174942 -0.11547661 C375.0825451 -0.11522772 375.81334077 -0.11497884 376.56628177 -0.11472241 C387.59101361 -0.11128442 398.61568774 -0.12058057 409.64040756 -0.13624763 C422.18047686 -0.15402733 434.7203958 -0.15366228 447.26045953 -0.13089598 C453.65789927 -0.11974825 460.05507483 -0.11660386 466.4525032 -0.13519669 C472.31134658 -0.15200504 478.16969541 -0.14564471 484.02850677 -0.1209799 C486.14549806 -0.11609748 488.26252927 -0.11960982 490.37948714 -0.13246734 C503.57010142 -0.20678634 514.95208662 -0.0215011 525.25735474 9.3271637 C534.60678298 19.68524395 535.06463628 31.44749315 535.02297974 44.8584137 C535.02433044 46.23646615 535.02627432 47.61451813 535.02877808 48.99256897 C535.03171032 51.86700521 535.02749341 54.74131633 535.01809692 57.61573792 C535.00670345 61.27701024 535.01327319 64.9379892 535.02524185 68.59925079 C535.03251212 71.4407721 535.03014897 74.28222528 535.02498627 77.12374878 C535.02302703 79.12266737 535.02903886 81.12158875 535.0352478 83.12049866 C534.97361447 95.16085605 533.41121108 105.08080983 525.12454224 114.33888245 C516.69428117 122.12216998 506.96185238 123.67107408 495.89194012 123.64329815 C495.00638236 123.64505119 494.1208246 123.64680422 493.20843175 123.64861038 C490.23202262 123.65327356 487.25566228 123.65080405 484.2792511 123.64837646 C482.1273408 123.65024427 479.97543085 123.65254486 477.82352144 123.65524179 C471.90282767 123.66136987 465.98214801 123.66122501 460.06145179 123.66004741 C453.67891018 123.65984366 447.29637312 123.66535971 440.91383362 123.67010498 C428.40665293 123.67841755 415.8994771 123.68117304 403.39229389 123.68171736 C393.22803872 123.68217682 383.06378508 123.68423474 372.89953041 123.68741798 C369.97423834 123.68831552 367.04894626 123.68920534 364.12365419 123.69009286 C363.03281432 123.69042443 363.03281432 123.69042443 361.91993728 123.6907627 C341.46323514 123.69691726 321.00653354 123.70086323 300.54983044 123.70041943 C299.77850044 123.70040385 299.00717045 123.70038827 298.21246682 123.70037222 C294.30300472 123.70028911 290.39354262 123.70019007 286.48408052 123.70008751 C285.70764083 123.70006756 284.93120113 123.70004762 284.13123297 123.70002707 C282.56108266 123.69998663 280.99093235 123.69994484 279.42078204 123.69990168 C254.99024238 123.69928888 230.5597166 123.70679609 206.12918091 123.72047424 C178.68456301 123.73583357 151.23995424 123.74444056 123.79533178 123.74351102 C120.86909664 123.74343639 117.9428615 123.74338768 115.01662636 123.7433567 C114.29610762 123.74334505 113.57558887 123.7433334 112.83323623 123.74332139 C101.23659975 123.74329061 89.63997531 123.74967735 78.0433424 123.75828897 C66.389274 123.76676428 54.73522716 123.76758471 43.08115693 123.76117965 C36.76722854 123.75790829 30.45334383 123.75787997 24.13941956 123.7665329 C18.36029046 123.77437156 12.58123986 123.77299345 6.80211274 123.76424877 C4.71062458 123.76270796 2.61913065 123.76455167 0.52764931 123.77010884 C-2.31489796 123.77716183 -5.15716932 123.77188074 -7.99970722 123.76355267 C-9.21787239 123.77100494 -9.21787239 123.77100494 -10.46064696 123.77860776 C-21.09478372 123.71273389 -30.01403656 121.0897353 -38.06686401 113.8818512 C-44.84047386 106.5451957 -47.34456534 97.85710449 -47.40377808 88.0471344 C-47.41338562 86.75841934 -47.42299316 85.46970428 -47.43289185 84.14193726 C-47.4377416 82.74144164 -47.44201999 81.34094394 -47.44577026 79.94044495 C-47.44859764 79.2293627 -47.45142502 78.51828045 -47.45433807 77.78565025 C-47.46929901 74.01994331 -47.47854703 70.25427435 -47.48287964 66.48854065 C-47.48834878 62.62317546 -47.51235238 58.75816526 -47.54085159 54.89291096 C-47.55959673 51.89951608 -47.56468991 48.90620454 -47.56621552 45.91275597 C-47.56921766 44.48917394 -47.57716241 43.0655925 -47.5904007 41.64206886 C-47.70698316 28.13824591 -46.03394509 18.76427528 -36.64889526 8.8271637 C-26.14858724 -1.07878727 -13.5057171 -0.05730361 0 0 Z " fill="#00C3F7" transform="translate(47.242645263671875,384.48533630371094)"/>
<path d="M0 0 C1.24763791 -0.00453111 2.49527583 -0.00906223 3.78072095 -0.01373065 C7.23676702 -0.02594764 10.69271619 -0.02570172 14.14877892 -0.02334189 C17.87897605 -0.02293339 21.60914226 -0.03397608 25.33932495 -0.04345703 C32.64512576 -0.06006118 39.9508943 -0.06556632 47.25671241 -0.06668179 C53.19661065 -0.0676326 59.13649825 -0.07174456 65.07639313 -0.07808304 C81.9235767 -0.09569435 98.7707348 -0.10492216 115.61792764 -0.10342209 C116.97992913 -0.10330222 116.97992913 -0.10330222 118.3694458 -0.10317993 C119.73311381 -0.10305729 119.73311381 -0.10305729 121.12433067 -0.10293217 C135.85445132 -0.10211944 150.58446967 -0.12125403 165.31456074 -0.14945666 C180.44567232 -0.17819807 195.57673402 -0.19199625 210.70787358 -0.19026911 C219.20027947 -0.18960561 227.69257814 -0.1950802 236.18495941 -0.21662521 C243.41630131 -0.23485363 250.64748738 -0.23917081 257.87884232 -0.22560637 C261.56621718 -0.21908485 265.25329323 -0.21892955 268.9406395 -0.23631287 C272.94388712 -0.25499079 276.94644561 -0.24246781 280.94970703 -0.22705078 C282.10711608 -0.23733791 283.26452512 -0.24762503 284.45700717 -0.25822389 C294.33993043 -0.17422368 302.56963887 2.2093467 309.90460205 9.06820679 C315.93584928 16.33928215 318.8356184 24.5027225 318.88995361 33.80502319 C318.89491852 34.45278717 318.89988342 35.10055115 318.90499878 35.76794434 C318.91957193 37.90580319 318.92641624 40.04358771 318.9319458 42.18148804 C318.93477318 42.91555248 318.93760056 43.64961693 318.94051361 44.40592575 C318.95549117 48.29482125 318.96472811 52.18367983 318.96905518 56.07260132 C318.97452045 60.06690585 318.99851101 64.06086616 319.02702713 68.05506325 C319.04576883 71.14539533 319.05086532 74.23564665 319.05239105 77.32603073 C319.055395 78.7970606 319.06334606 80.26808982 319.07657623 81.73906326 C319.17733496 93.80873514 318.40163475 104.18441093 309.7288208 113.26742554 C301.05598532 121.04124758 293.72733249 122.71394365 282.29942322 122.65510559 C280.42055938 122.6631839 280.42055938 122.6631839 278.5037387 122.6714254 C275.03850203 122.68585714 271.57350366 122.68164248 268.10825408 122.67425859 C264.36647865 122.66952348 260.62475453 122.68203989 256.88299561 122.692276 C249.55659192 122.70946346 242.23027401 122.71030402 234.90385541 122.7050631 C228.94729117 122.70101956 222.99075225 122.70246715 217.03418922 122.70781136 C216.18598898 122.70855978 215.33778874 122.7093082 214.46388546 122.7100793 C212.7406745 122.7116108 211.01746356 122.71314915 209.29425261 122.71469427 C193.13724408 122.72841947 176.98028398 122.7229818 160.82327656 122.71150906 C146.05118281 122.70157978 131.27921437 122.71451202 116.50713994 122.73844325 C101.33079047 122.76284369 86.15449933 122.7724396 70.97813064 122.76579052 C62.46115432 122.7623 53.94427432 122.76451917 45.42731285 122.78204155 C38.17585822 122.79677548 30.92456774 122.79738362 23.67311629 122.77997064 C19.97561446 122.77146741 16.27840569 122.76929412 12.58091927 122.78462219 C8.5667659 122.80105649 4.55331736 122.78630112 0.53916931 122.76863098 C-1.2017575 122.78303849 -1.2017575 122.78303849 -2.97785455 122.79773706 C-12.86606069 122.70829367 -21.11272958 120.33579009 -28.44696045 113.46273804 C-34.74470621 105.88386627 -37.37384438 97.4864212 -37.43231201 87.79989624 C-37.44191956 86.51118118 -37.4515271 85.22246613 -37.46142578 83.8946991 C-37.46627554 82.49420348 -37.47055393 81.09370578 -37.4743042 79.69320679 C-37.47713158 78.98212454 -37.47995895 78.27104229 -37.48287201 77.53841209 C-37.49783294 73.77270515 -37.50708096 70.00703619 -37.51141357 66.24130249 C-37.51688271 62.3759373 -37.54088632 58.5109271 -37.56938553 54.6456728 C-37.58813066 51.65227792 -37.59322385 48.65896639 -37.59474945 45.66551781 C-37.59775159 44.24193578 -37.60569634 42.81835434 -37.61893463 41.3948307 C-37.72336462 29.29863708 -36.56108033 18.61303432 -28.2711792 9.26742554 C-19.18239865 1.52348894 -11.68991441 -0.03104266 0 0 Z " fill="#00C3F7" transform="translate(37.27117919921875,544.7325744628906)"/>
</svg>
